<?xml version="1.0" encoding="UTF-8"?>
<svg id="Layer_2" data-name="Layer 2" xmlns="http://www.w3.org/2000/svg" xmlns:xlink="http://www.w3.org/1999/xlink" viewBox="0 0 115.83 90.09">
  <defs>
    <style>
      .cls-1 {
        fill: url(#linear-gradient-2);
      }

      .cls-2 {
        fill: url(#linear-gradient-3);
      }

      .cls-3 {
        fill: url(#linear-gradient);
      }
    </style>
    <linearGradient id="linear-gradient" x1="-4.83" y1="45.04" x2="119.51" y2="45.04" gradientUnits="userSpaceOnUse">
      <stop offset="0" stop-color="#9e28db"/>
      <stop offset=".62" stop-color="#cf55b2"/>
      <stop offset="1" stop-color="#ff8189"/>
    </linearGradient>
    <linearGradient id="linear-gradient-2" y1="45.04" x2="119.51" y2="45.04" xlink:href="#linear-gradient"/>
    <linearGradient id="linear-gradient-3" y1="45.04" x2="119.51" y2="45.04" xlink:href="#linear-gradient"/>
  </defs>
  <g id="Layer_1-2" data-name="Layer 1">
    <g id="First_Logo_color" data-name="First Logo color">
      <path class="cls-3" d="M62.73,3.89c0-2.2-1.01-3.31-3.15-3.63-7.66-1.16-14.92,1.6-20.25,9.09C22.83,31.83,26.41,41.16,2.17,53.25c-1.13.56-1.93,1.66-2.08,2.93-.42,3.7.57,7.18,3.12,9.47.84.76,2.04.97,3.06.5,2.82-1.28,5.21-3.58,7.85-5.2,7.12-4.39,14.83-6.9,23.07-8.19,1.18-.19,1.83-1.58,1.12-2.56-1.28-1.77-5.83-2.27-9.92-2.03-.74.04-1.23-.9-.67-1.4,3.53-3.24,8.16-10.3,13.52-19.58.24-.47.86-.8.86.25,0,24.31-3.74,43.16,2.44,57.47,1.17,2.7,3.62,4.64,6.5,5.02,3.79.5,9.46-.33,12.05-1.13,1.08-.33,1.48-1.91,1.16-3.02-14.23-49.92-1.51-69.36-1.51-81.91Z"/>
      <path class="cls-1" d="M71.87.02c-2.25-.32-3.55,2.55-1.66,3.83,35.21,23.81,35.08,58.05,3.4,81.62-2.19,1.63-.19,4.88,2.5,4.59C125.42,84.81,134.09,8.77,71.87.02Z"/>
      <path class="cls-2" d="M78.39,63.55c1.7-10.57,4.04-14.17,10.65-16.97,1.49-.63,1.49-2.43,0-3.07-6.61-2.8-8.95-6.4-10.65-16.97-.18-1.11-2.09-1.11-2.27,0-1.7,10.57-4.04,14.17-10.65,16.97-1.49.63-1.49,2.43,0,3.07,6.61,2.8,8.95,6.4,10.65,16.97.18,1.11,2.09,1.11,2.27,0Z"/>
    </g>
  </g>
</svg>