<svg width="336" height="128" viewBox="0 0 336 128" fill="none" xmlns="http://www.w3.org/2000/svg">
<path d="M28.0118 4.40678V62.0339H8V4.40678H28.0118ZM17.4971 62.0339V44.2373H31.0644C34.004 44.2373 36.4348 43.8701 38.3569 43.1356C40.2789 42.3446 41.7204 41.1299 42.6814 39.4915C43.6425 37.7966 44.123 35.6215 44.123 32.9661C44.123 28.7853 42.9924 25.9605 40.7311 24.4915C38.4699 22.9661 35.2477 22.2034 31.0644 22.2034H17.4971V4.40678H31.7428C42.6532 4.40678 50.9066 6.94915 56.5031 12.0339C62.1562 17.1186 64.9827 24.096 64.9827 32.9661C64.9827 38.3898 63.8521 43.3051 61.5909 47.7119C59.3297 52.1186 55.8248 55.6215 51.0762 58.2203C46.3276 60.7627 40.1658 62.0339 32.5907 62.0339H17.4971Z" fill="white"/>
<path d="M92.2558 63.0508C84.0589 63.0508 77.8405 61.2147 73.6007 57.5424C69.4175 53.8136 67.3258 48.5311 67.3258 41.6949C67.3258 36.9492 68.2869 32.8531 70.2089 29.4068C72.1875 25.9605 75.014 23.3051 78.6885 21.4407C82.3629 19.5763 86.744 18.6441 91.8318 18.6441C96.6934 18.6441 100.707 19.4068 103.873 20.9322C107.095 22.4576 109.498 24.4633 111.08 26.9492C112.663 29.435 113.455 32.1186 113.455 35C113.455 37.7684 112.776 40.0565 111.42 41.8644C110.119 43.6158 108.31 44.9435 105.993 45.8475C103.731 46.6949 101.188 47.2034 98.3611 47.3729C95.5911 47.4859 92.6797 47.3164 89.6271 46.8644C86.631 46.4124 83.7479 45.7062 80.9779 44.7458V34.322C83.6349 35.113 85.8678 35.6497 87.6768 35.9322C89.4858 36.2147 90.9273 36.2994 92.0014 36.1864C93.132 36.0734 93.9234 35.8192 94.3757 35.4237C94.8844 34.9718 95.1388 34.4633 95.1388 33.8983C95.1388 33.1638 94.8279 32.5706 94.2061 32.1186C93.5842 31.6102 92.708 31.3559 91.5774 31.3559C90.5033 31.3559 89.5423 31.6384 88.6943 32.2034C87.8464 32.7119 87.168 33.6723 86.6592 35.0847C86.207 36.4972 85.9809 38.4746 85.9809 41.0169C85.9809 43.3333 86.2353 45.1695 86.744 46.5254C87.3093 47.8249 88.2704 48.7571 89.6271 49.322C91.0404 49.887 93.0472 50.1695 95.6476 50.1695C98.5872 50.1695 101.385 49.887 104.042 49.322C106.699 48.7571 109.158 47.9379 111.42 46.8644V58.7288C109.102 60.0847 106.247 61.1582 102.855 61.9492C99.5199 62.6836 95.9868 63.0508 92.2558 63.0508Z" fill="white"/>
<path d="M134.26 63.0508C130.981 63.0508 127.844 62.7401 124.848 62.1186C121.852 61.5537 118.856 60.7345 115.859 59.661V44.9153C119.364 47.0056 122.869 48.7006 126.374 50C129.936 51.2994 132.875 51.9492 135.193 51.9492C136.097 51.9492 136.804 51.8362 137.313 51.6102C137.822 51.3842 138.076 51.0734 138.076 50.678C138.076 50.0565 137.539 49.5763 136.465 49.2373C135.391 48.8983 134.006 48.5593 132.31 48.2203C130.614 47.8814 128.833 47.4576 126.968 46.9492C125.102 46.3842 123.321 45.6215 121.626 44.661C119.93 43.7006 118.545 42.4011 117.471 40.7627C116.396 39.0678 115.859 36.9492 115.859 34.4068C115.859 31.2429 116.736 28.4746 118.488 26.1017C120.297 23.7288 122.926 21.8927 126.374 20.5932C129.822 19.2938 134.09 18.6441 139.178 18.6441C143.135 18.6441 146.471 19.0395 149.184 19.8305C151.898 20.6215 153.961 21.7514 155.374 23.2203C156.844 24.6328 157.579 26.3842 157.579 28.4746C157.579 30.339 157.014 31.8362 155.883 32.9661C154.752 34.0395 153.226 34.5763 151.304 34.5763C149.947 34.5763 148.704 34.3503 147.573 33.8983C146.442 33.3898 145.368 32.8249 144.351 32.2034C143.333 31.5254 142.316 30.9605 141.298 30.5085C140.281 30 139.235 29.7458 138.161 29.7458C137.426 29.7458 136.832 29.887 136.38 30.1695C135.928 30.452 135.702 30.8192 135.702 31.2712C135.702 32.0056 136.239 32.5989 137.313 33.0508C138.387 33.5028 139.772 33.9266 141.468 34.322C143.164 34.661 144.944 35.113 146.81 35.678C148.675 36.2429 150.456 37.0056 152.152 37.9661C153.848 38.9266 155.233 40.1977 156.307 41.7797C157.381 43.3616 157.918 45.3955 157.918 47.8814C157.918 50.9887 156.957 53.7006 155.035 56.0169C153.17 58.2768 150.456 60.0282 146.895 61.2712C143.39 62.4576 139.178 63.0508 134.26 63.0508Z" fill="white"/>
<path d="M161.266 62.0339V19.1525C167.371 20.8475 173.477 20.8475 179.582 19.1525V62.0339H161.266ZM170.424 17.2881C167.089 17.2881 164.545 16.5254 162.793 15C161.097 13.4181 160.249 11.2994 160.249 8.64407C160.249 5.9887 161.097 3.8983 162.793 2.37288C164.545 0.79096 167.089 0 170.424 0C173.759 0 176.275 0.79096 177.971 2.37288C179.723 3.8983 180.6 5.9887 180.6 8.64407C180.6 11.2994 179.723 13.4181 177.971 15C176.275 16.5254 173.759 17.2881 170.424 17.2881Z" fill="white"/>
<path d="M206.15 80C202.25 80 198.999 79.774 196.399 79.322C193.798 78.87 191.678 78.2768 190.039 77.5424C188.343 76.7514 187.071 75.8192 186.223 74.7458C185.375 73.6723 184.951 72.3446 184.951 70.7627C184.951 68.8418 185.545 67.3729 186.732 66.3559C187.919 65.339 189.559 64.8305 191.65 64.8305C192.894 64.8305 194.194 64.9717 195.551 65.2542C196.964 65.5367 198.406 65.8475 199.875 66.1864C201.402 66.5819 202.956 66.9209 204.539 67.2034C206.179 67.4859 207.846 67.6271 209.542 67.6271C211.351 67.6271 212.595 67.4294 213.273 67.0339C214.008 66.6949 214.375 66.2147 214.375 65.5932C214.375 65.0847 214.093 64.6328 213.527 64.2373C213.019 63.8983 211.888 63.7288 210.136 63.7288H200.469C196.738 63.7288 193.601 63.3333 191.057 62.5424C188.513 61.7514 186.591 60.5932 185.291 59.0678C183.99 57.4859 183.34 55.5367 183.34 53.2203C183.34 50.1695 184.386 47.6271 186.478 45.5932C188.626 43.5028 191.368 42.3729 194.703 42.2034L206.32 45.0847C204.85 45.0847 203.663 45.113 202.758 45.1695C201.854 45.226 201.176 45.3672 200.723 45.5932C200.328 45.7627 200.13 46.0734 200.13 46.5254C200.13 46.9774 200.384 47.3164 200.893 47.5424C201.402 47.7119 202.278 47.7966 203.522 47.7966H212.849C219.407 47.7966 224.381 48.9831 227.773 51.3559C231.165 53.6723 232.861 57.5141 232.861 62.8814C232.861 68.5311 230.769 72.7966 226.586 75.678C222.403 78.5593 215.591 80 206.15 80ZM206.32 45.0847C199.14 45.0847 193.657 44.096 189.869 42.1186C186.138 40.0847 184.273 36.7514 184.273 32.1186C184.273 28.8983 185.177 26.2994 186.986 24.322C188.852 22.3446 191.565 20.904 195.127 20C198.688 19.096 203.013 18.6441 208.101 18.6441L222.092 24.0678C223.053 24.4068 224.014 25 224.975 25.8475C225.992 26.6384 226.84 27.6836 227.519 28.9831C228.197 30.2825 228.536 31.8927 228.536 33.8136C228.536 36.4689 227.745 38.6441 226.162 40.339C224.579 41.9774 222.148 43.1921 218.87 43.9831C215.591 44.7175 211.408 45.0847 206.32 45.0847ZM207.083 35.9322C208.157 35.9322 208.977 35.565 209.542 34.8305C210.107 34.096 210.39 33.1073 210.39 31.8644C210.39 30.565 210.107 29.5763 209.542 28.8983C208.977 28.1638 208.157 27.7966 207.083 27.7966C206.009 27.7966 205.189 28.1638 204.624 28.8983C204.059 29.5763 203.776 30.565 203.776 31.8644C203.776 33.1073 204.059 34.096 204.624 34.8305C205.189 35.565 206.009 35.9322 207.083 35.9322ZM234.218 34.9153C232.069 34.9153 229.921 34.774 227.773 34.4915C225.625 34.209 223.477 34.0678 221.329 34.0678L208.101 18.6441C212.453 18.6441 216.806 18.8136 221.159 19.1525C225.512 19.4915 229.865 19.661 234.218 19.661V34.9153Z" fill="white"/>
<path d="M265.085 62.0339V41.1017C265.085 39.9718 264.916 39.0395 264.576 38.3051C264.294 37.5141 263.842 36.9209 263.22 36.5254C262.654 36.1299 261.92 35.9322 261.015 35.9322C260.111 35.9322 259.263 36.1582 258.471 36.6102C257.736 37.0621 257.143 37.7119 256.69 38.5593C256.295 39.3503 256.097 40.3672 256.097 41.6102L254.401 28.6441C255.192 26.4407 256.21 24.6045 257.454 23.1356C258.697 21.6667 260.195 20.565 261.948 19.8305C263.7 19.0395 265.707 18.6441 267.968 18.6441C270.738 18.6441 273.282 19.2655 275.6 20.5085C277.974 21.6949 279.868 23.6723 281.281 26.4407C282.694 29.209 283.401 32.9379 283.401 37.6271V62.0339H265.085ZM237.781 62.0339V19.661H256.097V62.0339H237.781Z" fill="white"/>
<path d="M305.342 63.0508C302.063 63.0508 298.926 62.7401 295.93 62.1186C292.934 61.5537 289.937 60.7345 286.941 59.661V44.9153C290.446 47.0056 293.951 48.7006 297.456 50C301.017 51.2994 303.957 51.9492 306.275 51.9492C307.179 51.9492 307.886 51.8362 308.395 51.6102C308.903 51.3842 309.158 51.0734 309.158 50.678C309.158 50.0565 308.621 49.5763 307.547 49.2373C306.473 48.8983 305.088 48.5593 303.392 48.2203C301.696 47.8814 299.915 47.4576 298.05 46.9492C296.184 46.3842 294.403 45.6215 292.707 44.661C291.012 43.7006 289.627 42.4011 288.552 40.7627C287.478 39.0678 286.941 36.9492 286.941 34.4068C286.941 31.2429 287.818 28.4746 289.57 26.1017C291.379 23.7288 294.008 21.8927 297.456 20.5932C300.904 19.2938 305.172 18.6441 310.26 18.6441C314.217 18.6441 317.553 19.0395 320.266 19.8305C322.979 20.6215 325.043 21.7514 326.456 23.2203C327.926 24.6328 328.661 26.3842 328.661 28.4746C328.661 30.339 328.095 31.8362 326.965 32.9661C325.834 34.0395 324.308 34.5763 322.386 34.5763C321.029 34.5763 319.786 34.3503 318.655 33.8983C317.524 33.3898 316.45 32.8249 315.433 32.2034C314.415 31.5254 313.398 30.9605 312.38 30.5085C311.362 30 310.317 29.7458 309.243 29.7458C308.508 29.7458 307.914 29.887 307.462 30.1695C307.01 30.452 306.784 30.8192 306.784 31.2712C306.784 32.0056 307.321 32.5989 308.395 33.0508C309.469 33.5028 310.854 33.9266 312.55 34.322C314.246 34.661 316.026 35.113 317.892 35.678C319.757 36.2429 321.538 37.0056 323.234 37.9661C324.93 38.9266 326.315 40.1977 327.389 41.7797C328.463 43.3616 329 45.3955 329 47.8814C329 50.9887 328.039 53.7006 326.117 56.0169C324.251 58.2768 321.538 60.0282 317.977 61.2712C314.472 62.4576 310.26 63.0508 305.342 63.0508Z" fill="white"/>
<path d="M0 127.164L14.5447 89.6803C15.8821 86.2432 17.6256 83.5956 19.775 81.7377C21.9245 79.8798 24.5994 78.9508 27.7997 78.9508C30.9045 78.9508 33.5316 79.8798 35.6811 81.7377C37.8783 83.5492 39.6456 86.1967 40.9831 89.6803L55.5994 127.164H37.2573L26.2951 94.6271H28.8744L18.1271 127.164H0ZM13.7566 122.566V108.631H42.5593V122.566H13.7566Z" fill="white"/>
<path d="M57.062 127.164V92.3279H72.5382V127.164H57.062ZM72.5382 114.971L71.8217 99.7131C72.3471 97.3907 73.3502 95.4399 74.8309 93.8607C76.3117 92.2814 78.2223 91.4918 80.5628 91.4918C81.9003 91.4918 83.1661 91.7937 84.3602 92.3975C85.6021 93.0014 86.6052 93.9768 87.3694 95.3238C88.1815 96.6243 88.5875 98.3429 88.5875 100.48C88.5875 103.452 87.8471 105.635 86.3664 107.029C84.8856 108.376 83.1661 109.049 81.2077 109.049C80.0135 109.049 79.0104 108.887 78.1984 108.561C77.4342 108.19 76.646 108.004 75.834 108.004C74.7832 108.004 73.9711 108.538 73.3979 109.607C72.8248 110.675 72.5382 112.463 72.5382 114.971Z" fill="white"/>
<path d="M119.133 126.467C117.844 126.932 116.411 127.303 114.834 127.582C113.258 127.861 111.682 128 110.106 128C105.568 128 102.153 126.769 99.8598 124.307C97.6148 121.846 96.4923 118.617 96.4923 114.623V105.566H96.4207C94.7967 105.566 93.292 105.031 91.9068 103.963C90.5694 102.895 89.9007 101.246 89.9007 99.0164C89.9007 97.2514 90.4022 95.7883 91.4053 94.6271C92.4084 93.4194 93.8652 92.444 95.7759 91.7008L111.968 85.2213V92.3279H120.566V105.566H111.968V111.697C111.968 112.997 112.327 113.903 113.043 114.414C113.76 114.878 114.643 115.111 115.694 115.111C116.267 115.111 116.841 115.064 117.414 114.971C117.987 114.878 118.56 114.762 119.133 114.623V126.467Z" fill="white"/>
<path d="M135.353 127.164L143.808 98.5984C144.572 96.1366 145.623 94.3484 146.96 93.2336C148.346 92.0724 150.161 91.4918 152.406 91.4918C154.651 91.4918 156.418 92.0724 157.708 93.2336C159.045 94.3484 160.096 96.1366 160.86 98.5984L169.315 127.164H156.418L151.331 108.98H153.337L148.25 127.164H135.353ZM131.628 127.164L121.883 92.3279H138.649L142.948 127.164H131.628ZM161.72 127.164L166.019 92.3279H182.785L173.041 127.164H161.72Z" fill="white"/>
<path d="M181.857 109.816C181.857 106.146 182.669 102.941 184.293 100.201C185.917 97.4604 188.258 95.3238 191.315 93.791C194.42 92.2582 198.169 91.4918 202.564 91.4918C206.767 91.4918 210.397 92.235 213.454 93.7213C216.559 95.1612 218.971 97.2514 220.691 99.9918C222.41 102.686 223.27 105.937 223.27 109.746C223.27 113.369 222.458 116.551 220.834 119.291C219.258 122.031 216.917 124.168 213.813 125.701C210.756 127.234 207.03 128 202.635 128C198.48 128 194.826 127.28 191.673 125.84C188.568 124.354 186.156 122.264 184.437 119.57C182.717 116.829 181.857 113.578 181.857 109.816ZM198.193 109.816C198.193 110.93 198.36 111.883 198.695 112.672C199.077 113.462 199.602 114.066 200.271 114.484C200.94 114.855 201.68 115.041 202.492 115.041C203.352 115.041 204.116 114.832 204.785 114.414C205.454 113.996 205.979 113.392 206.361 112.602C206.743 111.813 206.934 110.837 206.934 109.676C206.934 108.515 206.743 107.563 206.361 106.82C206.027 106.03 205.525 105.449 204.857 105.078C204.236 104.66 203.495 104.451 202.635 104.451C201.776 104.451 201.011 104.66 200.343 105.078C199.674 105.496 199.149 106.1 198.766 106.889C198.384 107.679 198.193 108.654 198.193 109.816Z" fill="white"/>
<path d="M225.758 127.164V92.3279H241.234V127.164H225.758ZM241.234 114.971L240.518 99.7131C241.043 97.3907 242.047 95.4399 243.527 93.8607C245.008 92.2814 246.919 91.4918 249.259 91.4918C250.597 91.4918 251.862 91.7937 253.057 92.3975C254.298 93.0014 255.302 93.9768 256.066 95.3238C256.878 96.6243 257.284 98.3429 257.284 100.48C257.284 103.452 256.543 105.635 255.063 107.029C253.582 108.376 251.862 109.049 249.904 109.049C248.71 109.049 247.707 108.887 246.895 108.561C246.13 108.19 245.342 108.004 244.53 108.004C243.479 108.004 242.667 108.538 242.094 109.607C241.521 110.675 241.234 112.463 241.234 114.971Z" fill="white"/>
<path d="M259.414 127.164V77H274.89V127.164H259.414ZM270.018 109.189L282.556 95.6025C283.894 94.1626 285.255 93.1175 286.64 92.4672C288.025 91.8169 289.411 91.4918 290.796 91.4918C292.85 91.4918 294.522 92.1421 295.811 93.4426C297.149 94.6967 297.817 96.3224 297.817 98.3197C297.817 99.7131 297.459 101.014 296.743 102.221C296.074 103.429 295.047 104.637 293.662 105.844L284.921 113.369L283.703 102.291C285.9 105.357 287.691 107.772 289.076 109.537C290.461 111.302 291.632 112.602 292.587 113.439C293.542 114.228 294.45 114.716 295.31 114.902C296.169 115.041 297.149 115.041 298.247 114.902V126.746C297.292 127.21 296.241 127.536 295.095 127.721C293.948 127.907 292.826 128 291.727 128C289.912 128 288.169 127.721 286.497 127.164C284.873 126.607 283.225 125.631 281.553 124.238C279.881 122.844 278.114 120.94 276.251 118.525C274.388 116.063 272.31 112.951 270.018 109.189Z" fill="white"/>
<path d="M316.01 128C313.24 128 310.589 127.745 308.057 127.234C305.525 126.769 302.994 126.096 300.462 125.213V113.09C303.424 114.809 306.385 116.202 309.347 117.27C312.356 118.339 314.84 118.873 316.798 118.873C317.562 118.873 318.159 118.78 318.589 118.594C319.019 118.408 319.234 118.153 319.234 117.828C319.234 117.317 318.78 116.922 317.873 116.643C316.965 116.365 315.795 116.086 314.362 115.807C312.929 115.529 311.424 115.18 309.848 114.762C308.272 114.298 306.767 113.671 305.334 112.881C303.901 112.092 302.731 111.023 301.824 109.676C300.916 108.283 300.462 106.541 300.462 104.451C300.462 101.85 301.203 99.5738 302.683 97.623C304.212 95.6721 306.433 94.1626 309.347 93.0943C312.26 92.026 315.867 91.4918 320.166 91.4918C323.509 91.4918 326.327 91.8169 328.62 92.4672C330.913 93.1175 332.656 94.0464 333.851 95.2541C335.092 96.4153 335.713 97.8552 335.713 99.5738C335.713 101.107 335.236 102.337 334.28 103.266C333.325 104.149 332.035 104.59 330.411 104.59C329.265 104.59 328.214 104.404 327.259 104.033C326.304 103.615 325.396 103.15 324.536 102.639C323.676 102.082 322.817 101.617 321.957 101.246C321.097 100.828 320.213 100.619 319.306 100.619C318.685 100.619 318.183 100.735 317.801 100.967C317.419 101.199 317.228 101.501 317.228 101.873C317.228 102.477 317.682 102.964 318.589 103.336C319.497 103.708 320.667 104.056 322.1 104.381C323.533 104.66 325.038 105.031 326.614 105.496C328.19 105.96 329.695 106.587 331.128 107.377C332.561 108.167 333.731 109.212 334.639 110.512C335.546 111.813 336 113.485 336 115.529C336 118.083 335.188 120.313 333.564 122.217C331.988 124.075 329.695 125.515 326.686 126.537C323.724 127.512 320.166 128 316.01 128Z" fill="white"/>
<path d="M168.263 115.864C164.807 115.864 161.703 115.192 158.951 113.848C156.263 112.504 154.119 110.616 152.519 108.184C150.919 105.752 150.119 102.904 150.119 99.64C150.119 99.256 150.119 98.904 150.119 98.584C150.119 98.2 150.151 97.816 150.215 97.432C147.143 97.112 144.327 96.472 141.767 95.512C139.271 94.552 137.287 93.24 135.815 91.576C134.343 89.848 133.607 87.736 133.607 85.24C133.607 82.936 134.311 80.76 135.719 78.712C137.127 76.6 138.887 74.648 140.999 72.856C143.175 71 145.447 69.4 147.815 68.056C152.231 65.368 156.551 63.352 160.775 62.008C159.943 60.984 159.271 59.8 158.759 58.456C158.311 57.048 158.087 55.704 158.087 54.424C158.087 52.12 158.919 50.072 160.583 48.28C162.311 46.424 164.519 44.856 167.207 43.576C169.895 42.296 172.743 41.304 175.751 40.6C178.759 39.896 181.543 39.544 184.103 39.544C190.887 39.544 194.279 41.624 194.279 45.784C194.279 47.704 193.543 49.368 192.071 50.776C190.599 52.184 188.967 52.888 187.175 52.888C185.447 52.888 184.583 52.44 184.583 51.544C184.583 50.904 184.999 50.584 185.831 50.584C186.087 50.584 186.407 50.648 186.791 50.776C186.919 50.84 187.143 50.872 187.463 50.872C188.295 50.872 189.095 50.392 189.863 49.432C190.887 48.216 191.399 47.064 191.399 45.976C191.399 44.248 190.407 43 188.423 42.232C187.143 41.784 185.511 41.56 183.527 41.56C180.967 41.56 178.407 42.008 175.847 42.904C173.351 43.736 171.047 44.92 168.935 46.456C166.887 47.928 165.223 49.624 163.943 51.544C162.663 53.464 162.023 55.512 162.023 57.688C162.023 59.224 162.407 60.44 163.175 61.336C165.607 60.632 167.751 60.28 169.607 60.28C173.319 60.28 175.175 61.016 175.175 62.488C175.175 63.32 174.631 64.056 173.543 64.696C172.455 65.272 171.271 65.56 169.991 65.56C166.791 65.56 164.071 64.728 161.831 63.064C160.039 63.576 158.151 64.376 156.167 65.464C154.183 66.552 152.103 67.896 149.927 69.496C146.983 71.672 144.423 74.104 142.247 76.792C140.071 79.416 138.983 82.232 138.983 85.24C138.983 90.936 142.855 94.104 150.599 94.744C151.303 90.2 152.807 86.104 155.111 82.456C157.479 78.808 160.583 75.8 164.423 73.432C166.599 72.088 169.063 71.032 171.815 70.264C174.631 69.432 177.447 68.792 180.263 68.344C183.143 67.832 185.767 67.384 188.135 67C191.271 66.488 193.799 65.912 195.719 65.272C197.639 64.632 199.079 63.96 200.039 63.256C200.743 62.744 201.255 62.168 201.575 61.528C201.959 60.888 202.151 60.312 202.151 59.8C202.151 59.416 202.087 59.064 201.959 58.744C201.831 58.36 201.991 58.168 202.439 58.168C202.887 58.168 203.239 58.456 203.495 59.032C203.751 59.608 203.879 60.152 203.879 60.664C203.879 61.944 203.239 63.32 201.959 64.792C200.551 66.2 198.855 67.256 196.871 67.96C194.887 68.664 192.807 69.208 190.631 69.592C188.455 69.976 186.311 70.424 184.199 70.936C185.415 72.088 186.023 73.816 186.023 76.12C186.023 80.856 183.335 85.4 177.959 89.752C174.247 92.696 170.279 94.744 166.055 95.896C161.895 96.984 157.415 97.528 152.615 97.528C152.551 97.912 152.487 98.328 152.423 98.776C152.423 99.16 152.423 99.544 152.423 99.928C152.423 104.216 153.863 107.704 156.743 110.392C159.687 113.08 163.527 114.424 168.263 114.424C169.863 114.424 171.239 113.88 172.391 112.792C173.543 111.768 174.119 110.584 174.119 109.24C174.119 108.792 174.023 108.344 173.831 107.896C173.767 107.768 173.735 107.608 173.735 107.416C173.735 107.032 173.991 106.84 174.503 106.84C175.207 106.84 175.559 107.672 175.559 109.336C175.559 111.064 174.823 112.568 173.351 113.848C171.879 115.192 170.183 115.864 168.263 115.864ZM169.511 64.024C171.111 64.024 172.039 63.64 172.295 62.872C172.359 62.232 171.431 61.912 169.511 61.912C167.975 61.912 166.247 62.104 164.327 62.488C165.927 63.512 167.655 64.024 169.511 64.024ZM152.903 94.84C157.063 94.84 161.319 94.168 165.671 92.824C170.087 91.48 173.799 89.432 176.807 86.68C180.839 83.032 182.855 79.288 182.855 75.448C182.855 72.632 181.639 71.224 179.207 71.224C178.503 71.224 176.935 71.512 174.503 72.088C162.151 76.696 154.951 84.28 152.903 94.84Z" fill="url(#paint0_linear_508_269)"/>
<defs>
<linearGradient id="paint0_linear_508_269" x1="129" y1="84" x2="208" y2="84" gradientUnits="userSpaceOnUse">
<stop stop-color="#9E2FFF"/>
<stop offset="0.365385" stop-color="#CD51C5"/>
<stop offset="1" stop-color="#FF798B"/>
</linearGradient>
</defs>
</svg>
