<svg width="45" height="35" viewBox="0 0 45 35" fill="none" xmlns="http://www.w3.org/2000/svg">
<path fill-rule="evenodd" clip-rule="evenodd" d="M27.4126 0.00922015C51.1448 3.34482 47.8402 32.3488 29.0328 34.3569C28.007 34.4662 27.2457 33.2249 28.0796 32.6039C40.1602 23.6134 40.2119 10.5505 26.7808 1.47016C26.0594 0.982781 26.5561 -0.11141 27.4126 0.00922015ZM15.0035 3.56293C17.0346 0.708011 19.803 -0.344755 22.7261 0.0971108C23.5427 0.220118 23.9279 0.642046 23.9283 1.4809C23.9283 6.26478 19.0764 13.6808 24.5054 32.7231C24.6252 33.1433 24.4741 33.7472 24.062 33.8735C23.0743 34.1762 20.9133 34.4959 19.4683 34.3041C18.3697 34.1584 17.4341 33.4214 16.9888 32.3901C14.6313 26.9318 16.0581 19.7419 16.0581 10.4672C16.058 10.0654 15.8189 10.191 15.729 10.3715C13.6882 13.9124 11.9184 16.6048 10.5738 17.8403C10.3608 18.0289 10.5489 18.3905 10.8306 18.3735C12.3919 18.2804 14.1253 18.4721 14.6148 19.1469C14.8851 19.5201 14.6388 20.053 14.188 20.1245C11.046 20.6191 8.10603 21.5768 5.38822 23.2495C4.38199 23.8687 3.46812 24.7456 2.3931 25.2338C2.00288 25.4111 1.54573 25.3306 1.22513 25.0424C0.252212 24.1664 -0.124603 22.8393 0.0356811 21.4291C0.0908498 20.9452 0.39789 20.5264 0.827673 20.312C10.0716 15.6997 8.70967 12.1422 15.0035 3.56293ZM29.0337 10.1215C29.1017 9.69649 29.8311 9.69649 29.8999 10.1215C30.5484 14.1545 31.441 15.5275 33.9624 16.5961C34.5316 16.8374 34.5316 17.5248 33.9624 17.7661C31.4408 18.8347 30.5484 20.2076 29.8999 24.2416C29.8315 24.6662 29.1028 24.6663 29.0337 24.2416C28.3852 20.2082 27.4931 18.8347 24.9712 17.7661C24.4024 17.5247 24.4024 16.8374 24.9712 16.5961C27.493 15.5275 28.3852 14.1554 29.0337 10.1215Z" fill="white"/>
</svg>
