<svg width="67" height="67" viewBox="0 0 67 67" fill="none" xmlns="http://www.w3.org/2000/svg">
<path fill-rule="evenodd" clip-rule="evenodd" d="M5.20123 33.2876C5.20123 32.46 5.53002 31.6662 6.11527 31.0809C6.70052 30.4957 7.49429 30.1669 8.32196 30.1669L50.7223 30.1669L39.4045 18.849C38.8532 18.2575 38.5531 17.475 38.5674 16.6665C38.5817 15.858 38.9092 15.0866 39.4809 14.5149C40.0527 13.9431 40.8241 13.6156 41.6326 13.6013C42.4411 13.5871 43.2235 13.8872 43.8151 14.4384L60.459 31.0823C61.0434 31.6675 61.3717 32.4606 61.3717 33.2876C61.3717 34.1146 61.0434 34.9078 60.459 35.493L43.8151 52.1369C43.2235 52.6881 42.4411 52.9882 41.6326 52.974C40.8241 52.9597 40.0527 52.6322 39.4809 52.0604C38.9092 51.4886 38.5817 50.7172 38.5674 49.9088C38.5531 49.1003 38.8532 48.3178 39.4045 47.7262L50.7223 36.4084L8.32196 36.4084C7.49429 36.4084 6.70052 36.0796 6.11527 35.4943C5.53002 34.9091 5.20123 34.1153 5.20123 33.2876Z" fill="white"/>
</svg>
