<svg width="18" height="18" viewBox="0 0 18 18" fill="none" xmlns="http://www.w3.org/2000/svg">
<path d="M8.64223 3.4095C8.69875 3.28389 8.71995 3.14524 8.70355 3.00847C8.68715 2.87171 8.63377 2.742 8.54915 2.63331C8.46453 2.52463 8.35187 2.44107 8.2233 2.39163C8.09473 2.3422 7.95512 2.32875 7.81948 2.35275C6.60456 2.56885 5.47212 3.11385 4.54527 3.92852C3.61842 4.74318 2.93262 5.79633 2.56243 6.97349C2.19224 8.15064 2.15183 9.40675 2.44558 10.6053C2.73933 11.8038 3.356 12.8989 4.22857 13.7714C5.10113 14.644 6.19619 15.2607 7.39471 15.5544C8.59323 15.8482 9.84934 15.8077 11.0265 15.4375C12.2036 15.0674 13.2568 14.3816 14.0715 13.4547C14.8861 12.5279 15.4311 11.3954 15.6472 10.1805C15.6712 10.0449 15.6578 9.90525 15.6083 9.77668C15.5589 9.64811 15.4754 9.53545 15.3667 9.45083C15.258 9.36621 15.1283 9.31283 14.9915 9.29643C14.8547 9.28003 14.7161 9.30123 14.5905 9.35775C13.7581 9.73144 12.8317 9.84324 11.9343 9.67834C11.0369 9.51344 10.2108 9.07962 9.56556 8.43442C8.92036 7.78922 8.48654 6.96313 8.32164 6.0657C8.15674 5.16827 8.26854 4.24192 8.64223 3.4095ZM13.8262 5.787L13.7782 5.892C13.5736 6.31479 13.2515 6.66969 12.8505 6.91425L12.7755 6.9585C12.7677 6.96296 12.7612 6.96941 12.7567 6.97718C12.7522 6.98495 12.7498 6.99377 12.7498 7.00275C12.7498 7.01173 12.7522 7.02055 12.7567 7.02832C12.7612 7.03609 12.7677 7.04253 12.7755 7.047L12.8505 7.0905C13.2516 7.33526 13.5737 7.69043 13.7782 8.1135L13.8262 8.2185C13.8304 8.22796 13.8372 8.23601 13.8459 8.24166C13.8545 8.24732 13.8646 8.25033 13.875 8.25033C13.8853 8.25033 13.8954 8.24732 13.9041 8.24166C13.9127 8.23601 13.9196 8.22796 13.9237 8.2185L13.9717 8.1135C14.1762 7.69043 14.4984 7.33526 14.8995 7.0905L14.9745 7.047C14.9823 7.04253 14.9887 7.03609 14.9933 7.02832C14.9978 7.02055 15.0001 7.01173 15.0001 7.00275C15.0001 6.99377 14.9978 6.98495 14.9933 6.97718C14.9887 6.96941 14.9823 6.96296 14.9745 6.9585L14.8995 6.91425C14.4986 6.66938 14.1768 6.31422 13.9725 5.89125L13.9245 5.78625C13.9203 5.77679 13.9135 5.76874 13.9048 5.76308C13.8962 5.75743 13.8861 5.75442 13.8757 5.75442C13.8654 5.75442 13.8553 5.75743 13.8466 5.76308C13.838 5.76874 13.8311 5.77679 13.827 5.78625L13.8262 5.787ZM11.7022 2.14275C11.6722 2.07525 11.5777 2.07525 11.5477 2.14275L11.4712 2.30925C11.1452 2.98274 10.6323 3.54823 9.99373 3.93825L9.87598 4.00725C9.86332 4.01425 9.85277 4.02452 9.84542 4.03699C9.83807 4.04945 9.8342 4.06366 9.8342 4.07812C9.8342 4.09259 9.83807 4.1068 9.84542 4.11926C9.85277 4.13173 9.86332 4.142 9.87598 4.149L9.99448 4.218C10.686 4.64066 11.2286 5.26823 11.547 6.0135C11.5536 6.02858 11.5645 6.04142 11.5782 6.05043C11.592 6.05944 11.6081 6.06424 11.6246 6.06424C11.6411 6.06424 11.6572 6.05944 11.671 6.05043C11.6848 6.04142 11.6956 6.02858 11.7022 6.0135L11.7787 5.847C12.1048 5.17351 12.6177 4.60802 13.2562 4.218L13.3747 4.149C13.3874 4.142 13.3979 4.13173 13.4053 4.11926C13.4126 4.1068 13.4165 4.09259 13.4165 4.07812C13.4165 4.06366 13.4126 4.04945 13.4053 4.03699C13.3979 4.02452 13.3874 4.01425 13.3747 4.00725L13.2562 3.93825C12.6177 3.54823 12.1048 2.98274 11.7787 2.30925L11.7022 2.14275Z" fill="#FF798B"/>
</svg>
