<svg width="56" height="39" viewBox="0 0 56 39" fill="none" xmlns="http://www.w3.org/2000/svg">
<path d="M25.3438 0C22.8691 3.58395 21.2049 6.91241 20.3516 9.98438C19.8418 11.8195 19.5318 13.6396 19.418 15.4443C20.5342 15.9461 21.5286 16.6009 22.4004 17.4082C24.7895 19.5415 25.9844 22.4857 25.9844 26.2402C25.9843 29.9947 24.7896 32.939 22.4004 35.0723C20.0964 37.1203 16.9384 38.1436 12.9277 38.1436C9.00261 38.1435 5.84531 37.1201 3.45605 35.0723C1.29607 33.0723 0.148686 30.3595 0.0136719 26.9346L0 26.2402L0.0107422 25.4531C0.115789 21.5082 1.00853 17.3755 2.68848 13.0557C4.56579 8.36255 7.38126 4.0105 11.1357 0H25.3438ZM54.7842 0C52.3095 3.584 50.6453 6.91237 49.792 9.98438C49.2822 11.8196 48.9713 13.6396 48.8574 15.4443C49.9738 15.9462 50.9679 16.6008 51.8398 17.4082C54.2292 19.5415 55.4238 22.4856 55.4238 26.2402C55.4238 29.9948 54.2291 32.939 51.8398 35.0723C49.5359 37.1201 46.3786 38.1435 42.3682 38.1436C38.4431 38.1436 35.2858 37.12 32.8965 35.0723C30.7365 33.0723 29.5881 30.3595 29.4531 26.9346L29.4404 26.2402L29.4502 25.4531C29.5552 21.5082 30.448 17.3755 32.1279 13.0557C34.0053 8.36243 36.8216 4.01059 40.5762 0H54.7842Z" fill="url(#paint0_linear_664_404)"/>
<defs>
<linearGradient id="paint0_linear_664_404" x1="0" y1="19.0718" x2="55.4238" y2="19.0718" gradientUnits="userSpaceOnUse">
<stop stop-color="#3272CB"/>
<stop offset="0.269231" stop-color="#569BB9"/>
<stop offset="1" stop-color="#7CC8A5"/>
</linearGradient>
</defs>
</svg>
