<svg width="28" height="27" viewBox="0 0 28 27" fill="none" xmlns="http://www.w3.org/2000/svg">
<path d="M1.375 26.125C0.985421 26.125 0.659088 25.993 0.396005 25.729C0.132922 25.465 0.000921408 25.1387 4.74137e-06 24.75C-0.000911925 24.3613 0.131088 24.035 0.396005 23.771C0.660922 23.507 0.987255 23.375 1.375 23.375H12.375V8.00938C11.7792 7.80313 11.2635 7.48229 10.8281 7.04688C10.3927 6.61146 10.0719 6.09584 9.86563 5.5H5.5L9.28125 14.3688C9.39584 14.6208 9.46459 14.8789 9.4875 15.1429C9.51042 15.4069 9.49896 15.6759 9.45313 15.95C9.24688 17.0042 8.67992 17.8177 7.75225 18.3906C6.82459 18.9635 5.84467 19.25 4.8125 19.25C3.78034 19.25 2.80088 18.9635 1.87413 18.3906C0.94738 17.8177 0.379963 17.0042 0.17188 15.95C0.126046 15.675 0.114588 15.406 0.137505 15.1429C0.160421 14.8798 0.229171 14.6218 0.343755 14.3688L4.125 5.5H2.75C2.36042 5.5 2.03409 5.36846 1.771 5.10538C1.50792 4.84229 1.37592 4.5155 1.375 4.125C1.37409 3.7345 1.50609 3.40817 1.771 3.146C2.03592 2.88384 2.36225 2.75184 2.75 2.75H9.86563C10.1406 1.94792 10.6333 1.28929 11.3438 0.774127C12.0542 0.258961 12.8563 0.0009191 13.75 2.43363e-06C14.6438 -0.000914233 15.4458 0.257127 16.1563 0.774127C16.8667 1.29113 17.3594 1.94975 17.6344 2.75H24.75C25.1396 2.75 25.4664 2.882 25.7304 3.146C25.9944 3.41 26.1259 3.73634 26.125 4.125C26.1241 4.51367 25.9921 4.84046 25.729 5.10538C25.4659 5.37029 25.1396 5.50184 24.75 5.5H23.375L27.1563 14.3688C27.2708 14.6208 27.3396 14.8789 27.3625 15.1429C27.3854 15.4069 27.374 15.6759 27.3281 15.95C27.1219 17.0042 26.5549 17.8177 25.6273 18.3906C24.6996 18.9635 23.7197 19.25 22.6875 19.25C21.6553 19.25 20.6759 18.9635 19.7491 18.3906C18.8224 17.8177 18.255 17.0042 18.0469 15.95C18.001 15.675 17.9896 15.406 18.0125 15.1429C18.0354 14.8798 18.1042 14.6218 18.2188 14.3688L22 5.5H17.6344C17.4281 6.09584 17.1073 6.61146 16.6719 7.04688C16.2365 7.48229 15.7208 7.80313 15.125 8.00938V23.375H26.125C26.5146 23.375 26.8414 23.507 27.1054 23.771C27.3694 24.035 27.5009 24.3613 27.5 24.75C27.4991 25.1387 27.3671 25.4655 27.104 25.7304C26.8409 25.9953 26.5146 26.1268 26.125 26.125H1.375ZM20.1094 15.125H25.2656L22.6875 9.14375L20.1094 15.125ZM2.23438 15.125H7.39063L4.8125 9.14375L2.23438 15.125ZM13.75 5.5C14.1396 5.5 14.4664 5.368 14.7304 5.104C14.9944 4.84 15.1259 4.51367 15.125 4.125C15.1241 3.73634 14.9921 3.41 14.729 3.146C14.4659 2.882 14.1396 2.75 13.75 2.75C13.3604 2.75 13.0341 2.882 12.771 3.146C12.5079 3.41 12.3759 3.73634 12.375 4.125C12.3741 4.51367 12.5061 4.84046 12.771 5.10538C13.0359 5.37029 13.3623 5.50184 13.75 5.5Z" fill="#71CAEA"/>
</svg>
