<svg width="206" height="257" viewBox="0 0 206 257" fill="none" xmlns="http://www.w3.org/2000/svg">
<path d="M19.2876 5.25722C19.9814 3.15986 18.8436 0.89717 16.7463 0.203365C14.6489 -0.490439 12.3862 0.64737 11.6924 2.74473L15.49 4.00098L19.2876 5.25722ZM205.99 230.501L164.155 210.928L168.121 256.945L205.99 230.501ZM15.49 4.00098L11.6924 2.74473C4.33197 24.9953 -2.5443 59.5982 0.926548 91.1262C4.40424 122.716 18.49 152.251 53.9435 161.862L54.99 158.001L56.0366 154.14C25.0901 145.751 12.1758 120.202 8.87851 90.2508C5.57436 60.2371 12.1481 26.84 19.2876 5.25722L15.49 4.00098ZM54.99 158.001L53.9435 161.862C95.9321 173.244 119.024 165.693 129.212 151.034C134.189 143.873 135.651 135.517 134.982 128.11C134.321 120.8 131.53 113.884 127.319 109.673L124.49 112.501L121.662 115.329C124.2 117.868 126.472 122.827 127.014 128.83C127.548 134.735 126.354 141.129 122.643 146.468C115.456 156.809 97.048 165.258 56.0366 154.14L54.99 158.001ZM124.49 112.501L127.319 109.673C123.199 105.553 116.337 102.392 108.728 100.854C101.025 99.2963 92.0629 99.2956 83.4767 101.998C74.8332 104.718 66.6142 110.172 60.6013 119.385C54.6122 128.561 50.99 141.189 50.99 158.001H54.99H58.99C58.99 142.313 62.3678 131.316 67.3007 123.758C72.2097 116.236 78.8345 111.846 85.8785 109.629C92.9799 107.394 100.549 107.362 107.143 108.695C113.831 110.047 119.032 112.699 121.662 115.329L124.49 112.501ZM54.99 158.001L51.0026 158.318C51.9869 170.703 61.5828 190.395 80.7419 206.95C100.08 223.66 129.347 237.374 170.108 237.592L170.129 233.592L170.151 229.592C131.282 229.385 103.858 216.352 85.9724 200.897C67.9083 185.288 59.7494 167.397 58.9775 157.684L54.99 158.001Z" fill="#569BB9"/>
</svg>
