<svg width="169" height="188" viewBox="0 0 169 188" fill="none" xmlns="http://www.w3.org/2000/svg">
<path d="M168.952 4.61554C169.292 2.43263 167.797 0.387886 165.615 0.04847C163.432 -0.290946 161.387 1.2035 161.048 3.38641L165 4.00098L168.952 4.61554ZM0 169.001L42.4724 187.151L36.9547 141.294L0 169.001ZM165 4.00098L161.048 3.38641C157.359 27.1114 146.635 61.5198 126.322 92.4958C106.032 123.438 76.3554 150.7 34.7833 160.815L35.729 164.702L36.6747 168.589C80.7706 157.859 111.966 128.977 133.012 96.8828C154.036 64.8227 165.114 29.3031 168.952 4.61554L165 4.00098Z" fill="#569BB9"/>
</svg>
