<svg width="34" height="27" viewBox="0 0 34 27" fill="none" xmlns="http://www.w3.org/2000/svg">
<path d="M25.9247 10.1239H17.8497V13.077C17.8497 15.1705 16.1338 16.8739 14.0247 16.8739C11.9157 16.8739 10.1997 15.1705 10.1997 13.077V6.66448L6.75193 8.72112C5.72662 9.32757 5.09975 10.4297 5.09975 11.611V14.1053L0.849747 16.5416C0.0369343 17.0057 -0.244628 18.0393 0.228184 18.8461L4.47818 26.1551C4.94568 26.9619 5.98693 27.2362 6.79975 26.7721L12.2929 23.6239H19.5497C21.4251 23.6239 22.9497 22.1104 22.9497 20.2489H23.7997C24.7401 20.2489 25.4997 19.4948 25.4997 18.5614V15.1864H25.9247C26.6313 15.1864 27.1997 14.6221 27.1997 13.9207V11.3895C27.1997 10.6881 26.6313 10.1239 25.9247 10.1239ZM33.7713 8.15159L29.5213 0.842609C29.0538 0.0357733 28.0126 -0.238445 27.1997 0.225617L21.7066 3.37386H16.2772C15.6397 3.37386 15.0182 3.55316 14.4763 3.88538L12.6966 4.98753C12.1972 5.29339 11.8997 5.83655 11.8997 6.41663V13.077C11.8997 14.2424 12.8507 15.1864 14.0247 15.1864C15.1988 15.1864 16.1497 14.2424 16.1497 13.077V8.43636H25.9247C27.5663 8.43636 28.8997 9.75999 28.8997 11.3895V12.8924L33.1497 10.4561C33.9626 9.98675 34.2388 8.95843 33.7713 8.15159Z" fill="#82EABA"/>
</svg>
