<svg width="28" height="28" viewBox="0 0 28 28" fill="none" xmlns="http://www.w3.org/2000/svg">
<path fill-rule="evenodd" clip-rule="evenodd" d="M11.6814 13.0289C12.301 12.7538 12.8336 12.3144 13.2214 11.7584C13.5863 11.154 13.7661 10.4559 13.7386 9.75048C13.7631 9.10553 13.644 8.46319 13.39 7.86988C13.1825 7.36449 12.8417 6.92494 12.4038 6.59819C11.9451 6.26564 11.4234 6.03974 10.8753 5.93769C10.2279 5.79383 9.56604 5.72534 8.90292 5.73357H2.06398C1.97274 5.73357 1.88524 5.76982 1.82073 5.83433C1.75621 5.89885 1.71997 5.98635 1.71997 6.07758V21.3758C1.71997 21.467 1.75621 21.5545 1.82073 21.619C1.88524 21.6835 1.97274 21.7198 2.06398 21.7198H9.05888C9.72855 21.7198 10.3959 21.6303 11.0427 21.4526C11.661 21.282 12.2438 21.0024 12.7639 20.627C13.2775 20.2499 13.691 19.7526 13.9679 19.1787C14.2815 18.5251 14.4341 17.806 14.4128 17.0814C14.4371 16.1854 14.1983 15.302 13.726 14.5403C13.2357 13.7925 12.4855 13.2532 11.6206 13.0266L11.6814 13.0289ZM5.21742 8.31366C5.15659 8.31366 5.09826 8.33782 5.05525 8.38083C5.01224 8.42384 4.98808 8.48217 4.98808 8.543V12.0978C4.98808 12.2239 5.09128 12.3271 5.21742 12.3271H8.42819C8.96041 12.3271 9.47083 12.1157 9.84716 11.7394C10.2235 11.363 10.4349 10.8526 10.4349 10.3204C10.4349 9.78817 10.2235 9.27775 9.84716 8.90141C9.47083 8.52508 8.96041 8.31366 8.42819 8.31366H5.21742ZM4.98808 14.5632C4.98808 14.4371 5.09128 14.3339 5.21742 14.3339H8.57153C9.21779 14.3339 9.83759 14.5906 10.2946 15.0476C10.7515 15.5045 11.0083 16.1243 11.0083 16.7706C11.0083 17.4169 10.7515 18.0367 10.2946 18.4936C9.83759 18.9506 9.21779 19.2073 8.57153 19.2073H5.21742C5.15659 19.2073 5.09826 19.1832 5.05525 19.1402C5.01224 19.0972 4.98808 19.0388 4.98808 18.978V14.5632Z" fill="white"/>
<path d="M17.7039 6.54736H23.1198C23.2102 6.54736 23.297 6.58297 23.3614 6.64649C23.4258 6.71002 23.4626 6.79635 23.4638 6.88679L23.4787 7.98992C23.4793 8.03548 23.4708 8.0807 23.4538 8.12297C23.4368 8.16524 23.4116 8.20371 23.3796 8.23614C23.3475 8.26857 23.3094 8.29432 23.2674 8.3119C23.2253 8.32947 23.1802 8.33852 23.1347 8.33851H17.7039C17.6126 8.33851 17.5251 8.30227 17.4606 8.23776C17.3961 8.17324 17.3599 8.08574 17.3599 7.9945V6.89137C17.3599 6.80014 17.3961 6.71264 17.4606 6.64812C17.5251 6.58361 17.6126 6.54736 17.7039 6.54736Z" fill="white"/>
<path fill-rule="evenodd" clip-rule="evenodd" d="M20.6086 19.3446C21.1667 19.3612 21.7151 19.1962 22.1715 18.8745C22.4697 18.6761 22.707 18.3929 22.8572 18.058C22.8766 18.0148 22.9077 17.9779 22.9471 17.9516C22.9864 17.9252 23.0324 17.9104 23.0797 17.909H25.2825C25.4316 17.909 25.5417 18.0489 25.497 18.1911C25.1704 19.2679 24.5123 20.2142 23.6164 20.895C22.6733 21.5089 21.5647 21.8191 20.44 21.7837C19.6407 21.7979 18.8468 21.6513 18.1053 21.3525C17.4311 21.0675 16.8307 20.6326 16.3497 20.0808C15.8736 19.5079 15.5137 18.8477 15.2901 18.1372C15.0223 17.3433 14.8924 16.5095 14.906 15.6718C14.8985 14.8458 15.0327 14.0247 15.3028 13.2442C15.5498 12.5303 15.9382 11.8735 16.4449 11.3131C16.9419 10.7732 17.544 10.3404 18.2142 10.0414C18.9347 9.72653 19.7133 9.56637 20.4996 9.57129C21.3371 9.55967 22.1643 9.75671 22.9066 10.1446C23.5855 10.5203 24.1698 11.0458 24.6151 11.6812C25.0635 12.344 25.3903 13.0894 25.5772 13.8795C25.7696 14.7123 25.8383 15.5689 25.7813 16.4217H17.8175C17.7791 17.2338 18.0449 18.0311 18.5628 18.6578C18.8403 18.9146 19.166 19.1084 19.518 19.2265C19.8701 19.3446 20.2416 19.3848 20.6086 19.3446ZM17.8886 14.2177C17.8884 14.233 17.8913 14.2481 17.8971 14.2622C17.9028 14.2764 17.9114 14.2892 17.9222 14.3C17.9329 14.3108 17.9458 14.3193 17.9599 14.325C17.974 14.3308 17.9891 14.3337 18.0044 14.3335H22.6463C22.6615 14.3337 22.6766 14.3308 22.6908 14.325C22.7049 14.3193 22.7177 14.3108 22.7285 14.3C22.7393 14.2892 22.7478 14.2764 22.7536 14.2622C22.7593 14.2481 22.7622 14.233 22.7621 14.2177C22.7621 13.6022 22.5175 13.0118 22.0823 12.5766C21.647 12.1413 21.0567 11.8968 20.4411 11.8968H20.2095C19.594 11.8968 19.0036 12.1413 18.5684 12.5766C18.1331 13.0118 17.8886 13.6022 17.8886 14.2177Z" fill="white"/>
</svg>
