<?xml version="1.0" encoding="UTF-8"?>
<svg id="Layer_2" data-name="Layer 2" xmlns="http://www.w3.org/2000/svg" viewBox="0 0 460.46 151.4">
  <defs>
    <style>
      .cls-1 {
        fill: #ffd6dd;
      }

      .cls-2 {
        fill: #ffa3b0;
      }
    </style>
  </defs>
  <g id="Proof_Content" data-name="Proof Content">
    <g id="foreground">
      <g id="foreground_-_light_pink" data-name="foreground - light pink">
        <path class="cls-1" d="M133.17,57.68c-10.24-5.14-20.81-8.7-31.34-10.76l.5-.8c.71-1.12.37-2.63-.75-3.34l-.19-.12c-1.12-.71-2.63-.37-3.34.75l-1.55,2.46-1.5-3.76c-.49-1.24-1.9-1.85-3.14-1.35l-.21.08c-1.24.49-1.85,1.9-1.35,3.14l.52,1.32c-.95-.09-1.91-.18-2.86-.25-10.27-12.9-23.81-24.1-40.08-32.26C32.26,4.94,15.88.78,0,0v151.4h195.6c.35-36.46-23.08-73.96-62.43-93.72Z"/>
        <path class="cls-1" d="M460.46,6.92c-3.04-.04-6.09.03-9.17.25l.16-1.52c.14-1.32-.83-2.52-2.15-2.66l-.22-.02c-1.32-.14-2.52.83-2.66,2.15l-.26,2.52c-.13.02-.26.03-.4.04l-2.65-2.39c-.99-.89-2.53-.81-3.42.18l-.15.17c-.76.84-.81,2.09-.19,2.99-11.32,1.98-22.69,5.67-33.7,11.2-16.26,8.17-29.81,19.36-40.08,32.26-1.25.09-2.5.21-3.75.34l.58-.92c.71-1.12.37-2.63-.75-3.34l-.19-.12c-1.12-.71-2.63-.37-3.34.75l-1.55,2.46-1.5-3.76c-.49-1.24-1.9-1.85-3.14-1.35l-.21.08c-1.24.49-1.85,1.9-1.35,3.14l1.79,4.5c-10.68,2.05-21.4,5.63-31.79,10.85-36.83,18.49-59.7,52.51-62.2,86.69h202.29V6.92Z"/>
      </g>
      <path id="foreground_-_dark_pink" data-name="foreground - dark pink" class="cls-2" d="M460.46,27.89c-35.31,1.91-66.37,18.89-86.18,44.27-6.36-1.07-12.89-1.63-19.57-1.63-13.09,0-25.67,2.14-37.38,6.08l.3-1.82c.23-1.37-.71-2.68-2.08-2.91-1.37-.23-2.68.71-2.91,2.08l-.56,3.38-1.26-2.04c-.7-1.13-2.2-1.48-3.33-.78l-.19.12c-1.13.7-1.48,2.2-.78,3.33l1.41,2.28c-13.36,5.84-25.35,14.11-35.35,24.22-16.35-7.21-34.75-11.27-54.22-11.27-12.73,0-25,1.73-36.55,4.95-8.36-8.29-18.06-15.31-28.77-20.72l.31-.18c1.21-.7,1.62-2.25.93-3.46-.7-1.21-2.25-1.62-3.46-.93l-1.87,1.08.85-1.35c.71-1.12.37-2.63-.75-3.34l-.19-.12c-1.12-.71-2.63-.37-3.34.75l-1.43,2.26-.92-2.31c-.51-1.29-1.99-1.93-3.29-1.42-1.14.45-1.77,1.65-1.55,2.81-11.84-4.05-24.59-6.26-37.87-6.26-6.67,0-13.21.56-19.57,1.63-13.36-17.12-31.84-30.42-53.29-37.85l1.45-2.29c.71-1.12.37-2.63-.75-3.34l-.19-.12c-1.12-.71-2.63-.37-3.34.75l-1.55,2.46-1.5-3.76c-.49-1.24-1.9-1.85-3.14-1.35l-.21.08c-1.24.49-1.85,1.9-1.35,3.14l.58,1.45c-5.71-1.43-11.59-2.45-17.6-3.04v128.64h460.46V27.89Z"/>
    </g>
  </g>
</svg>