<?xml version="1.0" encoding="UTF-8"?>
<svg id="Layer_2" data-name="Layer 2" xmlns="http://www.w3.org/2000/svg" xmlns:xlink="http://www.w3.org/1999/xlink" viewBox="0 0 156.04 167.08">
  <defs>
    <style>
      .cls-1, .cls-2 {
        fill: #ffe0cc;
      }

      .cls-3, .cls-4 {
        fill: #6b8441;
      }

      .cls-5 {
        clip-path: url(#clippath-17);
      }

      .cls-6, .cls-7 {
        fill: #6e3466;
      }

      .cls-8 {
        clip-path: url(#clippath-15);
      }

      .cls-9 {
        fill: #623c38;
      }

      .cls-10 {
        clip-path: url(#clippath-18);
      }

      .cls-11 {
        clip-path: url(#clippath-4);
      }

      .cls-12, .cls-13, .cls-14, .cls-15, .cls-2, .cls-16, .cls-17, .cls-18, .cls-19, .cls-7, .cls-4, .cls-20, .cls-21, .cls-22, .cls-23, .cls-24, .cls-25, .cls-26, .cls-27 {
        stroke: #000;
      }

      .cls-12, .cls-13, .cls-14, .cls-15, .cls-16, .cls-28, .cls-20, .cls-29, .cls-30, .cls-31, .cls-25 {
        stroke-linejoin: round;
      }

      .cls-12, .cls-13, .cls-14, .cls-32, .cls-33, .cls-17, .cls-19, .cls-28, .cls-20, .cls-34, .cls-29, .cls-30, .cls-35, .cls-22, .cls-36, .cls-37, .cls-31, .cls-38, .cls-39, .cls-40 {
        fill: none;
      }

      .cls-12, .cls-13, .cls-32, .cls-16, .cls-28, .cls-20, .cls-29, .cls-30, .cls-35, .cls-36, .cls-31, .cls-25, .cls-40 {
        stroke-linecap: round;
      }

      .cls-12, .cls-25 {
        stroke-width: 1.53px;
      }

      .cls-13, .cls-41, .cls-2, .cls-16, .cls-17, .cls-4, .cls-28, .cls-30, .cls-21, .cls-31, .cls-24, .cls-27 {
        stroke-width: 2.25px;
      }

      .cls-41, .cls-32, .cls-2, .cls-33, .cls-17, .cls-18, .cls-19, .cls-7, .cls-4, .cls-34, .cls-21, .cls-35, .cls-22, .cls-36, .cls-23, .cls-37, .cls-24, .cls-38, .cls-42, .cls-26, .cls-39, .cls-27, .cls-40 {
        stroke-miterlimit: 10;
      }

      .cls-41, .cls-31, .cls-42 {
        stroke: #69afd7;
      }

      .cls-41, .cls-42, .cls-43 {
        fill: #a5e0ff;
      }

      .cls-14, .cls-15, .cls-20, .cls-22, .cls-26 {
        stroke-width: 1.91px;
      }

      .cls-15, .cls-44 {
        fill: #3e221f;
      }

      .cls-45 {
        clip-path: url(#clippath-9);
      }

      .cls-32 {
        stroke: #f5b1ab;
        stroke-width: 1.64px;
      }

      .cls-46 {
        fill: #fff;
      }

      .cls-47, .cls-16 {
        fill: #4e6624;
      }

      .cls-48, .cls-27 {
        fill: #3f221f;
      }

      .cls-33 {
        stroke: #6e3466;
      }

      .cls-33, .cls-34, .cls-37, .cls-38 {
        stroke-width: 2.17px;
      }

      .cls-49, .cls-25 {
        fill: #934e87;
      }

      .cls-50, .cls-26 {
        fill: #fedcc4;
      }

      .cls-51 {
        clip-path: url(#clippath-1);
      }

      .cls-18, .cls-19, .cls-7, .cls-23 {
        stroke-width: 1.45px;
      }

      .cls-18, .cls-52 {
        fill: #47203f;
      }

      .cls-53, .cls-23 {
        fill: #5a2752;
      }

      .cls-54 {
        clip-path: url(#clippath-5);
      }

      .cls-55 {
        clip-path: url(#clippath-8);
      }

      .cls-28 {
        stroke: #5a742a;
      }

      .cls-56 {
        fill: #79914f;
      }

      .cls-34, .cls-39 {
        stroke: #47203f;
      }

      .cls-57 {
        clip-path: url(#clippath-3);
      }

      .cls-29, .cls-30 {
        stroke: #c9ebff;
      }

      .cls-29, .cls-42 {
        stroke-width: 2.06px;
      }

      .cls-58 {
        fill: #5a742a;
      }

      .cls-59 {
        clip-path: url(#clippath-12);
      }

      .cls-60 {
        clip-path: url(#clippath-14);
      }

      .cls-61 {
        fill: #829b58;
      }

      .cls-21 {
        fill: #f3c3a9;
      }

      .cls-62, .cls-24 {
        fill: #ffe1cd;
      }

      .cls-63 {
        fill: #6b863a;
      }

      .cls-35 {
        stroke-width: .96px;
      }

      .cls-35, .cls-36, .cls-40 {
        stroke: #623c38;
      }

      .cls-36 {
        stroke-width: 1.13px;
      }

      .cls-64 {
        fill: #eec0a6;
      }

      .cls-37 {
        stroke: #2e1521;
      }

      .cls-65 {
        clip-path: url(#clippath-16);
      }

      .cls-66 {
        clip-path: url(#clippath-2);
      }

      .cls-67 {
        fill: #2f1a17;
      }

      .cls-38 {
        stroke: #5a2752;
      }

      .cls-68 {
        clip-path: url(#clippath-13);
      }

      .cls-39 {
        stroke-width: 2.2px;
      }

      .cls-40 {
        stroke-width: .82px;
      }

      .cls-69 {
        clip-path: url(#clippath);
      }
    </style>
    <clipPath id="clippath">
      <path class="cls-18" d="M37.96,76.73c-1.16-1.68,13.56-14.57,17.38-14.44,3.9.13,17.59,10.46,16.6,11.32l3.42,13.19-27.35,3.12-11.47,1.87,1.42-15.07Z"/>
    </clipPath>
    <clipPath id="clippath-1">
      <path class="cls-23" d="M22.82,84.31c-1.31-1.49,9.89-16.33,13.34-16.75,3.53-.43,17.45,7.81,16.69,8.8l5.15,12.54-24.08,7-10.01,3.49-1.09-15.08Z"/>
    </clipPath>
    <clipPath id="clippath-2">
      <path class="cls-23" d="M87.75,84.72c1.31-1.49-9.89-16.33-13.34-16.75-3.53-.43-17.45,7.81-16.69,8.8l-5.15,12.54,24.08,7,10.01,3.49,1.09-15.08Z"/>
    </clipPath>
    <clipPath id="clippath-3">
      <path class="cls-7" d="M30.31,93.11c-1.67-2.43,19.51-21.14,25-20.96,5.62.19,25.31,15.18,23.87,16.43l4.92,19.14-39.34,4.53-16.49,2.72,2.05-21.86Z"/>
    </clipPath>
    <clipPath id="clippath-4">
      <path class="cls-24" d="M25.55,138.92l-4.87,2.47c-.67.39-3.16,2.09-3.96,2.89-1.19,1.19-3.43,5.07.45,7.02,4.24,2.14,7.96-2.22,7.96-2.22l3.73-3.77c.53-.5.73-1.26.51-1.95l-1.04-3.35c-.24-.77-.93-1.3-1.73-1.34h0c-.36-.02-.73.07-1.04.25Z"/>
    </clipPath>
    <clipPath id="clippath-5">
      <ellipse class="cls-26" cx="57.06" cy="104.99" rx="18.14" ry="24.47" transform="translate(-48.04 161.86) rotate(-89.9)"/>
    </clipPath>
    <clipPath id="clippath-8">
      <path class="cls-15" d="M50.41,87.48c-.24-.03-.93.1-.83-.12,1.22-2.86,7.01-7.03,12.35-1.56,2.64,2.7,5.88,1.13,5.88,1.13,0,0-3.7,6.63-11.01,3.47-3.56-1.54-3.51-2.55-6.39-2.93Z"/>
    </clipPath>
    <clipPath id="clippath-9">
      <path class="cls-15" d="M49.53,87.88c.06-.18.03-.47-.13-.54-1.28-.56-5.27-1.48-7.69,2.55-1.47,2.44-5.84,2.16-5.84,2.16,0,0,6.05,3.58,10.89-.48,2.36-1.98,2.44-2.75,2.76-3.68Z"/>
    </clipPath>
    <clipPath id="clippath-12">
      <path class="cls-4" d="M73.51,3.4c-1.25-.06-2.5-.17-3.75-.31-7.32-.86-14.81.51-21.44,3.58-3.35,1.55-6.49,3.53-9.3,5.87s-4.96,5.39-8.11,7.38c-4.93,3.12-10.51,4.46-15.62,7.16-5.63,2.97-12.31,7.73-13.87,14.05-.36,1.48-.46,3.08.17,4.47.65,1.44,2.03,2.49,3.53,3.09,6.08,2.45,13.91,1.29,20.23.43,7.22-.99,14.31-2.7,21.33-4.58,8.14-2.19,16.22-4.61,24.46-6.43,3.8-.84,7.91-1.94,11.81-1.88,4.38.06,8.73-.22,13.12.1,3.87.29,7.74.82,11.61.56,3.65-.25,7.24-1.19,10.9-1.13,4.88.08,9.52,1.94,14.09,3.59s9.63,3.66,14.46,3c1.99-.27,3.78-1.45,5.19-2.82,1.17-1.14,1.86-2.67,2.24-4.22,1.3-5.3-.96-11.24-5.5-14.47-3.53-2.52-8-3.35-12.18-4.65-5.12-1.59-10.39-3.87-14.9-6.72-5.43-3.42-9.79-7.48-16.55-8.18-4.49-.46-9.01.18-13.47.86-6.13.95-12.26,1.57-18.44,1.26Z"/>
    </clipPath>
    <clipPath id="clippath-13">
      <path class="cls-16" d="M25.32,49.15c-.41.1,71.14-8.46,77.7,24.52,7.68,30.42-.77,87.37-.84,87.92-.34,2.17.16,3.61,1.71,4.15,2.92.73,4.85-.46,5.12-3.05.1-9.02.53-18.03,1-27.03.46-8.73.96-17.47,1.17-26.21.22-8.99.29-17.96-.86-26.9-.65-5.07-2.42-9.87-3.51-14.84-2.02-8.33,1.1-10.88,6.56-15.08,5.88-4.53,18.4-7.81,34.59-10.39-7.45.54-15.3-4.7-26.19-6.24-7.77-.62-12.27.05-17.14.94-1.94.34-5.68.18-7.25-.37-4.89-1.31-10.12-1.47-16.31-.91-9.92.78-18.22,2.59-25.29,5.21-17.47,8.37-13.36.64-30.46,8.3Z"/>
    </clipPath>
    <clipPath id="clippath-14">
      <path class="cls-2" d="M117.44,129.98c0,3.18-1.93,5.76-4.3,5.75s-5.02-2.32-4.19-5.4,2.16-6.22,4.21-6.13c2.36.1,4.28,2.59,4.28,5.77Z"/>
    </clipPath>
    <clipPath id="clippath-15">
      <path class="cls-25" d="M95.37,66.83c-2.5-.44-4.38-.1-6.72,1.11s-4.45,3.04-6.06,5.17c-5.55,7.35-5.81,17.4-5.04,26.18.63,7.26-3.62,13.46-9.24,17.67-3.34,2.5-10.97,4.96-14.07,7.74-4.94,4.42-2.75,10.7-2.44,17.14.15,3.05-3.24,6.47-2.38,9.4.43,1.47,4.89,2.51,5.46,3.93.79,2-1.97,4.49.17,5.4,1.16.49,6.15.35,7.56.28s2.95-.21,4.4-.35c5.3-.52,10.74-2.03,15.34-4.77,5.8-3.46,10.56-8.61,13.67-14.6,8.1-15.63,5.28-33.25,1-49.48-1.14-4.33-2.25-8.68-2.85-13.12-.37-2.69-1.96-10.11,1.2-11.7Z"/>
    </clipPath>
    <clipPath id="clippath-16">
      <path class="cls-25" d="M16.26,66.98c2.5-.44,4.38-.1,6.72,1.11s4.45,3.04,6.06,5.17c5.55,7.35,5.81,17.4,5.04,26.18-.63,7.26,3.62,13.46,9.24,17.67,3.34,2.5,13.56,4.54,16.67,7.32,4.94,4.42,6.71,11.1,6.4,17.55-.16,3.37-.85,6.72-1.93,9.91-.53,1.56-1.16,3.1-1.89,4.58-.64,1.29-1.68,3.28-3.06,3.91-.8.36-1.22.43-2.1.44-7.38.12-21.72-1.12-28.11-4.92-5.8-3.46-10.56-8.61-13.67-14.6-8.1-15.63-5.28-33.25-1-49.48,1.14-4.33,2.25-8.68,2.85-13.12.37-2.69,1.96-10.11-1.2-11.7Z"/>
    </clipPath>
    <clipPath id="clippath-17">
      <ellipse class="cls-27" cx="34.39" cy="155.6" rx="8.81" ry="11.7" transform="translate(-119.39 113.84) rotate(-62.34)"/>
    </clipPath>
    <clipPath id="clippath-18">
      <ellipse class="cls-27" cx="78.76" cy="155.96" rx="11.7" ry="8.81" transform="translate(-64.1 55.38) rotate(-28.06)"/>
    </clipPath>
  </defs>
  <g id="Proof_Content" data-name="Proof Content">
    <g>
      <g>
        <g>
          <path class="cls-52" d="M37.96,76.73c-1.16-1.68,13.56-14.57,17.38-14.44,3.9.13,17.59,10.46,16.6,11.32l3.42,13.19-27.35,3.12-11.47,1.87,1.42-15.07Z"/>
          <g class="cls-69">
            <path class="cls-37" d="M54.73,62.21c1.59,9.94,2.17,20.04,1.74,30.1"/>
            <path class="cls-37" d="M53,61.38c-3.4,5.12-5.38,11.09-6.51,17.13s-1.44,12.21-1.76,18.35"/>
            <path class="cls-37" d="M57.25,61.74c7.19,10.28,11.33,22.67,11.77,35.21"/>
          </g>
          <path class="cls-19" d="M37.96,76.73c-1.16-1.68,13.56-14.57,17.38-14.44,3.9.13,17.59,10.46,16.6,11.32l3.42,13.19-27.35,3.12-11.47,1.87,1.42-15.07Z"/>
        </g>
        <g>
          <path class="cls-53" d="M22.82,84.31c-1.31-1.49,9.89-16.33,13.34-16.75,3.53-.43,17.45,7.81,16.69,8.8l5.15,12.54-24.08,7-10.01,3.49-1.09-15.08Z"/>
          <g class="cls-51">
            <path class="cls-34" d="M32.36,104.86c-1.02-6.5-2.04-13.05-1.81-19.63s1.76-13.26,5.48-18.7c6.43,4.84,11.8,11.83,12.13,19.87"/>
          </g>
          <path class="cls-19" d="M22.82,84.31c-1.31-1.49,9.89-16.33,13.34-16.75,3.53-.43,17.45,7.81,16.69,8.8l5.15,12.54-24.08,7-10.01,3.49-1.09-15.08Z"/>
        </g>
        <g>
          <path class="cls-53" d="M87.75,84.72c1.31-1.49-9.89-16.33-13.34-16.75-3.53-.43-17.45,7.81-16.69,8.8l-5.15,12.54,24.08,7,10.01,3.49,1.09-15.08Z"/>
          <g class="cls-66">
            <path class="cls-39" d="M78.68,105.3c1.04-6.5,2.09-13.05,1.86-19.63s-1.81-13.26-5.62-18.7c-6.59,4.84-12.09,11.83-12.44,19.87"/>
          </g>
          <path class="cls-19" d="M87.75,84.72c1.31-1.49-9.89-16.33-13.34-16.75-3.53-.43-17.45,7.81-16.69,8.8l-5.15,12.54,24.08,7,10.01,3.49,1.09-15.08Z"/>
        </g>
        <g>
          <path class="cls-6" d="M30.31,93.11c-1.67-2.43,19.51-21.14,25-20.96,5.62.19,25.31,15.18,23.87,16.43l4.92,19.14-39.34,4.53-16.49,2.72,2.05-21.86Z"/>
          <g class="cls-57">
            <path class="cls-38" d="M55.28,71.51c2.33,14.13,3.29,28.48,2.86,42.79"/>
            <path class="cls-38" d="M50.19,71.88c-8.82,15.23-12.87,33.18-11.46,50.73"/>
            <path class="cls-38" d="M63.64,74.47c8.01,15.38,12.68,32.48,13.6,49.8"/>
          </g>
          <path class="cls-19" d="M30.31,93.11c-1.67-2.43,19.51-21.14,25-20.96,5.62.19,25.31,15.18,23.87,16.43l4.92,19.14-39.34,4.53-16.49,2.72,2.05-21.86Z"/>
        </g>
      </g>
      <g id="Bun">
        <g id="Hand">
          <g>
            <path class="cls-62" d="M25.55,138.92l-4.87,2.47c-.67.39-3.16,2.09-3.96,2.89-1.19,1.19-3.43,5.07.45,7.02,4.24,2.14,7.96-2.22,7.96-2.22l3.73-3.77c.53-.5.73-1.26.51-1.95l-1.04-3.35c-.24-.77-.93-1.3-1.73-1.34h0c-.36-.02-.73.07-1.04.25Z"/>
            <g class="cls-11">
              <path class="cls-64" d="M22.91,139.89c-.07,1.62-.14,3.25-.45,4.85s-.88,3.16-1.85,4.46c-1.14,1.52-2.84,2.62-4.69,3.04,3.81.91,7.79,1.17,11.65.46.77-.14,1.54-.32,2.22-.69,1.57-.86,2.41-2.61,3.04-4.29.82-2.16,1.45-4.58.65-6.75-.48-1.31-1.49-2.42-2.75-3.02s-2.75-.71-4.08-.28c-.68.22-1.32.58-2.02.71-1.23.23-2.57-.32-3.28-1.35-.42.4-.67.98-.66,1.56.84,0,1.8.58,2.22,1.31Z"/>
            </g>
            <path class="cls-17" d="M25.55,138.92l-4.87,2.47c-.67.39-3.16,2.09-3.96,2.89-1.19,1.19-3.43,5.07.45,7.02,4.24,2.14,7.96-2.22,7.96-2.22l3.73-3.77c.53-.5.73-1.26.51-1.95l-1.04-3.35c-.24-.77-.93-1.3-1.73-1.34h0c-.36-.02-.73.07-1.04.25Z"/>
          </g>
          <path class="cls-21" d="M95.95,123.97c3.44.69,6.98.9,10.49.6,1.2-.1,2.52-.23,3.53.39.67.42,1.1,1.13,1.28,1.86s.17,1.5.12,2.26c-.07,1.07-.3,2.28-1.27,2.86-.63.37-1.43.38-2.18.36-2.27-.07-4.53-.26-6.77-.59-1.33-.19-2.7-.45-3.81-1.17-1.05-.69-1.79-1.78-2-2.96s.1-2.44.61-3.61Z"/>
        </g>
        <g id="head_and_daisy" data-name="head and daisy">
          <g id="head">
            <g>
              <ellipse class="cls-50" cx="57.06" cy="104.99" rx="18.14" ry="24.47" transform="translate(-48.04 161.86) rotate(-89.9)"/>
              <g class="cls-54">
                <path class="cls-64" d="M84.87,110.12c-18.67,12.73-38.22,10.97-54.31.53,1.16,3.59,2.3,7.31,3.46,10.9.73,2.25,3.03,2.09,5.35,2.57,6.34,1.31,12.87,1.65,19.31,1.02,6.12-.6,11.39-4.59,17.12-6.83,2.4-.94,4.95-2,6.38-4.15.85-1.27,2.89-2.52,2.68-4.03Z"/>
              </g>
              <ellipse class="cls-22" cx="57.06" cy="104.99" rx="18.14" ry="24.47" transform="translate(-48.04 161.86) rotate(-89.9)"/>
            </g>
            <ellipse cx="49.03" cy="95.94" rx="3.18" ry="2.56" transform="translate(-50.47 137.26) rotate(-85.48)"/>
            <ellipse cx="61.32" cy="95.87" rx="2.66" ry="3.3" transform="translate(-6.17 4.23) rotate(-3.77)"/>
            <g>
              <g>
                <path class="cls-44" d="M50.41,87.48c-.24-.03-.93.1-.83-.12,1.22-2.86,7.01-7.03,12.35-1.56,2.64,2.7,5.88,1.13,5.88,1.13,0,0-3.7,6.63-11.01,3.47-3.56-1.54-3.51-2.55-6.39-2.93Z"/>
                <g class="cls-55">
                  <path class="cls-67" d="M68.5,87.16c.44.63.47,2.14.05,2.79s-1.08,1.04-1.74,1.36c-3.7,1.75-7.89,1.46-11.88.97-.88-.11-1.77-.23-2.59-.59s-1.58-1.02-1.93-1.93c-.19-.49-.26-1.06-.56-1.47s-.97-.56-1.21-.09c1.24-2,3.46-2.11,5.41-1.62,1.69.42,3.27,1.25,4.94,1.77,3.16.97,6.46.21,9.5-1.16Z"/>
                  <circle class="cls-9" cx="54.42" cy="85.45" r=".51"/>
                  <path class="cls-35" d="M55.66,85.05c.63-.17,1.31-.11,1.9.17"/>
                </g>
                <path class="cls-14" d="M50.41,87.48c-.24-.03-.93.1-.83-.12,1.22-2.86,7.01-7.03,12.35-1.56,2.64,2.7,5.88,1.13,5.88,1.13,0,0-3.7,6.63-11.01,3.47-3.56-1.54-3.51-2.55-6.39-2.93Z"/>
              </g>
              <g>
                <path class="cls-44" d="M49.53,87.88c.06-.18.03-.47-.13-.54-1.28-.56-5.27-1.48-7.69,2.55-1.47,2.44-5.84,2.16-5.84,2.16,0,0,6.05,3.58,10.89-.48,2.36-1.98,2.44-2.75,2.76-3.68Z"/>
                <g class="cls-45">
                  <path class="cls-67" d="M36.35,92.53c1.03.31,3.89-.08,5.76-.49,1.31-.28,2.42-.72,3.45-1.57s1.97-1.81,3.04-2.6c-.2.78-.34,1.58-.67,2.32s-.75,1.44-1.34,1.99c-.6.56-1.36.95-2.14,1.2s-1.61.36-2.44.41c-.83.05-1.67.05-2.5-.01-1.19-.09-2.32-.41-3.17-1.25Z"/>
                  <path class="cls-40" d="M44.87,89.13c.21-.17.48-.31.75-.38"/>
                </g>
                <path class="cls-14" d="M49.53,87.88c.06-.18.03-.47-.13-.54-1.28-.56-5.27-1.48-7.69,2.55-1.47,2.44-5.84,2.16-5.84,2.16,0,0,6.05,3.58,10.89-.48,2.36-1.98,2.44-2.75,2.76-3.68Z"/>
              </g>
            </g>
            <path class="cls-20" d="M51.42,100.56s1.48,2.37,3.72.11c0,0,2.59,2.15,3.98-.28"/>
            <path class="cls-32" d="M71.18,100.83c-.85-1.11-2.65-.62-2.67.94.02,2.33,3.13,2.59,4.55,1.12.87-.85,1.06-2.16.73-3.31-.57-2.07-2.58-3.37-4.68-2.87-3.03.64-4.85,4.16-3.73,7.09,1.09,3.37,6.98,5.26,9.96,1.73"/>
            <path class="cls-32" d="M41.04,103.55c.85-1.11,2.65-.61,2.67.95-.03,2.33-3.14,2.57-4.55,1.11-.87-.85-1.05-2.16-.71-3.31.57-2.07,2.6-3.36,4.69-2.86,3.02.65,4.83,4.17,3.7,7.1-1.1,3.37-7,5.24-9.97,1.7"/>
            <ellipse class="cls-46" cx="60.27" cy="94.93" rx=".69" ry=".47" transform="translate(-40.25 145.33) rotate(-84.22)"/>
            <ellipse class="cls-46" cx="48.03" cy="95.14" rx=".69" ry=".47" transform="translate(-53.59 127.26) rotate(-80.76)"/>
          </g>
        </g>
        <g>
          <path class="cls-3" d="M73.51,3.4c-1.25-.06-2.5-.17-3.75-.31-7.32-.86-14.81.51-21.44,3.58-3.35,1.55-6.49,3.53-9.3,5.87s-4.96,5.39-8.11,7.38c-4.93,3.12-10.51,4.46-15.62,7.16-5.63,2.97-12.31,7.73-13.87,14.05-.36,1.48-.46,3.08.17,4.47.65,1.44,2.03,2.49,3.53,3.09,6.08,2.45,13.91,1.29,20.23.43,7.22-.99,14.31-2.7,21.33-4.58,8.14-2.19,16.22-4.61,24.46-6.43,3.8-.84,7.91-1.94,11.81-1.88,4.38.06,8.73-.22,13.12.1,3.87.29,7.74.82,11.61.56,3.65-.25,7.24-1.19,10.9-1.13,4.88.08,9.52,1.94,14.09,3.59s9.63,3.66,14.46,3c1.99-.27,3.78-1.45,5.19-2.82,1.17-1.14,1.86-2.67,2.24-4.22,1.3-5.3-.96-11.24-5.5-14.47-3.53-2.52-8-3.35-12.18-4.65-5.12-1.59-10.39-3.87-14.9-6.72-5.43-3.42-9.79-7.48-16.55-8.18-4.49-.46-9.01.18-13.47.86-6.13.95-12.26,1.57-18.44,1.26Z"/>
          <g class="cls-59">
            <g>
              <path class="cls-61" d="M67.99,10.52c-1.7-1.17-5.06-.86-6.69-.75-3.05.21-6.07.9-8.95,1.92-1.78.63-3.65,1.57-4.41,3.31-.99,2.28.49,5.08,2.7,6.2,5.11,2.6,12.35-1.13,16.17-4.58.73-.66,1.42-1.38,1.86-2.27s.57-1.96.17-2.86c-.18-.4-.47-.72-.84-.97Z"/>
              <path class="cls-61" d="M38.84,21.57c.15.43.43.8.78,1.09.45.37,1.03.62,1.61.71,1.04.16,2.1-.1,3.08-.48,2.27-.88.83-3.21-.59-4.21-2.1-1.49-6-.24-4.89,2.9Z"/>
              <path class="cls-61" d="M98.28,11.54c.3.56.64,1.01.98,1.34.43.42.87.64,1.22.65.63,0,1.06-.57,1.38-1.29.75-1.67-1.22-4.58-2.5-5.68-1.89-1.62-3.3.89-1.09,4.98Z"/>
              <path class="cls-61" d="M105.45,11.56c-.03.43,0,.81.1,1.13.12.41.33.71.59.87.45.28,1.02.16,1.58-.08,1.29-.56,1.19-2.95.76-4.08-.63-1.67-2.78-.95-3.03,2.16Z"/>
              <path class="cls-61" d="M114.47,19.68c-.1.24-.15.46-.16.66,0,.26.06.47.18.61.21.25.56.29.92.27.85-.05,1.24-1.42,1.21-2.14-.05-1.07-1.42-1.1-2.16.6Z"/>
              <path class="cls-61" d="M42.9,37.68c1.47-.29,2.74-.42,3.78-.42,1.33,0,2.26.21,2.68.57.74.65.09,1.7-.96,2.8-2.44,2.55-10.48,3.62-14.1,3.47-5.37-.22-2.03-4.35,8.6-6.43Z"/>
              <path class="cls-61" d="M68.68,29.7c2.14-.46,3.98-.74,5.47-.84,1.91-.14,3.23,0,3.79.36,1,.64.18,2.38-1.64,3.4-4.43,2.49-16.18,5.86-21.17,6.67-7.6,1.23-1.94-6.22,13.55-9.59Z"/>
              <path class="cls-56" d="M129.51,15.5c-.79-.52-1.5-1.09-2.24-1.71-2.11-1.8-7.21-3.55-8.31.35-.4,1.41-.47,3.03.24,4.35,1.05,1.96,3.5,2.73,5.53,3.2,2.32.55,4.74.65,7.12.52,1.04-.06,2.35-.48,2.62-1.61.18-.73-.08-1.51-.53-2.11-.92-1.22-2.46-1.81-3.74-2.56-.24-.14-.47-.28-.69-.43Z"/>
              <rect class="cls-56" x="143.46" y="33.16" width="2.06" height="4.99" rx="1.03" ry="1.03" transform="translate(41.18 142.78) rotate(-59.9)"/>
              <rect class="cls-56" x="141.25" y="35.44" width="2.18" height="3.75" rx="1.03" ry="1.03" transform="translate(29.88 132.22) rotate(-54.85)"/>
              <path class="cls-28" d="M107.72,27.47s32.41-11.5,45.68,10.11"/>
              <path class="cls-28" d="M108.36,22.24c2.64-7.8,8.34-14.52,15.61-18.39"/>
              <path class="cls-28" d="M50.58,4.16c3.74.18,7.49.36,11.23.54"/>
              <path class="cls-28" d="M66.03,5.22c5.03.58,10.09,1.18,14.94,2.59,4.85,1.41,9.53,3.7,13.03,7.25"/>
              <path class="cls-28" d="M96.81,17.7c3.16,2.23,5.55,5.48,6.69,9.13"/>
              <path class="cls-28" d="M93.79,9.38l.91,2.64"/>
              <path class="cls-28" d="M82.07,13.01l3.09.87"/>
              <path class="cls-28" d="M72.16,20.47l2.3.25"/>
              <path class="cls-28" d="M4.1,44.14c4.07.51,8.21.33,12.24-.4,9.43-1.7,18.05-6.31,26.7-10.43,6.32-3.02,12.78-5.82,19.56-7.59,8.08-2.11,16.55-2.73,24.85-1.81,3.98.44,8.05,1.29,11.32,3.6"/>
              <path class="cls-58" d="M64.27,24.18c-7.82,1.96-15.89,2.61-23.88,1.91-2.69-.23-5.55-.58-7.96.83-.55.33-1.13.91-1.02,1.61.12.74.91,1.01,1.55,1.13,8.71,1.52,17.71.69,26.1-2.4"/>
            </g>
            <g>
              <ellipse class="cls-43" cx="98.57" cy="35.32" rx="13.47" ry="17.6" transform="translate(63.08 133.83) rotate(-89.9)"/>
              <path class="cls-31" d="M80.14,36.49s.82-10.66,10.57-13.34"/>
              <path class="cls-31" d="M106.15,23.42s9.96,3.82,9.69,14.43"/>
              <path class="cls-31" d="M94.67,22.07s4.47-.82,7.8.11"/>
              <path class="cls-30" d="M89.15,28.04c1.57-1.38,3.68-2.17,5.76-2.47"/>
              <path class="cls-30" d="M86.79,29.89l-.42.35"/>
            </g>
            <g>
              <g>
                <ellipse class="cls-42" cx="39.98" cy="33.38" rx="3.29" ry="4.04" transform="translate(6.52 73.3) rotate(-89.9)"/>
                <path class="cls-30" d="M40.21,32.37c-.17.06-.3.09-.3.09"/>
              </g>
              <g>
                <path class="cls-41" d="M31.22,34.68c-.23-.12-.47-.21-.69-.26-1.06-.27-2.17-.11-3.25.04-1.33.19-2.66.38-3.99.57-1.23.18-2.45.42-3.55,1.02-1.12.61-2.1,1.62-2.43,2.87-.29,1.09,0,2.36.85,3.1.73.62,1.73.79,2.69.84,2.75.14,5.54-.47,7.97-1.77.88-.47,1.72-1.04,2.43-1.74.64-.63,1.38-1.46,1.53-2.37.17-1-.68-1.85-1.56-2.29Z"/>
                <path class="cls-30" d="M20.14,40.12s.02.01.02.01"/>
                <path class="cls-29" d="M21.73,38c.59-.24,1.19-.39,1.78-.42"/>
              </g>
            </g>
          </g>
          <path class="cls-17" d="M73.51,3.4c-1.25-.06-2.5-.17-3.75-.31-7.32-.86-14.81.51-21.44,3.58-3.35,1.55-6.49,3.53-9.3,5.87s-4.96,5.39-8.11,7.38c-4.93,3.12-10.51,4.46-15.62,7.16-5.63,2.97-12.31,7.73-13.87,14.05-.36,1.48-.46,3.08.17,4.47.65,1.44,2.03,2.49,3.53,3.09,6.08,2.45,13.91,1.29,20.23.43,7.22-.99,14.31-2.7,21.33-4.58,8.14-2.19,16.22-4.61,24.46-6.43,3.8-.84,7.91-1.94,11.81-1.88,4.38.06,8.73-.22,13.12.1,3.87.29,7.74.82,11.61.56,3.65-.25,7.24-1.19,10.9-1.13,4.88.08,9.52,1.94,14.09,3.59s9.63,3.66,14.46,3c1.99-.27,3.78-1.45,5.19-2.82,1.17-1.14,1.86-2.67,2.24-4.22,1.3-5.3-.96-11.24-5.5-14.47-3.53-2.52-8-3.35-12.18-4.65-5.12-1.59-10.39-3.87-14.9-6.72-5.43-3.42-9.79-7.48-16.55-8.18-4.49-.46-9.01.18-13.47.86-6.13.95-12.26,1.57-18.44,1.26Z"/>
        </g>
        <g>
          <path class="cls-47" d="M25.32,49.15c-.41.1,71.14-8.46,77.7,24.52,7.68,30.42-.77,87.37-.84,87.92-.34,2.17.16,3.61,1.71,4.15,2.92.73,4.85-.46,5.12-3.05.1-9.02.53-18.03,1-27.03.46-8.73.96-17.47,1.17-26.21.22-8.99.29-17.96-.86-26.9-.65-5.07-2.42-9.87-3.51-14.84-2.02-8.33,1.1-10.88,6.56-15.08,5.88-4.53,18.4-7.81,34.59-10.39-7.45.54-15.3-4.7-26.19-6.24-7.77-.62-12.27.05-17.14.94-1.94.34-5.68.18-7.25-.37-4.89-1.31-10.12-1.47-16.31-.91-9.92.78-18.22,2.59-25.29,5.21-17.47,8.37-13.36.64-30.46,8.3Z"/>
          <g class="cls-68">
            <path class="cls-63" d="M76.06,57.24c-3.89-1.54-7.78-3.08-11.67-4.62-.76-.3-1.54-.61-2.18-1.13s-1.14-1.27-1.15-2.09c-.03-6.27,15.83-1.28,18.8-.41,1.39.41,4.33,1.32,4.94-.79.23-.81-.02-1.67-.15-2.51s-.08-1.81.57-2.36c1.64-1.38,3.24.97,3.73,2.28.45,1.2.84,2.55,1.9,3.26,1.77,1.18,3.86-.09,4.93-1.58.71-.98,1.22-2.1,2-3.02s1.95-1.64,3.14-1.44c3.45.58.75,4.94.57,6.7-.13,1.26.32,2.67,1.41,3.31.88.52,2.01.45,2.96.07,3.28-1.32,5.87-3.54,9.41-4.42,3.35-.83,11.78-2.14,12.32,3.01.17,1.62-.83,3.09-1.69,4.47-4.9,7.89-6.15,17.55-5.81,26.83.35,9.28,2.17,18.45,2.94,27.7,1.02,12.36,2.05,24.73,3.07,37.09.36,4.38.73,8.79.33,13.17-.24,2.7-.77,5.38-1.58,7.97-1.63,5.23-4.57,10.29-9.24,13.14-3.95,2.41-8.7,3.02-13.29,3.57-2.36.29-5.34.27-6.43-1.84-1.75-3.38-2.49-7.17-3.05-10.94-1.01-6.77-1.47-13.61-2.21-20.42-2.77-25.4-9.56-50.35-19.99-73.67-2.99-6.68-6.27-13.23-9.85-19.61-.97-1.73-2.35-2.69-.3-3.56,1.56-.66,3.73-.68,5.4-.68,3.52,0,7.04.84,10.14,2.49Z"/>
            <path class="cls-63" d="M58.79,48.14c-1.53-2.68-5.08-4-7.99-2.96-1.19.42-2.36,1.4-2.34,2.66.02.95.74,1.79,1.61,2.17s1.86.38,2.81.27c1.92-.23,3.79-.91,5.91-2.13Z"/>
            <path class="cls-63" d="M85.01,37.54c-.99-.78-2.72-.17-2.99,1.06-.27,1.24,1.19,2.7,2.45,2.3s1.57-2.56.54-3.37Z"/>
            <path class="cls-63" d="M106.8,41.55c-1.51,1.27-5.36.83-3.2-1.66.65-.75,1.71-1.38,2.7-1.12,1.31.34,1.53,1.92.5,2.78Z"/>
            <path class="cls-63" d="M124.87,46.35c-.26-.76.18-1.64.87-2.18.09-.07.19-.14.29-.21.65-.41,1.43-.62,2.21-.76.92-.17,1.88-.24,2.76,0,2.16.57.88,2.38-.38,3.24-1.43.98-5.01,2.09-5.75-.09Z"/>
          </g>
          <path class="cls-13" d="M25.32,49.15c-.41.1,71.14-8.46,77.7,24.52,7.68,30.42-.77,87.37-.84,87.92-.34,2.17.16,3.61,1.71,4.15,2.92.73,4.85-.46,5.12-3.05.1-9.02.53-18.03,1-27.03.46-8.73.96-17.47,1.17-26.21.22-8.99.29-17.96-.86-26.9-.65-5.07-2.42-9.87-3.51-14.84-2.02-8.33,1.1-10.88,6.56-15.08,5.88-4.53,18.4-7.81,34.59-10.39-7.45.54-15.3-4.7-26.19-6.24-7.77-.62-12.27.05-17.14.94-1.94.34-5.68.18-7.25-.37-4.89-1.31-10.12-1.47-16.31-.91-9.92.78-18.22,2.59-25.29,5.21-17.47,8.37-13.36.64-30.46,8.3Z"/>
        </g>
        <g>
          <path class="cls-1" d="M117.44,129.98c0,3.18-1.93,5.76-4.3,5.75s-5.02-2.32-4.19-5.4,2.16-6.22,4.21-6.13c2.36.1,4.28,2.59,4.28,5.77Z"/>
          <g class="cls-60">
            <path class="cls-64" d="M113.41,124.24c1.8,3.68,1.87,8.17.17,11.89-.18.39-.38.78-.48,1.19s-.09.88.13,1.25c.13.22.33.4.55.54,1.09.73,2.65.62,3.64-.24.66-.58,1.03-1.41,1.34-2.24.73-1.96,1.21-4.04,1.11-6.13-.09-2.09-.79-4.19-2.17-5.75-.63-.71-1.42-1.31-2.32-1.62s-1.94-.29-2.78.15c0-.16-.02-.33-.03-.49-.43.16-.64.75-.45,1.16s.89.49,1.29.27Z"/>
          </g>
          <path class="cls-17" d="M117.44,129.98c0,3.18-1.93,5.76-4.3,5.75s-5.02-2.32-4.19-5.4,2.16-6.22,4.21-6.13c2.36.1,4.28,2.59,4.28,5.77Z"/>
        </g>
      </g>
      <g>
        <g>
          <path class="cls-49" d="M95.37,66.83c-2.5-.44-4.38-.1-6.72,1.11s-4.45,3.04-6.06,5.17c-5.55,7.35-5.81,17.4-5.04,26.18.63,7.26-3.62,13.46-9.24,17.67-3.34,2.5-10.97,4.96-14.07,7.74-4.94,4.42-2.75,10.7-2.44,17.14.15,3.05-3.24,6.47-2.38,9.4.43,1.47,4.89,2.51,5.46,3.93.79,2-1.97,4.49.17,5.4,1.16.49,6.15.35,7.56.28s2.95-.21,4.4-.35c5.3-.52,10.74-2.03,15.34-4.77,5.8-3.46,10.56-8.61,13.67-14.6,8.1-15.63,5.28-33.25,1-49.48-1.14-4.33-2.25-8.68-2.85-13.12-.37-2.69-1.96-10.11,1.2-11.7Z"/>
          <g class="cls-8">
            <path class="cls-33" d="M85.21,65.83c-3.36,5.49-4.08,12.21-3.65,18.61s1.93,12.7,2.65,19.08c.73,6.38.64,13.05-1.95,18.94-2.13,4.85-5.8,8.85-8.8,13.22-6.89,10.05-10.28,22.42-9.45,34.54"/>
            <path class="cls-33" d="M72.1,107.04c.14,5.11-.98,10.25-3.21,14.76-1.57,3.16-3.66,5.99-5.77,8.76-4.43,5.85-9.08,11.8-11.24,18.99-1.2,4-1.57,8.3-1.08,12.47"/>
            <path class="cls-33" d="M99.47,54.58c-1.93,2.81-3.9,6.09-4.85,9.39-.89,3.06-2.29,5.91-2.86,9.11-1.22,6.85-.36,13.9.85,20.68,1.74,9.81,4.14,19.92,1.8,29.6-3.64,15.06-18.07,26.19-20.02,41.56"/>
          </g>
          <path class="cls-12" d="M95.37,66.83c-2.5-.44-4.38-.1-6.72,1.11s-4.45,3.04-6.06,5.17c-5.55,7.35-5.81,17.4-5.04,26.18.63,7.26-3.62,13.46-9.24,17.67-3.34,2.5-10.97,4.96-14.07,7.74-4.94,4.42-2.75,10.7-2.44,17.14.15,3.05-3.24,6.47-2.38,9.4.43,1.47,4.89,2.51,5.46,3.93.79,2-1.97,4.49.17,5.4,1.16.49,6.15.35,7.56.28s2.95-.21,4.4-.35c5.3-.52,10.74-2.03,15.34-4.77,5.8-3.46,10.56-8.61,13.67-14.6,8.1-15.63,5.28-33.25,1-49.48-1.14-4.33-2.25-8.68-2.85-13.12-.37-2.69-1.96-10.11,1.2-11.7Z"/>
        </g>
        <g>
          <path class="cls-49" d="M16.26,66.98c2.5-.44,4.38-.1,6.72,1.11s4.45,3.04,6.06,5.17c5.55,7.35,5.81,17.4,5.04,26.18-.63,7.26,3.62,13.46,9.24,17.67,3.34,2.5,13.56,4.54,16.67,7.32,4.94,4.42,6.71,11.1,6.4,17.55-.16,3.37-.85,6.72-1.93,9.91-.53,1.56-1.16,3.1-1.89,4.58-.64,1.29-1.68,3.28-3.06,3.91-.8.36-1.22.43-2.1.44-7.38.12-21.72-1.12-28.11-4.92-5.8-3.46-10.56-8.61-13.67-14.6-8.1-15.63-5.28-33.25-1-49.48,1.14-4.33,2.25-8.68,2.85-13.12.37-2.69,1.96-10.11-1.2-11.7Z"/>
          <g class="cls-65">
            <path class="cls-33" d="M26.87,66.85c3.36,5.49,4.08,12.21,3.65,18.61-.43,6.41-1.93,12.7-2.65,19.08-.73,6.38-.64,13.05,1.95,18.94,2.13,4.85,5.8,8.85,8.8,13.22,6.89,10.05,10.28,22.42,9.45,34.54"/>
            <path class="cls-33" d="M39.98,108.06c-.14,5.11.98,10.25,3.21,14.76,1.57,3.16,3.66,5.99,5.77,8.76,4.43,5.85,9.08,11.8,11.24,18.99,1.2,4,1.57,8.3,1.08,12.47"/>
            <path class="cls-33" d="M12.61,55.6c1.93,2.81,3.9,6.09,4.85,9.39.89,3.06,2.29,5.91,2.86,9.11,1.22,6.85.36,13.9-.85,20.68-1.74,9.81-4.14,19.92-1.8,29.6,3.64,15.06,18.07,26.19,20.02,41.56"/>
          </g>
          <path class="cls-12" d="M16.26,66.98c2.5-.44,4.38-.1,6.72,1.11s4.45,3.04,6.06,5.17c5.55,7.35,5.81,17.4,5.04,26.18-.63,7.26,3.62,13.46,9.24,17.67,3.34,2.5,13.56,4.54,16.67,7.32,4.94,4.42,6.71,11.1,6.4,17.55-.16,3.37-.85,6.72-1.93,9.91-.53,1.56-1.16,3.1-1.89,4.58-.64,1.29-1.68,3.28-3.06,3.91-.8.36-1.22.43-2.1.44-7.38.12-21.72-1.12-28.11-4.92-5.8-3.46-10.56-8.61-13.67-14.6-8.1-15.63-5.28-33.25-1-49.48,1.14-4.33,2.25-8.68,2.85-13.12.37-2.69,1.96-10.11-1.2-11.7Z"/>
        </g>
      </g>
      <g id="legs">
        <g>
          <ellipse class="cls-48" cx="34.39" cy="155.6" rx="8.81" ry="11.7" transform="translate(-119.39 113.84) rotate(-62.34)"/>
          <g class="cls-5">
            <path class="cls-67" d="M46.72,160.16c-.89,2.09-1.8,4.22-3.32,5.91-1.77,1.96-4.27,3.17-6.86,3.66s-5.28.29-7.86-.26c-1.44-.31-2.9-.74-4.03-1.68-1.9-1.57-2.49-4.17-3.26-6.51-.51-1.55-1.13-3.05-1.69-4.58-.8-2.17-1.5-4.47-1.29-6.77s1.48-4.66,3.64-5.51c1.19,3.21,2.83,6.27,4.84,9.04.64.88,1.37,1.69,2.19,2.41,1.11.98,2.36,1.8,3.68,2.47,2.27,1.15,4.77,1.87,7.32,1.91s5.12-.64,7.21-2.09c-.29.71-.25,1.3-.55,2.01Z"/>
            <path class="cls-36" d="M32.58,148.41c1.39.14,2.74.55,3.97,1.21"/>
            <path class="cls-36" d="M38.1,150.61c.19.09.38.21.52.31"/>
          </g>
          <ellipse class="cls-17" cx="34.39" cy="155.6" rx="8.81" ry="11.7" transform="translate(-119.39 113.84) rotate(-62.34)"/>
        </g>
        <g>
          <ellipse class="cls-48" cx="78.76" cy="155.96" rx="11.7" ry="8.81" transform="translate(-64.1 55.38) rotate(-28.06)"/>
          <g class="cls-10">
            <path class="cls-67" d="M66.33,160.51c.88,2.09,1.78,4.23,3.3,5.92,1.76,1.96,4.26,3.19,6.85,3.68s5.28.31,7.86-.23c1.44-.3,2.9-.73,4.04-1.67,1.9-1.56,2.51-4.16,3.28-6.5.51-1.55,1.14-3.05,1.71-4.57.81-2.17,1.51-4.46,1.32-6.77s-1.47-4.66-3.62-5.53c-1.2,3.21-2.85,6.26-4.87,9.02-.64.88-1.38,1.69-2.2,2.41-1.11.98-2.37,1.79-3.69,2.45-2.27,1.14-4.78,1.85-7.32,1.88-2.54.03-5.12-.66-7.2-2.11.29.71.24,1.3.54,2.01Z"/>
            <path class="cls-36" d="M80.52,148.82c-1.39.13-2.75.54-3.98,1.2"/>
            <path class="cls-36" d="M74.99,150.99c-.19.09-.38.21-.52.31"/>
          </g>
          <ellipse class="cls-17" cx="78.76" cy="155.96" rx="11.7" ry="8.81" transform="translate(-64.1 55.38) rotate(-28.06)"/>
        </g>
      </g>
    </g>
  </g>
</svg>