<?xml version="1.0" encoding="UTF-8"?>
<svg id="Layer_2" data-name="Layer 2" xmlns="http://www.w3.org/2000/svg" xmlns:xlink="http://www.w3.org/1999/xlink" viewBox="0 0 161.73 165.87">
  <defs>
    <style>
      .cls-1, .cls-2 {
        fill: #ffe0cc;
      }

      .cls-3, .cls-4, .cls-5, .cls-6, .cls-7, .cls-8, .cls-9, .cls-2, .cls-10, .cls-11, .cls-12, .cls-13, .cls-14, .cls-15 {
        stroke-width: 2.23px;
      }

      .cls-3, .cls-4, .cls-5, .cls-6, .cls-8, .cls-2, .cls-16, .cls-17, .cls-10, .cls-18, .cls-11, .cls-19, .cls-14, .cls-20 {
        stroke-miterlimit: 10;
      }

      .cls-3, .cls-17, .cls-21 {
        fill: #a5e0ff;
      }

      .cls-3, .cls-17, .cls-15 {
        stroke: #69afd7;
      }

      .cls-22, .cls-23, .cls-6, .cls-7, .cls-16, .cls-11, .cls-12, .cls-19, .cls-13, .cls-24, .cls-25, .cls-26, .cls-20, .cls-15 {
        fill: none;
      }

      .cls-22, .cls-23, .cls-7, .cls-9, .cls-27, .cls-28, .cls-12, .cls-13, .cls-24, .cls-29, .cls-25, .cls-26, .cls-15 {
        stroke-linejoin: round;
      }

      .cls-22, .cls-4, .cls-5, .cls-6, .cls-8, .cls-9, .cls-2, .cls-27, .cls-10, .cls-18, .cls-28, .cls-12, .cls-19, .cls-24, .cls-29, .cls-14, .cls-25 {
        stroke: #000;
      }

      .cls-22, .cls-18, .cls-28, .cls-19, .cls-25 {
        stroke-width: 2.61px;
      }

      .cls-23, .cls-7, .cls-9, .cls-27, .cls-16, .cls-11, .cls-12, .cls-13, .cls-24, .cls-29, .cls-25, .cls-26, .cls-20, .cls-15 {
        stroke-linecap: round;
      }

      .cls-23, .cls-17 {
        stroke-width: 2.05px;
      }

      .cls-23, .cls-13 {
        stroke: #c9ebff;
      }

      .cls-30, .cls-10 {
        fill: #6b8441;
      }

      .cls-4, .cls-31 {
        fill: #ffe1cd;
      }

      .cls-32 {
        clip-path: url(#clippath-21);
      }

      .cls-33 {
        clip-path: url(#clippath-6);
      }

      .cls-34 {
        clip-path: url(#clippath-7);
      }

      .cls-35 {
        clip-path: url(#clippath-17);
      }

      .cls-5 {
        fill: #f3c3a9;
      }

      .cls-36 {
        fill: #623c38;
      }

      .cls-37 {
        clip-path: url(#clippath-18);
      }

      .cls-38 {
        clip-path: url(#clippath-4);
      }

      .cls-7 {
        stroke: #5a742a;
      }

      .cls-39 {
        clip-path: url(#clippath-22);
      }

      .cls-40 {
        clip-path: url(#clippath-23);
      }

      .cls-8 {
        fill: #276433;
      }

      .cls-9, .cls-41 {
        fill: #4e6624;
      }

      .cls-42 {
        clip-path: url(#clippath-9);
      }

      .cls-27, .cls-43 {
        fill: #f4d0d2;
      }

      .cls-27, .cls-24, .cls-29 {
        stroke-width: 2.15px;
      }

      .cls-44 {
        clip-path: url(#clippath-10);
      }

      .cls-45 {
        fill: #fff;
      }

      .cls-46 {
        clip-path: url(#clippath-25);
      }

      .cls-16 {
        stroke-width: 1.12px;
      }

      .cls-16, .cls-20 {
        stroke: #623c38;
      }

      .cls-47, .cls-14 {
        fill: #3f221f;
      }

      .cls-48, .cls-18 {
        fill: #fedcc4;
      }

      .cls-49 {
        clip-path: url(#clippath-11);
      }

      .cls-50, .cls-28 {
        fill: #3e221f;
      }

      .cls-51 {
        clip-path: url(#clippath-1);
      }

      .cls-52, .cls-29 {
        fill: #e8bbc9;
      }

      .cls-53 {
        clip-path: url(#clippath-5);
      }

      .cls-11 {
        stroke: #f5b1ab;
      }

      .cls-54 {
        clip-path: url(#clippath-8);
      }

      .cls-55 {
        fill: #79914f;
      }

      .cls-56 {
        clip-path: url(#clippath-3);
      }

      .cls-57 {
        fill: #5a742a;
      }

      .cls-58 {
        clip-path: url(#clippath-12);
      }

      .cls-59 {
        clip-path: url(#clippath-14);
      }

      .cls-60 {
        fill: #829b58;
      }

      .cls-61 {
        fill: #6b863a;
      }

      .cls-62 {
        fill: #eec0a6;
      }

      .cls-63 {
        clip-path: url(#clippath-2);
      }

      .cls-64 {
        fill: #2f1a17;
      }

      .cls-65 {
        clip-path: url(#clippath-13);
      }

      .cls-26 {
        stroke: #e59fa9;
        stroke-width: 1.53px;
      }

      .cls-66 {
        clip-path: url(#clippath-24);
      }

      .cls-67 {
        clip-path: url(#clippath);
      }

      .cls-20 {
        stroke-width: 1.3px;
      }
    </style>
    <clipPath id="clippath">
      <path class="cls-4" d="M32.18,137.92l-4.84,2.45c-.67.38-3.14,2.08-3.93,2.87-1.18,1.18-3.41,5.03.44,6.97,4.21,2.12,7.9-2.21,7.9-2.21l3.71-3.74c.53-.5.72-1.25.51-1.94l-1.04-3.33c-.24-.76-.92-1.29-1.72-1.33h0c-.36-.02-.72.07-1.03.25Z"/>
    </clipPath>
    <clipPath id="clippath-1">
      <path class="cls-29" d="M48.48,59.01c13.55,3.15,24.77,13.49,22.56,27.8-.1.65-.65,1.13-1.31,1.19-9.95.94-18.13,3.88-23.47,10.55-.49.61-1.37.69-1.97.19-9.37-7.75-15.02-17.71-6.7-34.59l2.36-4.25c.92-1.65,2.85-2.46,4.67-1.96l3.86,1.06Z"/>
    </clipPath>
    <clipPath id="clippath-2">
      <path class="cls-29" d="M91.69,64c7.03,12,7.25,27.25-4.66,35.49-.54.37-1.27.3-1.76-.13-7.52-6.57-15.29-10.49-23.81-9.77-.78.07-1.44-.52-1.49-1.3-.82-12.13,2.52-23.08,20.49-28.66l4.71-1.21c1.83-.47,3.74.37,4.63,2.04l1.88,3.53Z"/>
    </clipPath>
    <clipPath id="clippath-3">
      <path class="cls-29" d="M120.59,98.69c-3.85,13.37-14.76,24.03-28.94,21.07-.64-.13-1.09-.71-1.12-1.37-.41-9.98-2.93-18.31-9.31-23.99-.58-.52-.61-1.4-.09-1.98,8.22-8.95,18.47-14.07,34.89-4.89l4.12,2.58c1.6,1,2.31,2.97,1.71,4.77l-1.26,3.8Z"/>
    </clipPath>
    <clipPath id="clippath-4">
      <path class="cls-29" d="M102.9,143.23c-13.43,3.63-28.2-.17-33.02-13.82-.22-.62.04-1.3.59-1.67,8.32-5.53,14.14-12,15.68-20.4.14-.77.88-1.25,1.64-1.1,11.92,2.39,21.61,8.49,22.27,27.3l-.07,4.86c-.03,1.89-1.34,3.51-3.19,3.93l-3.9.89Z"/>
    </clipPath>
    <clipPath id="clippath-5">
      <path class="cls-29" d="M16.22,132.1c-.32-13.91,6.91-27.34,21.32-28.76.65-.06,1.26.35,1.48.97,3.38,9.4,8.27,16.6,16.06,20.11.71.32,1.01,1.15.67,1.86-5.17,11-13.42,18.95-31.84,15.09l-4.71-1.23c-1.83-.48-3.09-2.15-3.06-4.04l.07-4Z"/>
    </clipPath>
    <clipPath id="clippath-6">
      <path class="cls-29" d="M14.2,87.55c11.93-7.15,27.18-7.52,35.54,4.3.38.54.32,1.27-.11,1.76-6.5,7.59-10.34,15.39-9.54,23.9.07.77-.51,1.45-1.28,1.51-12.12.94-23.11-2.29-28.86-20.21l-1.26-4.7c-.49-1.83.34-3.75,2-4.65l3.51-1.92Z"/>
    </clipPath>
    <clipPath id="clippath-7">
      <path class="cls-27" d="M73.38,86.91c2.97-11.79,9.53-21.17,28.35-20.92.76.01,1.38.62,1.38,1.38l.03,4.53c0,.85.77,1.49,1.6,1.36l4.72-.74c.73-.12,1.42.37,1.58,1.09,2.98,13.59-1.53,28.16-15.4,32.32-.62.19-1.28-.07-1.61-.62-5.12-8.6-11.31-14.74-19.64-16.7-.76-.18-1.21-.94-1.02-1.7Z"/>
    </clipPath>
    <clipPath id="clippath-8">
      <path class="cls-27" d="M86.99,122.16c9.35,7.77,14.98,17.74,6.62,34.61-.34.68-1.15.98-1.84.65l-4.1-1.93c-.77-.36-1.68.05-1.92.86l-1.37,4.58c-.21.71-.94,1.12-1.67.95-13.54-3.18-24.73-13.55-22.49-27.85.1-.64.62-1.12,1.26-1.18,9.97-.91,18.18-3.83,23.54-10.5.49-.61,1.37-.69,1.97-.19Z"/>
    </clipPath>
    <clipPath id="clippath-9">
      <path class="cls-27" d="M92.91,96.7c11.45-4.08,22.9-3.83,33.14,11.96.41.64.25,1.49-.38,1.92l-3.75,2.55c-.7.48-.82,1.47-.24,2.09l3.24,3.52c.5.55.48,1.38-.03,1.92-9.64,10.02-24.27,14.36-35.43,5.14-.5-.41-.65-1.1-.38-1.69,4.3-9.04,5.98-17.59,2.98-25.6-.27-.73.11-1.53.84-1.79Z"/>
    </clipPath>
    <clipPath id="clippath-10">
      <path class="cls-27" d="M61.02,132.86c.07,12.15-3.95,22.88-22.23,27.33-.74.18-1.49-.25-1.68-.99l-1.16-4.38c-.22-.82-1.11-1.25-1.89-.92l-4.39,1.9c-.68.29-1.47,0-1.8-.66-6.28-12.41-5.54-27.65,6.85-35.14.55-.33,1.26-.25,1.72.2,7.11,7.05,14.63,11.45,23.18,11.27.78-.02,1.41.61,1.42,1.39Z"/>
    </clipPath>
    <clipPath id="clippath-11">
      <path class="cls-27" d="M32.09,104.92c-11.03-5.11-19.03-13.3-15.28-31.75.15-.75.86-1.24,1.61-1.1l4.46.81c.84.15,1.61-.48,1.64-1.32l.15-4.78c.02-.74.63-1.33,1.37-1.35,13.9-.4,27.38,6.74,28.89,21.14.07.64-.31,1.25-.91,1.47-9.4,3.44-16.59,8.37-20.06,16.19-.32.71-1.15,1.02-1.86.69Z"/>
    </clipPath>
    <clipPath id="clippath-12">
      <path class="cls-27" d="M37.05,126.09c-10.54,6.05-21.85,7.84-34.74-5.88-.52-.55-.51-1.42.03-1.95l3.24-3.17c.61-.59.54-1.59-.13-2.1l-3.81-2.88c-.59-.45-.72-1.28-.31-1.89,7.71-11.58,21.33-18.45,33.95-11.35.56.32.84.97.67,1.59-2.63,9.66-2.76,18.37,1.62,25.72.4.67.16,1.53-.51,1.91Z"/>
    </clipPath>
    <clipPath id="clippath-13">
      <path class="cls-27" d="M50.2,87.46c-5.3-10.94-6.31-22.34,8.27-34.25.59-.48,1.45-.41,1.95.17l2.94,3.45c.55.65,1.55.65,2.1.01l3.14-3.61c.49-.56,1.32-.63,1.91-.18,11.02,8.49,16.93,22.55,8.98,34.65-.35.54-1.03.77-1.64.56-9.45-3.29-18.14-4.02-25.77-.16-.69.35-1.54.06-1.88-.64Z"/>
    </clipPath>
    <clipPath id="clippath-14">
      <ellipse class="cls-18" cx="64.22" cy="110.48" rx="24.75" ry="33.39" transform="translate(-46.38 174.51) rotate(-89.9)"/>
    </clipPath>
    <clipPath id="clippath-17">
      <path class="cls-28" d="M55.15,86.59c-.32-.04-1.27.14-1.14-.16,1.66-3.9,9.57-9.59,16.84-2.13,3.6,3.69,8.03,1.55,8.03,1.55,0,0-5.05,9.05-15.02,4.74-4.85-2.1-4.8-3.48-8.72-3.99Z"/>
    </clipPath>
    <clipPath id="clippath-18">
      <path class="cls-28" d="M53.95,87.13c.09-.24.05-.64-.18-.74-1.75-.77-7.18-2.02-10.5,3.47-2.01,3.33-7.96,2.94-7.96,2.94,0,0,8.25,4.89,14.86-.66,3.22-2.7,3.32-3.75,3.77-5.02Z"/>
    </clipPath>
    <clipPath id="clippath-21">
      <ellipse class="cls-14" cx="40.95" cy="154.47" rx="8.75" ry="11.61" transform="translate(-114.88 119.05) rotate(-62.34)"/>
    </clipPath>
    <clipPath id="clippath-22">
      <ellipse class="cls-14" cx="85.01" cy="154.84" rx="11.61" ry="8.75" transform="translate(-62.84 58.18) rotate(-28.06)"/>
    </clipPath>
    <clipPath id="clippath-23">
      <path class="cls-10" d="M79.79,3.38c-1.24-.06-2.48-.17-3.73-.31-7.27-.85-14.7.5-21.28,3.55-3.33,1.54-6.44,3.51-9.24,5.83-2.83,2.35-4.93,5.35-8.05,7.33-4.89,3.1-10.43,4.43-15.51,7.11-5.59,2.95-12.22,7.67-13.77,13.95-.36,1.47-.46,3.06.17,4.44.65,1.43,2.01,2.47,3.51,3.07,6.03,2.44,13.81,1.29,20.08.43,7.17-.98,14.21-2.68,21.18-4.55,8.08-2.17,16.1-4.58,24.28-6.38,3.78-.83,7.86-1.92,11.72-1.87,4.35.06,8.66-.22,13.03.1,3.84.29,7.69.81,11.53.56,3.62-.24,7.19-1.18,10.82-1.13,4.85.08,9.45,1.92,13.99,3.57,4.54,1.64,9.56,3.64,14.36,2.98,1.97-.27,3.75-1.44,5.16-2.8,1.16-1.13,1.84-2.65,2.22-4.19,1.29-5.26-.96-11.16-5.46-14.37-3.5-2.5-7.94-3.33-12.09-4.62-5.09-1.58-10.31-3.84-14.8-6.67-5.39-3.39-9.72-7.43-16.43-8.12-4.45-.46-8.95.17-13.37.86-6.09.94-12.18,1.56-18.31,1.25Z"/>
    </clipPath>
    <clipPath id="clippath-24">
      <path class="cls-9" d="M31.95,48.79c-.4.09,70.62-8.4,77.14,24.35,7.63,30.2-.76,86.74-.84,87.28-.34,2.15.16,3.58,1.7,4.12,2.9.72,4.82-.45,5.09-3.03.09-8.95.52-17.9,1-26.84.46-8.67.95-17.34,1.17-26.02.22-8.93.29-17.83-.85-26.71-.65-5.03-2.4-9.8-3.49-14.73-2.01-8.27,1.09-10.8,6.51-14.98,5.84-4.5,18.27-7.75,34.34-10.32-7.4.54-15.19-4.67-26-6.19-7.71-.62-12.18.05-17.02.93-1.92.34-5.64.18-7.2-.37-4.85-1.3-10.05-1.46-16.19-.91-9.84.77-18.09,2.58-25.11,5.17-17.35,8.31-13.26.64-30.24,8.24Z"/>
    </clipPath>
    <clipPath id="clippath-25">
      <path class="cls-2" d="M123.41,129.04c0,3.16-1.91,5.72-4.26,5.71s-4.98-2.31-4.16-5.36,2.15-6.17,4.18-6.08c2.35.1,4.25,2.57,4.24,5.73Z"/>
    </clipPath>
  </defs>
  <g id="Layer_3" data-name="Layer 3">
    <g id="Bun">
      <g id="Hand">
        <g>
          <path class="cls-31" d="M32.18,137.92l-4.84,2.45c-.67.38-3.14,2.08-3.93,2.87-1.18,1.18-3.41,5.03.44,6.97,4.21,2.12,7.9-2.21,7.9-2.21l3.71-3.74c.53-.5.72-1.25.51-1.94l-1.04-3.33c-.24-.76-.92-1.29-1.72-1.33h0c-.36-.02-.72.07-1.03.25Z"/>
          <g class="cls-67">
            <path class="cls-62" d="M29.56,138.88c-.07,1.61-.14,3.23-.45,4.81-.31,1.58-.87,3.14-1.84,4.43-1.13,1.51-2.82,2.6-4.66,3.01,3.79.9,7.73,1.16,11.56.46.76-.14,1.53-.31,2.2-.69,1.56-.86,2.39-2.6,3.02-4.26.81-2.15,1.44-4.55.65-6.7-.48-1.3-1.48-2.4-2.73-3-1.25-.6-2.73-.7-4.05-.27-.68.22-1.31.57-2.01.7-1.22.23-2.55-.32-3.25-1.34-.42.4-.66.97-.66,1.55.84,0,1.79.58,2.21,1.3Z"/>
          </g>
          <path class="cls-6" d="M32.18,137.92l-4.84,2.45c-.67.38-3.14,2.08-3.93,2.87-1.18,1.18-3.41,5.03.44,6.97,4.21,2.12,7.9-2.21,7.9-2.21l3.71-3.74c.53-.5.72-1.25.51-1.94l-1.04-3.33c-.24-.76-.92-1.29-1.72-1.33h0c-.36-.02-.72.07-1.03.25Z"/>
        </g>
        <path class="cls-5" d="M102.07,123.08c3.41.69,6.93.89,10.41.6,1.19-.1,2.5-.23,3.5.39.67.42,1.09,1.12,1.28,1.85s.17,1.49.12,2.24c-.07,1.06-.3,2.27-1.26,2.84-.63.37-1.42.38-2.16.35-2.25-.07-4.5-.26-6.72-.59-1.32-.19-2.68-.45-3.78-1.17-1.04-.68-1.77-1.76-1.98-2.94s.1-2.42.61-3.59Z"/>
      </g>
      <path class="cls-8" d="M82.94,161.38c-16.19-3.61-25.38-5.39-40.04.01l-5.97-38.14,50.26.09-4.25,38.04Z"/>
      <g id="head_and_daisy" data-name="head and daisy">
        <g>
          <g>
            <path class="cls-52" d="M48.48,59.01c13.55,3.15,24.77,13.49,22.56,27.8-.1.65-.65,1.13-1.31,1.19-9.95.94-18.13,3.88-23.47,10.55-.49.61-1.37.69-1.97.19-9.37-7.75-15.02-17.71-6.7-34.59l2.36-4.25c.92-1.65,2.85-2.46,4.67-1.96l3.86,1.06Z"/>
            <g class="cls-51">
              <line class="cls-26" x1="53.32" y1="82.73" x2="57.02" y2="90.83"/>
            </g>
            <path class="cls-24" d="M48.48,59.01c13.55,3.15,24.77,13.49,22.56,27.8-.1.65-.65,1.13-1.31,1.19-9.95.94-18.13,3.88-23.47,10.55-.49.61-1.37.69-1.97.19-9.37-7.75-15.02-17.71-6.7-34.59l2.36-4.25c.92-1.65,2.85-2.46,4.67-1.96l3.86,1.06Z"/>
          </g>
          <g>
            <path class="cls-52" d="M91.69,64c7.03,12,7.25,27.25-4.66,35.49-.54.37-1.27.3-1.76-.13-7.52-6.57-15.29-10.49-23.81-9.77-.78.07-1.44-.52-1.49-1.3-.82-12.13,2.52-23.08,20.49-28.66l4.71-1.21c1.83-.47,3.74.37,4.63,2.04l1.88,3.53Z"/>
            <g class="cls-63">
              <line class="cls-26" x1="77.8" y1="83.83" x2="74.47" y2="92.08"/>
            </g>
            <path class="cls-24" d="M91.69,64c7.03,12,7.25,27.25-4.66,35.49-.54.37-1.27.3-1.76-.13-7.52-6.57-15.29-10.49-23.81-9.77-.78.07-1.44-.52-1.49-1.3-.82-12.13,2.52-23.08,20.49-28.66l4.71-1.21c1.83-.47,3.74.37,4.63,2.04l1.88,3.53Z"/>
          </g>
          <g>
            <path class="cls-52" d="M120.59,98.69c-3.85,13.37-14.76,24.03-28.94,21.07-.64-.13-1.09-.71-1.12-1.37-.41-9.98-2.93-18.31-9.31-23.99-.58-.52-.61-1.4-.09-1.98,8.22-8.95,18.47-14.07,34.89-4.89l4.12,2.58c1.6,1,2.31,2.97,1.71,4.77l-1.26,3.8Z"/>
            <g class="cls-56">
              <line class="cls-26" x1="96.65" y1="102.29" x2="88.37" y2="105.55"/>
            </g>
            <path class="cls-24" d="M120.59,98.69c-3.85,13.37-14.76,24.03-28.94,21.07-.64-.13-1.09-.71-1.12-1.37-.41-9.98-2.93-18.31-9.31-23.99-.58-.52-.61-1.4-.09-1.98,8.22-8.95,18.47-14.07,34.89-4.89l4.12,2.58c1.6,1,2.31,2.97,1.71,4.77l-1.26,3.8Z"/>
          </g>
          <g>
            <path class="cls-52" d="M102.9,143.23c-13.43,3.63-28.2-.17-33.02-13.82-.22-.62.04-1.3.59-1.67,8.32-5.53,14.14-12,15.68-20.4.14-.77.88-1.25,1.64-1.1,11.92,2.39,21.61,8.49,22.27,27.3l-.07,4.86c-.03,1.89-1.34,3.51-3.19,3.93l-3.9.89Z"/>
            <g class="cls-38">
              <line class="cls-26" x1="87.41" y1="124.62" x2="80.33" y2="119.24"/>
            </g>
            <path class="cls-24" d="M102.9,143.23c-13.43,3.63-28.2-.17-33.02-13.82-.22-.62.04-1.3.59-1.67,8.32-5.53,14.14-12,15.68-20.4.14-.77.88-1.25,1.64-1.1,11.92,2.39,21.61,8.49,22.27,27.3l-.07,4.86c-.03,1.89-1.34,3.51-3.19,3.93l-3.9.89Z"/>
          </g>
          <g>
            <path class="cls-52" d="M16.22,132.1c-.32-13.91,6.91-27.34,21.32-28.76.65-.06,1.26.35,1.48.97,3.38,9.4,8.27,16.6,16.06,20.11.71.32,1.01,1.15.67,1.86-5.17,11-13.42,18.95-31.84,15.09l-4.71-1.23c-1.83-.48-3.09-2.15-3.06-4.04l.07-4Z"/>
            <g class="cls-53">
              <line class="cls-26" x1="37.99" y1="121.51" x2="44.92" y2="115.92"/>
            </g>
            <path class="cls-24" d="M16.22,132.1c-.32-13.91,6.91-27.34,21.32-28.76.65-.06,1.26.35,1.48.97,3.38,9.4,8.27,16.6,16.06,20.11.71.32,1.01,1.15.67,1.86-5.17,11-13.42,18.95-31.84,15.09l-4.71-1.23c-1.83-.48-3.09-2.15-3.06-4.04l.07-4Z"/>
          </g>
          <g>
            <path class="cls-52" d="M14.2,87.55c11.93-7.15,27.18-7.52,35.54,4.3.38.54.32,1.27-.11,1.76-6.5,7.59-10.34,15.39-9.54,23.9.07.77-.51,1.45-1.28,1.51-12.12.94-23.11-2.29-28.86-20.21l-1.26-4.7c-.49-1.83.34-3.75,2-4.65l3.51-1.92Z"/>
            <g class="cls-33">
              <line class="cls-26" x1="34.17" y1="101.24" x2="42.45" y2="104.49"/>
            </g>
            <path class="cls-24" d="M14.2,87.55c11.93-7.15,27.18-7.52,35.54,4.3.38.54.32,1.27-.11,1.76-6.5,7.59-10.34,15.39-9.54,23.9.07.77-.51,1.45-1.28,1.51-12.12.94-23.11-2.29-28.86-20.21l-1.26-4.7c-.49-1.83.34-3.75,2-4.65l3.51-1.92Z"/>
          </g>
          <g>
            <path class="cls-43" d="M73.38,86.91c2.97-11.79,9.53-21.17,28.35-20.92.76.01,1.38.62,1.38,1.38l.03,4.53c0,.85.77,1.49,1.6,1.36l4.72-.74c.73-.12,1.42.37,1.58,1.09,2.98,13.59-1.53,28.16-15.4,32.32-.62.19-1.28-.07-1.61-.62-5.12-8.6-11.31-14.74-19.64-16.7-.76-.18-1.21-.94-1.02-1.7Z"/>
            <g class="cls-34">
              <line class="cls-26" x1="91.72" y1="88.17" x2="86" y2="94.99"/>
            </g>
            <path class="cls-24" d="M73.38,86.91c2.97-11.79,9.53-21.17,28.35-20.92.76.01,1.38.62,1.38,1.38l.03,4.53c0,.85.77,1.49,1.6,1.36l4.72-.74c.73-.12,1.42.37,1.58,1.09,2.98,13.59-1.53,28.16-15.4,32.32-.62.19-1.28-.07-1.61-.62-5.12-8.6-11.31-14.74-19.64-16.7-.76-.18-1.21-.94-1.02-1.7Z"/>
          </g>
          <g>
            <path class="cls-43" d="M86.99,122.16c9.35,7.77,14.98,17.74,6.62,34.61-.34.68-1.15.98-1.84.65l-4.1-1.93c-.77-.36-1.68.05-1.92.86l-1.37,4.58c-.21.71-.94,1.12-1.67.95-13.54-3.18-24.73-13.55-22.49-27.85.1-.64.62-1.12,1.26-1.18,9.97-.91,18.18-3.83,23.54-10.5.49-.61,1.37-.69,1.97-.19Z"/>
            <g class="cls-54">
              <line class="cls-26" x1="77.92" y1="138.15" x2="74.25" y2="130.04"/>
            </g>
            <path class="cls-24" d="M86.99,122.16c9.35,7.77,14.98,17.74,6.62,34.61-.34.68-1.15.98-1.84.65l-4.1-1.93c-.77-.36-1.68.05-1.92.86l-1.37,4.58c-.21.71-.94,1.12-1.67.95-13.54-3.18-24.73-13.55-22.49-27.85.1-.64.62-1.12,1.26-1.18,9.97-.91,18.18-3.83,23.54-10.5.49-.61,1.37-.69,1.97-.19Z"/>
          </g>
          <g>
            <path class="cls-43" d="M92.91,96.7c11.45-4.08,22.9-3.83,33.14,11.96.41.64.25,1.49-.38,1.92l-3.75,2.55c-.7.48-.82,1.47-.24,2.09l3.24,3.52c.5.55.48,1.38-.03,1.92-9.64,10.02-24.27,14.36-35.43,5.14-.5-.41-.65-1.1-.38-1.69,4.3-9.04,5.98-17.59,2.98-25.6-.27-.73.11-1.53.84-1.79Z"/>
            <g class="cls-42">
              <line class="cls-26" x1="102.04" y1="112.66" x2="93.2" y2="111.69"/>
            </g>
            <path class="cls-24" d="M92.91,96.7c11.45-4.08,22.9-3.83,33.14,11.96.41.64.25,1.49-.38,1.92l-3.75,2.55c-.7.48-.82,1.47-.24,2.09l3.24,3.52c.5.55.48,1.38-.03,1.92-9.64,10.02-24.27,14.36-35.43,5.14-.5-.41-.65-1.1-.38-1.69,4.3-9.04,5.98-17.59,2.98-25.6-.27-.73.11-1.53.84-1.79Z"/>
          </g>
          <g>
            <path class="cls-43" d="M61.02,132.86c.07,12.15-3.95,22.88-22.23,27.33-.74.18-1.49-.25-1.68-.99l-1.16-4.38c-.22-.82-1.11-1.25-1.89-.92l-4.39,1.9c-.68.29-1.47,0-1.8-.66-6.28-12.41-5.54-27.65,6.85-35.14.55-.33,1.26-.25,1.72.2,7.11,7.05,14.63,11.45,23.18,11.27.78-.02,1.41.61,1.42,1.39Z"/>
            <g class="cls-44">
              <line class="cls-26" x1="42.95" y1="136.2" x2="46.78" y2="128.18"/>
            </g>
            <path class="cls-24" d="M61.02,132.86c.07,12.15-3.95,22.88-22.23,27.33-.74.18-1.49-.25-1.68-.99l-1.16-4.38c-.22-.82-1.11-1.25-1.89-.92l-4.39,1.9c-.68.29-1.47,0-1.8-.66-6.28-12.41-5.54-27.65,6.85-35.14.55-.33,1.26-.25,1.72.2,7.11,7.05,14.63,11.45,23.18,11.27.78-.02,1.41.61,1.42,1.39Z"/>
          </g>
          <g>
            <path class="cls-43" d="M32.09,104.92c-11.03-5.11-19.03-13.3-15.28-31.75.15-.75.86-1.24,1.61-1.1l4.46.81c.84.15,1.61-.48,1.64-1.32l.15-4.78c.02-.74.63-1.33,1.37-1.35,13.9-.4,27.38,6.74,28.89,21.14.07.64-.31,1.25-.91,1.47-9.4,3.44-16.59,8.37-20.06,16.19-.32.71-1.15,1.02-1.86.69Z"/>
            <g class="cls-49">
              <line class="cls-26" x1="36.75" y1="87.14" x2="42.38" y2="94.03"/>
            </g>
            <path class="cls-24" d="M32.09,104.92c-11.03-5.11-19.03-13.3-15.28-31.75.15-.75.86-1.24,1.61-1.1l4.46.81c.84.15,1.61-.48,1.64-1.32l.15-4.78c.02-.74.63-1.33,1.37-1.35,13.9-.4,27.38,6.74,28.89,21.14.07.64-.31,1.25-.91,1.47-9.4,3.44-16.59,8.37-20.06,16.19-.32.71-1.15,1.02-1.86.69Z"/>
          </g>
          <g>
            <path class="cls-43" d="M37.05,126.09c-10.54,6.05-21.85,7.84-34.74-5.88-.52-.55-.51-1.42.03-1.95l3.24-3.17c.61-.59.54-1.59-.13-2.1l-3.81-2.88c-.59-.45-.72-1.28-.31-1.89,7.71-11.58,21.33-18.45,33.95-11.35.56.32.84.97.67,1.59-2.63,9.66-2.76,18.37,1.62,25.72.4.67.16,1.53-.51,1.91Z"/>
            <g class="cls-58">
              <line class="cls-26" x1="25.23" y1="112.01" x2="34.1" y2="111.39"/>
            </g>
            <path class="cls-24" d="M37.05,126.09c-10.54,6.05-21.85,7.84-34.74-5.88-.52-.55-.51-1.42.03-1.95l3.24-3.17c.61-.59.54-1.59-.13-2.1l-3.81-2.88c-.59-.45-.72-1.28-.31-1.89,7.71-11.58,21.33-18.45,33.95-11.35.56.32.84.97.67,1.59-2.63,9.66-2.76,18.37,1.62,25.72.4.67.16,1.53-.51,1.91Z"/>
          </g>
          <g>
            <path class="cls-43" d="M50.2,87.46c-5.3-10.94-6.31-22.34,8.27-34.25.59-.48,1.45-.41,1.95.17l2.94,3.45c.55.65,1.55.65,2.1.01l3.14-3.61c.49-.56,1.32-.63,1.91-.18,11.02,8.49,16.93,22.55,8.98,34.65-.35.54-1.03.77-1.64.56-9.45-3.29-18.14-4.02-25.77-.16-.69.35-1.54.06-1.88-.64Z"/>
            <g class="cls-65">
              <line class="cls-26" x1="65.06" y1="76.64" x2="65.06" y2="85.54"/>
            </g>
            <path class="cls-24" d="M50.2,87.46c-5.3-10.94-6.31-22.34,8.27-34.25.59-.48,1.45-.41,1.95.17l2.94,3.45c.55.65,1.55.65,2.1.01l3.14-3.61c.49-.56,1.32-.63,1.91-.18,11.02,8.49,16.93,22.55,8.98,34.65-.35.54-1.03.77-1.64.56-9.45-3.29-18.14-4.02-25.77-.16-.69.35-1.54.06-1.88-.64Z"/>
          </g>
        </g>
        <g id="head">
          <g>
            <ellipse class="cls-48" cx="64.22" cy="110.48" rx="24.75" ry="33.39" transform="translate(-46.38 174.51) rotate(-89.9)"/>
            <g class="cls-59">
              <path class="cls-62" d="M102.17,117.48c-25.47,17.37-52.15,14.97-74.11.72,1.58,4.9,3.14,9.97,4.73,14.87.99,3.07,4.14,2.85,7.3,3.5,8.65,1.78,17.56,2.25,26.35,1.39,8.36-.82,15.55-6.26,23.36-9.33,3.28-1.28,6.76-2.73,8.7-5.66,1.15-1.74,3.94-3.44,3.66-5.5Z"/>
            </g>
            <ellipse class="cls-19" cx="64.22" cy="110.48" rx="24.75" ry="33.39" transform="translate(-46.38 174.51) rotate(-89.9)"/>
          </g>
          <ellipse cx="53.27" cy="98.14" rx="4.34" ry="3.49" transform="translate(-48.75 143.51) rotate(-85.48)"/>
          <ellipse cx="70.03" cy="98.04" rx="3.63" ry="4.51" transform="translate(-6.29 4.81) rotate(-3.77)"/>
          <g>
            <g>
              <path class="cls-50" d="M55.15,86.59c-.32-.04-1.27.14-1.14-.16,1.66-3.9,9.57-9.59,16.84-2.13,3.6,3.69,8.03,1.55,8.03,1.55,0,0-5.05,9.05-15.02,4.74-4.85-2.1-4.8-3.48-8.72-3.99Z"/>
              <g class="cls-35">
                <path class="cls-64" d="M79.83,86.15c.6.86.64,2.92.07,3.8-.57.89-1.47,1.43-2.37,1.85-5.05,2.39-10.76,1.99-16.21,1.32-1.2-.15-2.41-.31-3.53-.81s-2.15-1.39-2.63-2.64c-.26-.67-.36-1.44-.77-2.01s-1.33-.76-1.65-.13c1.69-2.73,4.72-2.87,7.39-2.21,2.3.57,4.47,1.71,6.74,2.41,4.31,1.33,8.81.29,12.96-1.59Z"/>
                <circle class="cls-36" cx="60.62" cy="83.83" r=".7"/>
                <path class="cls-20" d="M62.31,83.27c.86-.23,1.79-.14,2.6.23"/>
              </g>
              <path class="cls-22" d="M55.15,86.59c-.32-.04-1.27.14-1.14-.16,1.66-3.9,9.57-9.59,16.84-2.13,3.6,3.69,8.03,1.55,8.03,1.55,0,0-5.05,9.05-15.02,4.74-4.85-2.1-4.8-3.48-8.72-3.99Z"/>
            </g>
            <g>
              <path class="cls-50" d="M53.95,87.13c.09-.24.05-.64-.18-.74-1.75-.77-7.18-2.02-10.5,3.47-2.01,3.33-7.96,2.94-7.96,2.94,0,0,8.25,4.89,14.86-.66,3.22-2.7,3.32-3.75,3.77-5.02Z"/>
              <g class="cls-37">
                <path class="cls-64" d="M35.96,93.48c1.4.42,5.31-.11,7.87-.66,1.78-.38,3.31-.98,4.71-2.15s2.69-2.47,4.15-3.55c-.28,1.06-.47,2.16-.91,3.17s-1.03,1.96-1.83,2.71c-.82.77-1.85,1.3-2.93,1.64s-2.2.49-3.33.56c-1.14.07-2.28.07-3.42-.02-1.62-.12-3.16-.57-4.32-1.7Z"/>
                <path class="cls-16" d="M47.6,88.85c.29-.24.65-.42,1.02-.51"/>
              </g>
              <path class="cls-22" d="M53.95,87.13c.09-.24.05-.64-.18-.74-1.75-.77-7.18-2.02-10.5,3.47-2.01,3.33-7.96,2.94-7.96,2.94,0,0,8.25,4.89,14.86-.66,3.22-2.7,3.32-3.75,3.77-5.02Z"/>
            </g>
          </g>
          <path class="cls-25" d="M56.53,104.44s2.02,3.23,5.08.15c0,0,3.53,2.94,5.43-.38"/>
          <path class="cls-11" d="M83.49,104.81c-1.15-1.52-3.61-.84-3.65,1.28.03,3.18,4.27,3.53,6.2,1.53,1.19-1.16,1.44-2.95.99-4.52-.77-2.82-3.53-4.59-6.39-3.92-4.13.87-6.61,5.67-5.09,9.67,1.49,4.6,9.53,7.18,13.59,2.36"/>
          <path class="cls-11" d="M42.36,108.52c1.16-1.51,3.61-.83,3.64,1.29-.04,3.18-4.28,3.51-6.21,1.51-1.19-1.16-1.43-2.95-.97-4.52.78-2.82,3.54-4.58,6.4-3.9,4.13.88,6.59,5.7,5.05,9.69-1.5,4.59-9.55,7.14-13.6,2.31"/>
          <ellipse class="cls-45" cx="68.61" cy="96.76" rx=".94" ry=".64" transform="translate(-34.57 155.27) rotate(-84.22)"/>
          <ellipse class="cls-45" cx="51.9" cy="97.04" rx=".94" ry=".64" transform="translate(-52.22 132.68) rotate(-80.76)"/>
        </g>
      </g>
      <g id="legs">
        <g>
          <ellipse class="cls-47" cx="40.95" cy="154.47" rx="8.75" ry="11.61" transform="translate(-114.88 119.05) rotate(-62.34)"/>
          <g class="cls-32">
            <path class="cls-64" d="M53.2,159c-.88,2.07-1.78,4.19-3.3,5.86-1.76,1.94-4.24,3.15-6.81,3.63-2.57.49-5.24.29-7.8-.26-1.43-.3-2.88-.74-4-1.67-1.88-1.56-2.48-4.14-3.23-6.46-.5-1.54-1.12-3.03-1.68-4.55-.8-2.16-1.49-4.43-1.29-6.73.2-2.29,1.47-4.62,3.61-5.47,1.18,3.19,2.81,6.22,4.8,8.98.63.87,1.36,1.68,2.17,2.4,1.1.98,2.34,1.78,3.65,2.45,2.25,1.14,4.74,1.86,7.26,1.89s5.08-.64,7.16-2.07c-.29.71-.24,1.29-.54,1.99Z"/>
            <path class="cls-16" d="M39.15,147.34c1.38.14,2.72.55,3.94,1.2"/>
            <path class="cls-16" d="M44.64,149.52c.19.09.37.21.51.31"/>
          </g>
          <ellipse class="cls-6" cx="40.95" cy="154.47" rx="8.75" ry="11.61" transform="translate(-114.88 119.05) rotate(-62.34)"/>
        </g>
        <g>
          <ellipse class="cls-47" cx="85.01" cy="154.84" rx="11.61" ry="8.75" transform="translate(-62.84 58.18) rotate(-28.06)"/>
          <g class="cls-39">
            <path class="cls-64" d="M72.66,159.35c.87,2.08,1.77,4.2,3.27,5.88,1.75,1.95,4.23,3.16,6.8,3.66s5.24.31,7.8-.23c1.43-.3,2.88-.73,4.01-1.65,1.89-1.55,2.49-4.13,3.26-6.45.51-1.53,1.13-3.03,1.7-4.54.81-2.16,1.5-4.43,1.31-6.72-.19-2.29-1.46-4.63-3.59-5.49-1.2,3.19-2.83,6.21-4.83,8.96-.64.87-1.37,1.67-2.18,2.39-1.1.97-2.35,1.78-3.66,2.44-2.26,1.13-4.75,1.84-7.27,1.87s-5.08-.65-7.15-2.1c.29.71.24,1.29.53,2Z"/>
            <path class="cls-16" d="M86.75,147.74c-1.38.13-2.73.54-3.95,1.19"/>
            <path class="cls-16" d="M81.26,149.9c-.19.09-.37.21-.51.31"/>
          </g>
          <ellipse class="cls-6" cx="85.01" cy="154.84" rx="11.61" ry="8.75" transform="translate(-62.84 58.18) rotate(-28.06)"/>
        </g>
      </g>
      <g>
        <path class="cls-30" d="M79.79,3.38c-1.24-.06-2.48-.17-3.73-.31-7.27-.85-14.7.5-21.28,3.55-3.33,1.54-6.44,3.51-9.24,5.83-2.83,2.35-4.93,5.35-8.05,7.33-4.89,3.1-10.43,4.43-15.51,7.11-5.59,2.95-12.22,7.67-13.77,13.95-.36,1.47-.46,3.06.17,4.44.65,1.43,2.01,2.47,3.51,3.07,6.03,2.44,13.81,1.29,20.08.43,7.17-.98,14.21-2.68,21.18-4.55,8.08-2.17,16.1-4.58,24.28-6.38,3.78-.83,7.86-1.92,11.72-1.87,4.35.06,8.66-.22,13.03.1,3.84.29,7.69.81,11.53.56,3.62-.24,7.19-1.18,10.82-1.13,4.85.08,9.45,1.92,13.99,3.57,4.54,1.64,9.56,3.64,14.36,2.98,1.97-.27,3.75-1.44,5.16-2.8,1.16-1.13,1.84-2.65,2.22-4.19,1.29-5.26-.96-11.16-5.46-14.37-3.5-2.5-7.94-3.33-12.09-4.62-5.09-1.58-10.31-3.84-14.8-6.67-5.39-3.39-9.72-7.43-16.43-8.12-4.45-.46-8.95.17-13.37.86-6.09.94-12.18,1.56-18.31,1.25Z"/>
        <g class="cls-40">
          <g>
            <path class="cls-60" d="M74.31,10.45c-1.69-1.16-5.02-.86-6.64-.74-3.02.21-6.03.9-8.89,1.91-1.77.63-3.62,1.56-4.37,3.29-.98,2.26.49,5.04,2.68,6.15,5.08,2.58,12.26-1.12,16.05-4.55.72-.65,1.41-1.37,1.84-2.25s.56-1.95.17-2.84c-.18-.4-.47-.72-.83-.97Z"/>
            <path class="cls-60" d="M45.37,21.41c.15.43.43.79.78,1.08.45.37,1.02.61,1.6.7,1.03.16,2.08-.1,3.06-.48,2.26-.87.82-3.19-.58-4.18-2.09-1.48-5.95-.24-4.86,2.88Z"/>
            <path class="cls-60" d="M104.38,11.46c.3.56.64,1.01.97,1.33.43.42.86.64,1.21.64.63,0,1.05-.56,1.37-1.28.75-1.65-1.21-4.55-2.48-5.64-1.87-1.61-3.28.88-1.08,4.94Z"/>
            <path class="cls-60" d="M111.51,11.47c-.03.43,0,.81.1,1.12.12.41.33.71.58.86.45.27,1.01.15,1.57-.08,1.28-.55,1.18-2.93.76-4.05-.62-1.66-2.76-.95-3.01,2.15Z"/>
            <path class="cls-60" d="M120.45,19.54c-.1.23-.15.46-.15.65,0,.25.06.47.17.6.21.25.55.29.92.27.84-.05,1.23-1.41,1.2-2.13-.05-1.06-1.41-1.1-2.14.6Z"/>
            <path class="cls-60" d="M49.4,37.4c1.46-.28,2.72-.41,3.75-.41,1.32,0,2.25.21,2.66.57.73.64.09,1.69-.96,2.78-2.42,2.53-10.4,3.59-14,3.45-5.34-.22-2.02-4.32,8.54-6.38Z"/>
            <path class="cls-60" d="M74.99,29.49c2.12-.46,3.96-.73,5.43-.84,1.9-.14,3.21,0,3.76.36.99.63.18,2.36-1.63,3.38-4.4,2.47-16.06,5.82-21.01,6.62-7.55,1.22-1.93-6.18,13.45-9.52Z"/>
            <path class="cls-55" d="M135.39,15.39c-.78-.51-1.49-1.08-2.22-1.7-2.1-1.78-7.16-3.52-8.25.34-.39,1.4-.46,3,.24,4.32,1.04,1.95,3.48,2.71,5.49,3.18,2.31.54,4.71.64,7.07.52,1.03-.05,2.33-.48,2.6-1.6.17-.72-.08-1.5-.53-2.09-.92-1.21-2.44-1.79-3.71-2.54-.24-.14-.47-.28-.69-.43Z"/>
            <rect class="cls-55" x="149.24" y="32.92" width="2.05" height="4.95" rx="1.02" ry="1.02" transform="translate(44.28 147.64) rotate(-59.9)"/>
            <rect class="cls-55" x="147.04" y="35.18" width="2.17" height="3.73" rx="1.02" ry="1.02" transform="translate(32.56 136.83) rotate(-54.85)"/>
            <path class="cls-7" d="M113.75,27.27s32.18-11.41,45.35,10.04"/>
            <path class="cls-7" d="M114.39,22.08c2.62-7.74,8.28-14.41,15.5-18.25"/>
            <path class="cls-7" d="M57.02,4.13l11.15.54"/>
            <path class="cls-7" d="M72.37,5.18c4.99.58,10.02,1.17,14.83,2.57,4.82,1.4,9.47,3.67,12.94,7.2"/>
            <path class="cls-7" d="M102.92,17.57c3.14,2.21,5.51,5.44,6.64,9.06"/>
            <path class="cls-7" d="M99.92,9.31c.3.87.6,1.75.91,2.62"/>
            <path class="cls-7" d="M88.29,12.92l3.07.86"/>
            <path class="cls-7" d="M78.45,20.32l2.28.25"/>
            <path class="cls-7" d="M10.88,43.82c4.04.5,8.15.32,12.15-.4,9.37-1.69,17.91-6.26,26.5-10.36,6.28-3,12.69-5.78,19.42-7.54,8.02-2.1,16.43-2.71,24.67-1.79,3.95.44,7.99,1.28,11.24,3.57"/>
            <path class="cls-57" d="M70.62,24c-7.77,1.95-15.78,2.59-23.71,1.9-2.67-.23-5.51-.58-7.9.83-.55.32-1.12.9-1.01,1.6.12.74.9,1.01,1.54,1.12,8.64,1.51,17.59.68,25.91-2.39"/>
          </g>
          <g>
            <ellipse class="cls-21" cx="104.67" cy="35.07" rx="13.38" ry="17.47" transform="translate(69.42 139.68) rotate(-89.9)"/>
            <path class="cls-15" d="M86.37,36.23s.82-10.59,10.5-13.24"/>
            <path class="cls-15" d="M112.2,23.25s9.89,3.79,9.62,14.32"/>
            <path class="cls-15" d="M100.8,21.91s4.44-.82,7.74.11"/>
            <path class="cls-13" d="M95.32,27.83c1.56-1.37,3.66-2.16,5.71-2.45"/>
            <path class="cls-13" d="M92.97,29.67l-.41.35"/>
          </g>
          <g>
            <g>
              <ellipse class="cls-17" cx="46.5" cy="33.14" rx="3.27" ry="4.01" transform="translate(13.28 79.59) rotate(-89.9)"/>
              <path class="cls-13" d="M46.73,32.14c-.17.06-.3.08-.3.08"/>
            </g>
            <g>
              <path class="cls-3" d="M37.81,34.43c-.23-.12-.46-.2-.68-.26-1.05-.26-2.16-.11-3.23.04-1.32.19-2.64.38-3.96.56-1.22.17-2.43.42-3.53,1.01-1.11.6-2.08,1.61-2.41,2.85-.29,1.08,0,2.34.85,3.07.72.62,1.72.78,2.67.83,2.73.14,5.5-.47,7.91-1.75.88-.47,1.71-1.03,2.42-1.73.63-.63,1.37-1.45,1.52-2.36.16-.99-.67-1.84-1.55-2.28Z"/>
              <path class="cls-13" d="M26.81,39.83s.02.01.02.01"/>
              <path class="cls-23" d="M28.38,37.73c.59-.24,1.19-.38,1.77-.42"/>
            </g>
          </g>
        </g>
        <path class="cls-6" d="M79.79,3.38c-1.24-.06-2.48-.17-3.73-.31-7.27-.85-14.7.5-21.28,3.55-3.33,1.54-6.44,3.51-9.24,5.83-2.83,2.35-4.93,5.35-8.05,7.33-4.89,3.1-10.43,4.43-15.51,7.11-5.59,2.95-12.22,7.67-13.77,13.95-.36,1.47-.46,3.06.17,4.44.65,1.43,2.01,2.47,3.51,3.07,6.03,2.44,13.81,1.29,20.08.43,7.17-.98,14.21-2.68,21.18-4.55,8.08-2.17,16.1-4.58,24.28-6.38,3.78-.83,7.86-1.92,11.72-1.87,4.35.06,8.66-.22,13.03.1,3.84.29,7.69.81,11.53.56,3.62-.24,7.19-1.18,10.82-1.13,4.85.08,9.45,1.92,13.99,3.57,4.54,1.64,9.56,3.64,14.36,2.98,1.97-.27,3.75-1.44,5.16-2.8,1.16-1.13,1.84-2.65,2.22-4.19,1.29-5.26-.96-11.16-5.46-14.37-3.5-2.5-7.94-3.33-12.09-4.62-5.09-1.58-10.31-3.84-14.8-6.67-5.39-3.39-9.72-7.43-16.43-8.12-4.45-.46-8.95.17-13.37.86-6.09.94-12.18,1.56-18.31,1.25Z"/>
      </g>
      <g>
        <path class="cls-41" d="M31.95,48.79c-.4.09,70.62-8.4,77.14,24.35,7.63,30.2-.76,86.74-.84,87.28-.34,2.15.16,3.58,1.7,4.12,2.9.72,4.82-.45,5.09-3.03.09-8.95.52-17.9,1-26.84.46-8.67.95-17.34,1.17-26.02.22-8.93.29-17.83-.85-26.71-.65-5.03-2.4-9.8-3.49-14.73-2.01-8.27,1.09-10.8,6.51-14.98,5.84-4.5,18.27-7.75,34.34-10.32-7.4.54-15.19-4.67-26-6.19-7.71-.62-12.18.05-17.02.93-1.92.34-5.64.18-7.2-.37-4.85-1.3-10.05-1.46-16.19-.91-9.84.77-18.09,2.58-25.11,5.17-17.35,8.31-13.26.64-30.24,8.24Z"/>
        <g class="cls-66">
          <path class="cls-61" d="M82.32,56.83c-3.86-1.53-7.73-3.06-11.59-4.59-.76-.3-1.53-.61-2.17-1.12s-1.13-1.26-1.14-2.08c-.03-6.23,15.72-1.27,18.67-.41,1.38.4,4.3,1.31,4.91-.79.23-.81-.02-1.66-.14-2.49s-.08-1.8.56-2.34c1.63-1.37,3.21.96,3.71,2.26.45,1.19.83,2.53,1.89,3.24,1.76,1.17,3.83-.09,4.89-1.57.7-.97,1.21-2.08,1.98-2.99.78-.91,1.94-1.63,3.12-1.43,3.42.57.75,4.91.57,6.65-.13,1.25.32,2.65,1.4,3.29.87.52,2,.45,2.94.07,3.25-1.32,5.83-3.52,9.35-4.38,3.32-.82,11.69-2.12,12.24,2.99.17,1.6-.83,3.07-1.68,4.44-4.86,7.83-6.11,17.42-5.76,26.64.35,9.22,2.16,18.31,2.92,27.5,1.02,12.27,2.03,24.55,3.05,36.82.36,4.35.72,8.73.33,13.08-.24,2.68-.77,5.34-1.57,7.91-1.61,5.19-4.53,10.22-9.17,13.05-3.92,2.39-8.63,3-13.19,3.55-2.35.28-5.3.27-6.38-1.83-1.73-3.35-2.48-7.12-3.03-10.86-1-6.72-1.46-13.51-2.19-20.27-2.75-25.21-9.49-49.98-19.85-73.13-2.97-6.63-6.23-13.13-9.78-19.47-.96-1.71-2.34-2.67-.3-3.53,1.55-.66,3.7-.67,5.36-.67,3.49,0,6.99.84,10.07,2.48Z"/>
          <path class="cls-61" d="M65.18,47.79c-1.52-2.66-5.05-3.97-7.93-2.94-1.18.42-2.35,1.39-2.33,2.64.02.95.74,1.77,1.6,2.15s1.85.38,2.79.27c1.91-.23,3.76-.9,5.86-2.12Z"/>
          <path class="cls-61" d="M91.21,37.27c-.98-.78-2.7-.17-2.97,1.06-.27,1.23,1.18,2.68,2.43,2.29s1.56-2.54.54-3.34Z"/>
          <path class="cls-61" d="M112.84,41.25c-1.5,1.26-5.32.82-3.17-1.65.65-.75,1.69-1.37,2.68-1.11,1.3.33,1.52,1.9.5,2.76Z"/>
          <path class="cls-61" d="M130.78,46.01c-.26-.76.18-1.63.87-2.16.09-.07.19-.14.29-.2.64-.4,1.42-.62,2.19-.76.91-.16,1.86-.24,2.74,0,2.14.56.87,2.36-.38,3.22-1.42.97-4.97,2.07-5.71-.09Z"/>
        </g>
        <path class="cls-12" d="M31.95,48.79c-.4.09,70.62-8.4,77.14,24.35,7.63,30.2-.76,86.74-.84,87.28-.34,2.15.16,3.58,1.7,4.12,2.9.72,4.82-.45,5.09-3.03.09-8.95.52-17.9,1-26.84.46-8.67.95-17.34,1.17-26.02.22-8.93.29-17.83-.85-26.71-.65-5.03-2.4-9.8-3.49-14.73-2.01-8.27,1.09-10.8,6.51-14.98,5.84-4.5,18.27-7.75,34.34-10.32-7.4.54-15.19-4.67-26-6.19-7.71-.62-12.18.05-17.02.93-1.92.34-5.64.18-7.2-.37-4.85-1.3-10.05-1.46-16.19-.91-9.84.77-18.09,2.58-25.11,5.17-17.35,8.31-13.26.64-30.24,8.24Z"/>
      </g>
      <g>
        <path class="cls-1" d="M123.41,129.04c0,3.16-1.91,5.72-4.26,5.71s-4.98-2.31-4.16-5.36,2.15-6.17,4.18-6.08c2.35.1,4.25,2.57,4.24,5.73Z"/>
        <g class="cls-46">
          <path class="cls-62" d="M119.4,123.34c1.79,3.65,1.85,8.11.16,11.81-.18.39-.37.77-.47,1.19s-.09.87.13,1.24c.13.22.33.4.54.54,1.08.72,2.63.62,3.61-.23.66-.57,1.03-1.4,1.33-2.22.72-1.94,1.2-4.01,1.11-6.08s-.78-4.16-2.16-5.71c-.63-.71-1.41-1.3-2.3-1.61s-1.92-.29-2.76.15c0-.16-.02-.32-.03-.49-.43.16-.64.74-.44,1.15s.89.49,1.28.26Z"/>
        </g>
        <path class="cls-6" d="M123.41,129.04c0,3.16-1.91,5.72-4.26,5.71s-4.98-2.31-4.16-5.36,2.15-6.17,4.18-6.08c2.35.1,4.25,2.57,4.24,5.73Z"/>
      </g>
    </g>
  </g>
</svg>