<?xml version="1.0" encoding="UTF-8"?>
<svg id="Layer_2" data-name="Layer 2" xmlns="http://www.w3.org/2000/svg" viewBox="0 0 213.18 89.22">
  <defs>
    <style>
      .cls-1 {
        fill: #ffa3b0;
      }
    </style>
  </defs>
  <g id="Proof_Content" data-name="Proof Content">
    <g>
      <path class="cls-1" d="M61.54,30.61c-2.13.16-4.06.37-5.99,1.13-1.48.56-2.69,1.92-3.45,3.33-1.12,2.28-1.64,4.93-1.92,7.45-.24,2.32-.36,4.65-.24,6.97.12,1.96.44,3.97,1.12,5.81.52,1.44,1.32,2.89,2.44,3.89,1.72,1.56,4.21,2.36,6.49,2.56,3.13.28,37.97-.04,41.02-.72,1.12-.24,2.24-.56,3.29-1.08.44-.2.84-.56,1.12-.96.36-.48.52-1.08.64-1.68.2-1.36-.08-2.85-.6-4.13-.32-.76-.72-1.64-1.48-2-.85-.4-1.85-.47-2.77-.39-4.8.41-9.61,1.34-14.39,1.98-4.77.64-9.6,1.26-14.35,1.79-3.68.41-8.48,1.18-11.41-1.72-.24-.23-2.24-3.55-1.78-3.63,1.28-.2,2.56-.4,3.85-.48.76-.08,2.77.04,3.21-.56.52-.68.68-2.69.44-3.49-.2-.64-.84-1.16-1.48-1.36-1.08-.36-4.37.12-6.33.52.08-1.16.28-2.24.68-2.81.24-.36.64-.64,1.04-.8.68-.28,1.44-.4,2.16-.4,2.4,0,2.51.16,3.2-.4.84-.68,1.32-1.76,1.6-2.77.36-1.28.56-4.33-.28-5.33-.32-.44-.88-.68-1.4-.8-1.04-.24-4.42.07-4.42.07ZM104.15,53.27c-.16.44-.64.56-.8.12-.24-.72,1.04-.8.8-.12ZM97.05,53.75c.4-.08,2.48-.8,2.89-.88.56-.12,1.16-.04,1.72-.04.2.04.48,0,.64.12.28.24,0,.64-.32.72-.24.08-1.72.08-1.96.16-.64.2-1.32.32-2,.48-.32.04-.64.2-.96.08-.56.16-.56-.56,0-.64ZM60.88,44.53c.12-.08.76-.24.92-.28.36-.04.72,0,1.04,0l.96.2c.2.24-.12.56-.44.56-.16,0-1.2-.04-1.36-.04-.28,0-.52.12-.76.2-.44.04-.72-.4-.36-.64ZM63.52,32.91c-.2.16-.52.16-.76.12-.4-.08-2.28.24-2.69.28-.52.04-1.08-.04-1.48-.36-.28-.16-1-.12-1.32-.08-.36.08-.56-.32-.24-.52.44-.36,1.08-.36,1.68-.44.36,0,.68.2,1.04.28.24.04.48,0,.72-.04.64-.16,1.32,0,2,.04.12,0,.44.08.52,0,.24-.2.64-.2.68.12,0,.2,0,.44-.16.6ZM65.96,32.91c-.04.12-.04.2-.12.28-.2.28-.64.24-.64-.08-.04-.04,0-.2,0-.24.12-.48.88-.4.76.04Z"/>
      <path class="cls-1" d="M95.23,17.92c1.92,1.72,4.31,1.23,6.64,1.48,2.57.27,5.12-.16,7.72-.17.51,0,1.03,0,1.54.02.24,0,1.15-.09,1.32.06,0,0-.04.37-.05.88-.27,8.77-.77,17.48-1.8,26.2-.16,1.18-.83,7.37-.81,8.62.02,1.11.15,2.37.75,3.21,1.33,1.6,6.03,2.13,7.88,1.97,1.38-.1,2.84-.42,4.23-.96,1.23-.48,2.63-1.17,3.42-2.47,2.08-3.55,1.91-17.09,1.94-21.45.18-5.19-.36-10.44-.63-15.61,3.66,0,7.32.08,10.98.11,2.35.02,5.13.35,7.44-.23,1.16-.33,2.28-1.1,2.96-2.34.92-1.6,1.22-3.66,1.4-5.57.12-1.77.13-3.69-.39-5.41-.31-1.05-.91-1.95-1.58-2.57-1-1-2.25-1.48-3.51-1.82-.86-.18-5.66-1.23-6.46-1.33-4.18-.66-18.03-.62-22.24-.39-3.52.17-12.96.07-16.5.77-1.69.3-5.25.84-6.21,2.39-.67,1.07-.5,3.39-.53,4.62-.04,1.73.08,3.47.35,5.18.29,1.76.8,3.61,2.14,4.8ZM144.79,6.9c.06-.15.31-.58.37-.65.54-.57,1.21.04.78.69-.06.15-.18.29-.24.43-.42.58-1.22.18-.9-.47ZM130.82,3.25c.41-.28.92-.12,1.39-.25,1.11-.33,2.26-.51,3.34-.11.4.09.86.18,1.26.19.63.1,1.33-.03,1.96,0,.17,0,1.14.33,1.31.41.4.09,2.34.52,2.74.76.34.23.43.75.42,1.12.03.74-.84,1.08-1.11.41-.63-.17-3.53-1.01-4.17-.96-.11,0-.87.27-1.05.33-.29.06-1.5.1-1.78.01-.12,0-.68-.17-.8-.18-1.03-.11-2.07-.14-3.1-.33-.29,0-.57-.09-.73-.39-.16-.38.03-.81.32-1.02Z"/>
      <path class="cls-1" d="M29.55,21.66s-.03.37-.02.89c.03,8.78-.18,17.5-.9,26.25-.12,1.18-.58,7.39-.52,8.65.06,1.11.23,2.36.86,3.18,1.38,1.55,6.1,1.92,7.94,1.7,1.38-.15,2.82-.52,4.2-1.11,1.21-.52,2.59-1.26,3.34-2.59,1.96-3.62,1.32-17.14,1.21-21.51,0-5.19-.72-10.42-1.16-15.58,3.66-.13,7.32-.17,10.98-.26,2.35-.06,5.14.18,7.42-.49,1.15-.37,2.24-1.18,2.88-2.44.86-1.63,1.09-3.7,1.21-5.62.06-1.77,0-3.7-.58-5.4-.34-1.03-.98-1.92-1.67-2.51-1.04-.96-2.3-1.4-3.57-1.7-.86-.15-5.7-1.03-6.5-1.11-4.2-.52-18.04,0-22.24.37-3.51.3-12.95.52-16.46,1.33-1.38.3-5.47,1.48-6.39,2.81-1.13,1.64-.8,4.43-.69,6.29.15,2.43-.03,5.06,1.02,7.32.65,1.42,1.95,2.55,3.58,2.56,2.15.01,4.33-.19,6.47-.39,2.26-.21,4.48-.56,6.73-.64.51-.02,1.03-.03,1.54-.03.24,0,1.15-.13,1.32.02ZM61.45,8.15c.06-.15.29-.59.34-.67.52-.59,1.21,0,.81.67-.06.15-.17.3-.23.44-.4.59-1.21.22-.92-.44ZM47.36,4.97c.4-.3.92-.15,1.38-.3,1.09-.37,2.24-.59,3.34-.22.4.07.86.15,1.27.15.63.07,1.32-.07,1.96-.07.17,0,1.15.3,1.32.37.4.07,2.36.44,2.76.67.34.22.46.74.46,1.11.06.74-.81,1.11-1.09.44-.63-.15-3.57-.89-4.2-.81-.12,0-.86.3-1.04.37-.29.07-1.5.15-1.78.07-.12,0-.69-.15-.81-.15-1.04-.07-2.07-.07-3.11-.22-.29,0-.58-.07-.75-.37-.17-.37,0-.81.29-1.04Z"/>
      <path class="cls-1" d="M143.64,38.19c-.14-3.45-4.06-4.11-7.08-2.94-.73.29-1.46.76-1.85,1.47-.67,1.23-1.01,2.66-1.24,4.1-.32,2.15-.33,4.31-.43,6.46-.09,3.59.92,9.58,1.46,10.65.29.58.69,1.12,1.18,1.47.67.43,1.46.6,2.25.7.94.1,1.89.05,2.84-.08.68-.1,1.41-.27,2.02-.67.46-.33.85-.77,1.05-1.3.36-.86.42-1.84.41-2.79,0-1.44-.48-4.65-.58-6.54-.06-1.97-.13-3.94-.12-5.91,0-1.51.11-3.06.08-4.62ZM141.89,41.81c-.38.18-.68-.24-.29-.5.23-.15.61-.25.72.06.07.23-.2.34-.43.44ZM141.71,39.69s-.07-.23-.11-.27c-.07-.08-.15-.12-.18-.19-.11-.15-.35-1.26-.46-1.45-.07-.12-.44-.39-.56-.47-.07-.04-.38-.09-.45-.09-.34-.05-.68-.13-.94-.29-.26-.12-.52-.24-.79-.17-.34.03-.69.25-1.06.16-.53-.09-.32-.73.24-.71.5-.21.99-.32,1.52-.3.19,0,.94.25,1.13.29.11.04.79.17.9.25.22.12.82.63.93.86.18.35.52,1.75.59,2.13.03.38-.58.59-.76.25Z"/>
      <path class="cls-1" d="M144.44,27.17c-.01-.31-.06-.62-.14-.92-.31-1.15-1.27-2.25-2.43-2.62-1.5-.49-2.98-.72-4.49-.08-.82.35-1.54.91-2.09,1.62-.27.34-.5.72-.67,1.12-.17.39-.16.86-.25,1.28-.17.84-.12,1.73.16,2.54.27.79.74,1.5,1.36,2.05.6.54,1.51.73,2.3.81.94.1,1.89.05,2.84-.08.68-.1,1.41-.27,2.02-.67.46-.33.85-.77,1.05-1.3.36-.86.36-2.2.33-3.75ZM142.61,30.18c-.38.18-.68-.24-.29-.5.23-.15.61-.25.72.06.07.23-.2.34-.43.44ZM142.43,28.05s-.07-.23-.11-.27c-.07-.08-.15-.12-.18-.19-.11-.15-.35-1.26-.46-1.45-.07-.12-.44-.39-.56-.47-.07-.04-.38-.09-.45-.09-.34-.05-.68-.13-.94-.29-.26-.12-.52-.24-.79-.17-.34.03-.69.25-1.06.16-.53-.09-.32-.73.24-.71.5-.21.99-.32,1.52-.3.19,0,.94.25,1.13.29.11.04.79.17.9.25.22.12.82.63.93.86.18.35.52,1.75.59,2.13.03.38-.58.59-.76.25Z"/>
      <path class="cls-1" d="M148.73,47.37c-.08,2.08-.04,4.13,0,6.21,0,.32.04.64.04.96.04,1.68-.52,3.73.88,5.01,1,.96,4.49,1.24,5.89,1.12,1.93-.24,3.34-1.41,3.89-3.33.46-1.6.23-3.32-.18-4.94-.15-.57-1.56-4.34-.88-4.51.51-.13,2.11,2.48,2.44,2.91,1.33,1.74,2.6,3.53,3.99,5.22.88,1.12,1.84,2.24,3.01,3.01,1.88,1.28,5.61,1.88,7.41.48.64-.52,1.08-1.32,1.36-2.12.48-1.16.64-2.44.84-3.73.2-1.56.6-10.3.64-11.86.12-2.68.24-25.27.08-27.95-.08-1.12-.28-2.4-1.12-3.13-.44-.36-1.04-.48-1.64-.64-3.37-.9-7.45.91-8.79,4.18-.83,2.02-.75,4.32-.27,6.45s1.31,4.17,1.97,6.25c1.28,4.06,1.88,8.34,1.76,12.6-.05,1.68-.15,4.99-1.65,6.15-1.34,1.03-2.46-1.64-3.27-2.71-1.4-1.84-2.81-3.73-4.37-5.41-1.08-1.16-2.24-2.32-3.65-3.09-.96-.52-2.04-.84-3.09-1-.84-.12-1.76-.2-2.56.04-.52.16-.92.52-1.2.96-.48.88-.6,1.92-.72,2.93-.44,3.29-.72,6.61-.8,9.94ZM177.07,15.04c.12.4-.52.68-.72.32,0-.04-.08-.2-.08-.24-.12-.56,1.04-.64.8-.08ZM171.98,11.12c.24,0,1.4-.28,1.64-.24.68.08,1.28.56,1.96.84.4.16.72.52,1,.84.12.2.32.6.24.8-.08.32-.64.44-.84.16-.16-.28-.28-.6-.56-.76-.4-.32-.96-.36-1.48-.56-.2-.08-1.12-.36-1.36-.36s-.84.04-1-.16c-.16-.24.12-.52.4-.56ZM160.43,41.48c.08-.36.36-.68.72-.52.32.08.32.4.04.56-.2.48-.92.44-.76-.04ZM153.22,34.78c1.52.08,2.97.96,4.13,1.92.12.08.6.52.72.6.24.16.52.28.72.52.28.24.48.6.72.88.12.12.56.44.56.6,0,.32-.32.52-.64.4-.12-.04-.56-.44-.64-.52-.12-.12-.56-.76-.68-.84-.24-.24-.6-.36-.88-.56-.28-.2-1.24-1-1.6-1-.96-.12-1.72-.88-2.65-1.12-.36-.12-.84-.12-.76-.48.12-.36.68-.4,1-.4Z"/>
      <path class="cls-1" d="M183.53,51.43c-.65.49-1.38.87-1.98,1.41-1.66,1.51-1.9,4.33-.52,6.1,1,1.28,2.74,1.88,4.33,1.64,1.6-.24,3.58-.55,5.01-1.34,1.44-.79,2.55-2.08,3.36-4.07,1.89-4.68,3.94-9.31,6.92-13.43,1.36-1.88,2.85-3.69,4.45-5.37.72-.72,1.56-1.36,2-2.28.28-.56.32-1.32.08-1.88-.4-1.08-1.08-2.04-1.8-2.89-.56-.68-1.24-1.32-2.04-1.56-.68-.24-1.48-.12-2.12.16-1.48.68-2.69,1.88-3.69,3.17-1.52,1.84-2.69,3.97-3.97,6.01-.08.08-.12.2-.24.32-.36-1-1.12-2.69-1.28-3.09-.36-.88-2.24-5.89-2.69-6.73-.24-.48-.6-.88-1.04-1.12-1.49-.77-3.96.11-5.38.69-2.02.82-2.83,2.99-2.5,5.08.27,1.75,1.22,3.31,2.24,4.75,1.02,1.44,2.16,2.83,2.89,4.43.76,1.67,1.06,3.57.74,5.38-.32,1.81-1.3,3.51-2.76,4.62ZM205.93,32.01c.24.24-.08.6-.44.64-.36.04-.52-.36-.2-.6.2-.12.48-.2.64-.04ZM201.04,29.2c.4-.24.88-.4,1.32-.28.64.16,1.24.44,1.68.88.24.2,1.12.84,1.24,1.16.08.36-.4.52-.76.4-.2-.08-.32-.28-.48-.44-.12-.12-.28-.2-.44-.24-.12-.08-.2-.16-.28-.24-.4-.28-.96-.12-1.4-.32-.04,0-.2-.12-.24-.12-.72-.04-1.84.68-1.8-.04.04-.36.8-.6,1.16-.76ZM187.93,29.44c.36-.52,1.04-.08.68.4-.32.48-1,.04-.68-.4ZM185.49,28.92c-.4.24-.92.28-1.36.28-.56.04-1.72.88-2.08.48-.2-.28.12-.6.44-.76.16-.12,1.08-.48,1.28-.56.44-.08.92-.08,1.28-.32.6-.36,1.48-.52,2.04-.16.2.12.48.08.6.24.2.32-.08.72-.44.64h-.36s-.36-.08-.4-.08c-.2,0-.84.16-1,.24Z"/>
      <path class="cls-1" d="M72.96,44.37c-.16.8-.24,1.64,0,2.44.24.8.88,1.6,1.6,1.88.68.24,1.44.16,2.16.08,2.4-.44,4.69-1.64,6.93-2.73,1.68-.8,3.33-1.72,4.93-2.65.92.4,7.21,4.49,8.14,4.85.88.32,1.84.56,2.77.6.6,0,1.24-.08,1.8-.36.44-.24.72-.72.84-1.24.04-.36.04-.76.04-1.16-.24-2.61-2.12-6.77-3.05-9.22l-4.13-11.3c-.76-1.72-1.56-3.49-2.65-5.01-.64-.88-1.36-1.72-2.16-2.36-.48-.4-1-.72-1.56-.84-.56-.08-1.2.16-1.72.52-1.04.72-1.88,1.72-2.68,2.73-1.36,1.72-2.44,3.69-3.45,5.65l-4.89,9.58c-1.24,2.73-2.44,5.53-2.93,8.54ZM93.28,26.82c-.4.32-.88-.2-.48-.6.48-.48,1.04.16.48.6ZM89.11,19.16c.12.12.92.68,1.04.8.12.16.64,1.04.76,1.16.64.52.96,1.28,1.32,2,.2.36.28.76.48,1.12.16.2.04.52-.2.64-.68.4-1.12-.52-1.36-1.2-.04-.12-.32-.56-.36-.64-.12-.28-.12-.6-.28-.84-.12-.2-.28-.44-.44-.6-.16-.12-.52-.96-.6-1.12-.12-.2-1.08-.76-1.12-1-.08-.36.52-.64.76-.32ZM85.02,31.72c.46-1.49,1.07-2.97,2.13-4.14.2-.22.43-.44.7-.55.69-.28,1.31.36,1.65.88.38.58.75,1.21.98,1.86.22.63.61,1.21.76,1.87.13.6.05,1.29-.38,1.74-.25.27-.6.42-.95.54-1.23.41-3.56.86-4.7.03-.3-.22-.44-.45-.5-.7-.1-.47.14-.99.3-1.52Z"/>
      <path class="cls-1" d="M69.97,30.84c.43.46,1.24,1.09,1.77,1.43.47.3.9.63,1.33.97.8.64,1.99.38,2.45-.54l2.7-5.3c.57-1.11-.28-2.42-1.52-2.36-1.64.08-3.28.17-4.89.53-.68.16-1.4.4-1.96.88-.68.6-1.2,1.68-1,2.56.14.75.66,1.33,1.12,1.82ZM76.17,26.1c.16.03.44.12.51.26.13.25-.14.29-.33.33-.09.02-.2.06-.29.07-.28.02-.28-.11-.4-.38.16-.21.26-.32.5-.28ZM71.45,26.8c.29-.11.59-.19.88-.28.34-.11.61-.32.97-.3.36.02.69.09,1.05.07.4-.02.86.04.99.5-.23.14-.59.13-.84.18-.29.06-.57.17-.86.25-.34.09-.67.12-1.02.09-.19-.01-.25-.02-.43.04-.47.15-.61.2-1.17.05,0-.39.12-.48.44-.61Z"/>
      <path class="cls-1" d="M104.03,25.34c-1.08-.4-2.28-.52-3.45-.64-.22-.02-.43-.04-.65-.05-1.62-.13-2.82,1.46-2.27,2.99l1.99,5.46c.47,1.29,2.13,1.67,3.09.68.29-.29.57-.59.84-.9.76-.88,1.52-1.84,2.08-2.89.28-.6.56-1.28.52-1.96,0-.48-.2-1-.44-1.4-.44-.6-1.04-1.04-1.72-1.28ZM102.97,27.04c-.3-.04-.6-.04-.9-.07-.35-.03-.67-.12-.99-.27-.17-.08-.23-.1-.42-.11-.49-.02-.64-.03-1.12-.36.14-.36.28-.41.63-.41.31,0,.62.03.92.04.36.02.68-.09,1.02.06.33.15.62.32.96.43.38.12.79.34.75.82-.26.05-.6-.09-.85-.13ZM104.69,27.62c-.09-.02-.21-.03-.29-.06-.27-.1-.21-.21-.2-.51.23-.12.37-.18.58-.04.13.09.34.29.36.45.02.28-.25.2-.43.16Z"/>
      <path class="cls-1" d="M70.93,16.29l1.89.85c.17.08.31.23.36.41l.72,2.41c.19.63,1.08.62,1.26,0l.65-2.26c.05-.18.18-.33.34-.41l1.94-.95c.5-.24.49-.95,0-1.18l-1.99-.94c-.17-.08-.3-.23-.35-.41l-.64-2.13c-.18-.61-1.03-.63-1.25-.04l-.83,2.26c-.06.16-.18.3-.34.37l-1.78.83c-.51.24-.51.97,0,1.2Z"/>
      <path class="cls-1" d="M185.5,14.3l2.28,1.02c.21.09.37.28.44.5l.87,2.9c.23.76,1.3.75,1.52,0l.78-2.72c.06-.22.21-.4.41-.49l2.34-1.14c.6-.29.59-1.14,0-1.43l-2.4-1.14c-.2-.1-.36-.27-.42-.49l-.77-2.57c-.22-.73-1.24-.76-1.5-.04l-.99,2.73c-.07.2-.22.36-.41.45l-2.15,1c-.62.29-.61,1.16,0,1.44Z"/>
      <path class="cls-1" d="M20.18,49.4l-5.32-2.52c-.45-.21-.79-.61-.93-1.08l-1.7-5.69c-.48-1.62-2.75-1.69-3.33-.1l-2.2,6.04c-.16.44-.49.79-.91.99l-4.76,2.21c-1.37.63-1.35,2.58.02,3.2l5.06,2.26c.47.21.82.61.97,1.1l1.92,6.44c.5,1.68,2.89,1.67,3.37-.02l1.72-6.04c.14-.48.47-.88.92-1.1l5.19-2.53c1.32-.65,1.31-2.54-.02-3.17Z"/>
      <path class="cls-1" d="M212.49,61.59l-3.68-1.74c-.31-.15-.55-.42-.64-.75l-1.18-3.94c-.34-1.12-1.9-1.17-2.31-.07l-1.53,4.18c-.11.3-.34.55-.63.69l-3.29,1.53c-.95.44-.94,1.79.02,2.21l3.5,1.57c.32.14.57.42.67.76l1.33,4.45c.35,1.16,2,1.15,2.33-.01l1.19-4.18c.09-.33.33-.61.64-.76l3.59-1.75c.92-.45.91-1.75-.01-2.19Z"/>
      <path class="cls-1" d="M159.88,79.29c-.08,0-.15.02-.23.06-.08.04-.15.09-.21.17l-.02-.02c-.14.16-.24.37-.32.62-.07.25-.11.53-.11.81,0,.37.07.68.22.92.15.24.33.36.54.36.16,0,.3-.06.43-.17.12-.11.23-.25.33-.41.09-.16.16-.33.21-.49.05-.17.08-.31.08-.42,0-.51-.09-.88-.27-1.1s-.39-.34-.64-.34Z"/>
      <path class="cls-1" d="M85.66,79.29c-.07,0-.15.02-.23.06-.08.04-.15.09-.21.17l-.02-.02c-.14.16-.24.37-.32.62-.07.25-.11.53-.11.81,0,.37.07.68.22.92.15.24.33.36.54.36.16,0,.3-.06.43-.17.12-.11.23-.25.33-.41.09-.16.16-.33.21-.49.05-.17.07-.31.07-.42,0-.51-.09-.88-.27-1.1s-.39-.34-.64-.34Z"/>
      <path class="cls-1" d="M115.96,79.91c.09-.04.19-.08.31-.13.12-.05.23-.11.33-.18s.2-.15.27-.23c.08-.09.11-.19.11-.3,0-.16-.05-.28-.14-.35s-.2-.11-.31-.11c-.24,0-.45.1-.65.31s-.3.43-.3.68c0,.19.12.29.37.32Z"/>
      <path class="cls-1" d="M64.7,79.13c-.12,0-.25.03-.37.09-.12.06-.24.14-.35.22l.06-.07c-.25.25-.44.53-.58.84-.14.31-.2.66-.2,1.04,0,.2.06.4.17.59.11.19.31.29.6.29.2,0,.38-.08.56-.23.17-.16.32-.34.44-.56.12-.22.21-.45.28-.69.07-.24.1-.45.1-.62,0-.32-.06-.55-.18-.69-.12-.14-.29-.21-.51-.21Z"/>
      <path class="cls-1" d="M192.29,68.75H30.87c-2.03,0-3.68,1.65-3.68,3.68v13.09c0,2.03,1.65,3.68,3.68,3.68h161.42c2.03,0,3.68-1.65,3.68-3.68v-13.09c0-2.03-1.65-3.68-3.68-3.68ZM49.96,83.67c-.18.22-.44.45-.79.7-.29.17-.6.34-.94.48-.34.15-.69.28-1.04.4-.35.12-.71.21-1.07.27-.36.06-.71.08-1.04.06-.43-.03-.84-.12-1.22-.3-.38-.17-.72-.4-1.01-.69-.3-.29-.55-.62-.75-1.02-.2-.39-.34-.82-.42-1.3-.03-.26-.05-.52-.07-.78-.02-.26-.04-.52-.06-.78,0-1.34.26-2.56.78-3.65.52-1.09,1.36-2,2.51-2.75.4-.27.8-.48,1.22-.61.42-.13.85-.21,1.31-.25.42-.02.79.03,1.1.17.31.14.57.33.77.57.2.24.36.52.46.84.1.32.15.64.15.96,0,.21-.02.42-.06.62v-.02c-.02.1-.05.2-.08.29-.03.09-.06.19-.1.29-.1.25-.24.44-.43.58-.19.14-.39.21-.61.21-.15,0-.29-.02-.44-.07s-.27-.12-.38-.22l-.07-.07h.02c-.37-.5-.73-.75-1.08-.75-.21,0-.42.1-.62.29-.2.19-.39.43-.55.72-.22.35-.41.71-.57,1.09-.16.38-.23.78-.23,1.2,0,.15,0,.3.03.46s.05.31.1.46c.12.35.31.63.56.85.25.22.51.33.8.33.35,0,.7-.12,1.06-.37l.26-.19c.11-.09.22-.17.33-.25.11-.08.24-.15.37-.21.35-.2.64-.3.89-.3.46,0,.79.35,1,1.04.12.39.19.72.19.99s-.09.52-.27.74ZM59.1,84.3c-.09.18-.22.33-.38.45-.16.12-.34.21-.54.27-.2.06-.4.09-.6.09-.27,0-.51-.06-.72-.17s-.38-.26-.52-.44-.25-.37-.32-.58c-.07-.21-.1-.4-.1-.59,0-.29.03-.57.1-.86,0-.04,0-.08.02-.13.01-.05.02-.09.02-.13.03-.17.05-.34.08-.49.03-.16.04-.3.04-.44,0-.09,0-.18,0-.29,0-.11-.03-.2-.06-.29-.03-.09-.07-.16-.11-.22s-.1-.09-.18-.09c-.15,0-.29.11-.43.34-.14.22-.25.45-.34.67-.1.21-.17.44-.21.69-.04.25-.07.49-.09.73,0,.05,0,.1,0,.14s0,.09,0,.14c-.02.29-.05.56-.08.81-.03.25-.1.48-.2.68-.1.2-.24.36-.43.48-.19.12-.44.18-.77.18-.25,0-.48-.05-.69-.14-.21-.09-.4-.21-.55-.36-.16-.15-.28-.32-.36-.51-.09-.19-.13-.39-.13-.59,0-.15.02-.28.06-.39.01-.29.02-.59.04-.91.01-.32.03-.62.06-.9.02-.43.05-.91.07-1.43.02-.52.04-.99.04-1.43,0-.65-.02-1.28-.06-1.9l-.06-1.03c0-.34.02-.64.06-.9.04-.27.12-.5.25-.69.13-.19.31-.34.55-.44.24-.1.56-.15.97-.15.46,0,.82.14,1.1.42.27.28.41.63.41,1.05,0,.25-.01.53-.04.85s-.06.62-.09.9c0,.04,0,.09-.02.16-.01.07-.02.13-.02.18-.02.2-.05.39-.07.56-.02.17-.03.35-.03.54l.39-.47c.22-.29.47-.54.75-.76s.64-.34,1.1-.34c.3,0,.58.06.83.2.25.13.48.31.68.55.2.24.35.52.47.85.11.33.17.69.17,1.09,0,.19,0,.39-.02.6-.01.21-.03.42-.06.63-.02.24-.04.46-.06.68-.01.22-.02.43-.02.64s.02.44.05.67c.03.24.08.47.14.69v.04s0,.04.02.06c.04.15.06.29.06.41,0,.24-.05.44-.14.62ZM68.1,84.59c-.25.26-.58.39-.99.39-.38,0-.68-.1-.88-.29s-.39-.38-.57-.57c-.31.29-.66.53-1.06.73-.4.2-.77.3-1.13.3-.47,0-.89-.11-1.26-.33-.37-.22-.69-.5-.94-.85-.25-.35-.45-.74-.58-1.18-.13-.44-.2-.88-.2-1.31,0-.52.08-1.08.25-1.67s.41-1.13.73-1.62.71-.9,1.17-1.23c.46-.33.99-.49,1.58-.49.67,0,1.23.29,1.67.88.14-.21.27-.36.39-.46.12-.09.28-.14.48-.14.45,0,.82.12,1.12.37.3.25.45.55.45.91,0,.45-.03.86-.08,1.24-.06.38-.08.79-.08,1.22,0,.4.02.78.05,1.16.03.37.08.75.16,1.12.06.29.09.53.09.75,0,.46-.12.82-.37,1.08ZM80.42,85.06c-.21.21-.51.32-.91.34-.67,0-1.15-.17-1.43-.52-.29-.35-.43-.93-.43-1.75v-1.01c0-.06,0-.12,0-.19,0-.06,0-.12,0-.19v-.21c.01-.17,0-.36-.02-.56-.02-.2-.12-.32-.3-.35-.14,0-.24.06-.33.18s-.15.27-.2.45c-.05.18-.08.38-.1.61-.02.22-.03.44-.03.63v1.06c0,.06,0,.12,0,.17,0,.05,0,.11,0,.17,0,.21-.02.41-.07.6s-.12.35-.22.48-.24.25-.42.34c-.17.09-.4.13-.67.13-.47-.02-.84-.15-1.1-.37-.26-.22-.39-.57-.39-1.04,0-.19,0-.38.02-.59s.03-.41.06-.61c.02-.2.04-.39.06-.58.01-.19.02-.37.02-.56s-.03-.37-.08-.55c-.06-.18-.15-.28-.27-.31-.21.1-.37.29-.48.57-.11.28-.17.54-.17.79,0,.17,0,.35.02.52.01.17.03.35.06.52.04.34.06.65.06.93,0,.4-.11.71-.33.94s-.52.35-.9.35-.69-.08-.95-.23-.47-.36-.62-.62c-.16-.25-.27-.54-.34-.87-.07-.32-.11-.66-.11-1.01v-.54c0-.19,0-.37.02-.56.01-.16.02-.35.03-.56,0-.21,0-.4,0-.58,0-.19,0-.37-.02-.55-.01-.18-.03-.36-.06-.55-.02-.17-.04-.35-.06-.52-.01-.17-.02-.36-.02-.56,0-.76.42-1.17,1.25-1.25.48,0,.88.1,1.2.29s.5.54.57,1.05c.02-.02.04-.04.05-.06,0-.01.02-.03.03-.06.2-.29.4-.53.61-.75s.51-.32.91-.32c.37,0,.71.11,1.02.32.31.21.53.5.67.88v.06l.04-.07.09-.17.17-.26c.21-.29.47-.51.78-.66.31-.16.64-.23,1-.23.43,0,.81.12,1.12.34.31.23.56.53.75.89.19.36.33.77.42,1.22.09.45.13.9.13,1.35,0,.06,0,.12,0,.19,0,.06,0,.12,0,.19v1.29c0,.11,0,.23.02.35,0,.21.03.44.09.69,0,.1,0,.18.02.24.01.06.02.13.03.21,0,.07,0,.14,0,.21,0,.34-.11.61-.32.81ZM89.12,82.33c-.18.56-.44,1.06-.77,1.5-.33.44-.74.8-1.21,1.07-.47.27-.99.41-1.56.41-.53,0-1.02-.12-1.45-.34-.43-.23-.81-.53-1.12-.91-.31-.38-.55-.81-.73-1.3-.17-.48-.26-.98-.26-1.49s.07-1.05.21-1.62c.14-.57.36-1.1.66-1.58s.68-.87,1.14-1.18,1.02-.47,1.66-.47c.52,0,1,.11,1.45.34.45.22.83.53,1.16.91.33.39.59.83.78,1.33s.29,1.04.29,1.61-.09,1.16-.27,1.72ZM101.32,85.06c-.21.21-.51.32-.91.34-.67,0-1.15-.17-1.43-.52-.29-.35-.43-.93-.43-1.75v-1.01c0-.06,0-.12,0-.19,0-.06,0-.12,0-.19v-.21c.01-.17,0-.36-.02-.56-.03-.2-.12-.32-.3-.35-.14,0-.25.06-.33.18-.08.12-.15.27-.2.45s-.08.38-.1.61c-.02.22-.03.44-.03.63v1.06c0,.06,0,.12,0,.17,0,.05,0,.11,0,.17,0,.21-.02.41-.07.6-.04.19-.12.35-.22.48-.11.14-.25.25-.42.34s-.4.13-.67.13c-.47-.02-.84-.15-1.1-.37-.26-.22-.39-.57-.39-1.04,0-.19,0-.38.02-.59s.03-.41.06-.61c.02-.2.04-.39.06-.58.01-.19.02-.37.02-.56s-.03-.37-.08-.55c-.06-.18-.15-.28-.27-.31-.21.1-.37.29-.48.57-.11.28-.17.54-.17.79,0,.17,0,.35.02.52.01.17.03.35.06.52.04.34.06.65.06.93,0,.4-.11.71-.33.94s-.52.35-.9.35-.69-.08-.95-.23-.47-.36-.62-.62c-.16-.25-.27-.54-.34-.87-.07-.32-.11-.66-.11-1.01v-.54c0-.19,0-.37.02-.56.01-.16.02-.35.03-.56,0-.21,0-.4,0-.58,0-.19,0-.37-.02-.55-.01-.18-.03-.36-.06-.55-.02-.17-.04-.35-.06-.52-.01-.17-.02-.36-.02-.56,0-.76.42-1.17,1.25-1.25.48,0,.88.1,1.2.29s.5.54.57,1.05c.02-.02.04-.04.05-.06,0-.01.02-.03.03-.06.2-.29.4-.53.61-.75s.51-.32.91-.32c.37,0,.71.11,1.02.32s.53.5.67.88v.06l.04-.07.09-.17.17-.26c.21-.29.47-.51.78-.66.31-.16.64-.23,1-.23.43,0,.81.12,1.12.34.31.23.56.53.75.89.19.36.33.77.42,1.22.09.45.13.9.13,1.35,0,.06,0,.12,0,.19,0,.06,0,.12,0,.19v1.29c0,.11,0,.23.02.35,0,.21.03.44.09.69,0,.1,0,.18.02.24.01.06.02.13.03.21,0,.07,0,.14,0,.21,0,.34-.11.61-.32.81ZM106.03,84.65c-.24.25-.56.43-.96.51h-.04c-.07.02-.16.04-.24.04-.4,0-.76-.12-1.08-.36-.32-.24-.53-.57-.63-.98v.02c-.06-.17-.1-.37-.12-.6s-.03-.46-.03-.71,0-.5.03-.76c.02-.25.04-.5.07-.74,0-.05,0-.11.02-.18.01-.07.02-.13.02-.18.02-.17.04-.34.06-.5.01-.16.02-.32.04-.48.02-.35.17-.63.43-.86s.58-.35.95-.37c.22,0,.44.02.65.06.21.04.4.11.57.21.17.1.3.23.4.39.1.16.15.37.15.62,0,.17,0,.35,0,.53,0,.18-.02.37-.03.57-.01.16-.02.31-.03.46,0,.14,0,.3,0,.46,0,.14,0,.27.02.39.01.12.03.25.06.37.01.02.02.06.02.11v.11c.02.15.04.31.06.48.01.17.02.32.02.46,0,.37-.12.69-.36.94ZM106.33,76.71c-.1.21-.23.39-.4.55-.17.16-.35.29-.56.38-.2.09-.41.14-.62.14s-.39-.02-.54-.07c-.33-.09-.61-.28-.82-.58-.21-.3-.32-.65-.32-1.04,0-.63.15-1.12.44-1.45.29-.34.7-.5,1.24-.5.22,0,.44.05.65.16s.4.25.56.42c.16.17.29.38.38.62.09.24.14.49.14.76,0,.21-.05.42-.15.62ZM111.2,84.92c-.31.25-.74.43-1.28.53-.4,0-.74-.11-1.02-.32s-.5-.51-.63-.9c-.12-.31-.22-.66-.28-1.06-.06-.4-.11-.81-.14-1.24-.03-.43-.05-.86-.06-1.3,0-.44,0-.86,0-1.27l.06-1.27c0-.14,0-.27.02-.41.01-.14.02-.27.02-.41.01-.27.02-.55.03-.84,0-.29.02-.57.05-.86.01-.2.05-.39.1-.58s.15-.35.27-.49c.12-.14.29-.26.5-.34s.48-.13.8-.13c.16,0,.33.03.51.09.18.06.35.15.5.27s.28.27.38.47c.1.19.15.42.15.68,0,.32-.02.64-.05.95-.03.31-.07.65-.12,1.01-.05.39-.09.78-.13,1.17s-.06.8-.06,1.19.02.76.06,1.13.09.73.15,1.09c.02.11.06.23.11.35.05.12.11.24.17.35-.01-.02,0-.02.02.03.03.04.04.08.06.1,0,.01,0,.02,0,.03,0,0,0,.02,0,.03.05.1.11.24.18.41.07.17.1.32.1.43,0,.47-.16.84-.46,1.09ZM119.16,83.94c-.24.3-.51.54-.84.73-.32.19-.66.32-1.01.41-.35.09-.65.13-.88.13-.52,0-.99-.06-1.4-.17-.42-.11-.8-.32-1.14-.63l-.02.02c-.56-.44-.95-.96-1.16-1.58-.22-.62-.33-1.27-.33-1.94,0-.52.1-1.07.29-1.65.19-.58.47-1.11.84-1.58.37-.48.81-.87,1.33-1.18s1.11-.47,1.77-.47c.81,0,1.44.26,1.92.78.47.52.71,1.22.71,2.11,0,.44-.09.83-.27,1.19-.18.36-.42.67-.72.93-.3.26-.64.47-1.02.62-.38.15-.78.23-1.19.24h-.26c-.16,0-.24.02-.24.07,0,.17.09.33.26.47.17.14.37.21.58.21.12,0,.28-.04.46-.12.18-.08.36-.17.53-.27.05-.02.1-.05.14-.06.04-.02.09-.04.14-.07l.17-.13c.09-.06.19-.13.32-.2s.25-.1.39-.1c.31,0,.56.13.74.38.19.25.28.52.28.79,0,.42-.12.78-.35,1.08ZM133.53,76.15c-.11.21-.24.36-.4.47-.16.11-.34.18-.54.21-.2.04-.39.06-.58.07-.33.02-.68.05-1.03.08-.35.02-.68.09-.97.19-.29.1-.53.26-.72.48-.19.22-.28.54-.28.97v.19l.04.04c.41-.04.79-.09,1.15-.16s.72-.1,1.08-.1c.21,0,.39.05.53.16.14.1.26.23.34.38.09.15.15.3.19.46s.06.3.06.43c0,.26-.08.48-.24.68-.16.19-.38.35-.65.47s-.59.22-.96.28c-.37.06-.75.09-1.16.09s-.63.17-.63.5c0,.45.05.92.16,1.42.11.5.16.96.16,1.4,0,.36-.17.61-.5.76-.33.14-.74.21-1.23.21-.73,0-1.24-.28-1.52-.85s-.43-1.43-.43-2.6c0-.71.06-1.42.17-2.14.11-.72.27-1.44.46-2.14.02-.07.04-.15.06-.21s.02-.13.02-.2c0-.25-.11-.48-.32-.69-.17-.17-.3-.37-.37-.58s-.11-.44-.11-.67c0-.4.08-.72.23-.97.15-.25.41-.41.77-.48.92-.19,1.86-.36,2.82-.53.96-.17,1.88-.25,2.76-.25.56.02,1,.21,1.32.55.32.34.48.76.48,1.26,0,.36-.05.64-.16.85ZM138.38,84.92c-.31.25-.74.43-1.28.53-.4,0-.74-.11-1.02-.32s-.5-.51-.63-.9c-.12-.31-.22-.66-.28-1.06-.06-.4-.11-.81-.14-1.24-.03-.43-.05-.86-.06-1.3,0-.44,0-.86,0-1.27l.06-1.27c0-.14,0-.27.02-.41.01-.14.02-.27.02-.41.01-.27.02-.55.03-.84,0-.29.02-.57.05-.86.01-.2.05-.39.1-.58s.15-.35.27-.49c.12-.14.29-.26.5-.34s.48-.13.8-.13c.16,0,.33.03.51.09.18.06.35.15.5.27s.28.27.38.47c.1.19.15.42.15.68,0,.32-.02.64-.05.95-.03.31-.07.65-.12,1.01-.05.39-.09.78-.13,1.17s-.06.8-.06,1.19.02.76.06,1.13.09.73.15,1.09c.02.11.06.23.11.35.05.12.11.24.17.35-.01-.02,0-.02.02.03.03.04.04.08.06.1,0,.01,0,.02,0,.03,0,0,0,.02,0,.03.05.1.11.24.18.41.07.17.1.32.1.43,0,.47-.16.84-.46,1.09ZM147.16,84.59c-.25.26-.58.39-.99.39-.38,0-.68-.1-.88-.29-.21-.19-.39-.38-.57-.57-.31.29-.66.53-1.06.73s-.78.3-1.13.3c-.47,0-.89-.11-1.26-.33s-.68-.5-.94-.85c-.25-.35-.45-.74-.58-1.18-.13-.44-.19-.88-.19-1.31,0-.52.08-1.08.25-1.67.17-.59.41-1.13.73-1.62.32-.49.71-.9,1.17-1.23.46-.33.99-.49,1.58-.49.67,0,1.23.29,1.67.88.14-.21.27-.36.39-.46s.29-.14.48-.14c.45,0,.82.12,1.12.37.3.25.45.55.45.91,0,.45-.03.86-.08,1.24-.06.38-.08.79-.08,1.22,0,.4.02.78.05,1.16.03.37.08.75.16,1.12.06.29.09.53.09.75,0,.46-.12.82-.37,1.08ZM155.02,80.56c-.22.82-.46,1.6-.72,2.35l-.22.65c-.07.21-.18.43-.31.65s-.28.43-.46.61-.37.33-.58.44c-.22.11-.44.17-.68.17-.32,0-.6-.07-.84-.21-.24-.14-.44-.32-.62-.54s-.33-.47-.45-.75c-.12-.27-.21-.55-.29-.84l-.07-.37c-.14-.67-.29-1.41-.45-2.21-.16-.8-.33-1.54-.5-2.21,0-.34.04-.6.11-.8s.18-.35.32-.47c.14-.11.3-.19.49-.22s.4-.06.62-.06c.31,0,.56.08.75.23s.34.35.45.58.18.48.23.76.09.54.13.79v.07s0,.02,0,.04c0,.01,0,.03,0,.04l.08.91.04.62c.01.17.02.33.03.47s.02.25.05.35c.19-.67.37-1.35.55-2.04.18-.69.33-1.38.46-2.08.05-.29.17-.49.35-.62.19-.12.37-.19.54-.19.12,0,.24.01.33.04.1.03.19.05.28.07.47.29.71.7.71,1.25,0,.85-.11,1.68-.33,2.5ZM163.35,82.33c-.18.56-.44,1.06-.77,1.5-.33.44-.74.8-1.21,1.07-.47.27-.99.41-1.56.41-.53,0-1.02-.12-1.45-.34-.43-.23-.81-.53-1.12-.91-.31-.38-.55-.81-.73-1.3-.17-.48-.26-.98-.26-1.49s.07-1.05.21-1.62c.14-.57.36-1.1.66-1.58.3-.48.68-.87,1.14-1.18s1.02-.47,1.67-.47c.52,0,1,.11,1.45.34.45.22.83.53,1.16.91.33.39.59.83.78,1.33.19.5.29,1.04.29,1.61s-.09,1.16-.27,1.72ZM172.63,84.29c-.06.17-.16.33-.28.47s-.27.25-.44.34c-.17.09-.36.13-.58.13-.43,0-.78-.13-1.04-.39-.26-.26-.4-.58-.41-.95l-.09.19s-.05.1-.08.14c-.03.04-.07.09-.1.14-.26.32-.59.57-.98.75-.39.17-.77.26-1.12.26-.62,0-1.1-.16-1.45-.48-.35-.32-.6-.73-.77-1.22-.17-.49-.27-1.03-.31-1.6-.04-.58-.06-1.12-.06-1.63,0-.56.02-1.09.06-1.6v-.13c0-.06,0-.11.02-.13,0-.04,0-.09,0-.15,0-.06,0-.11,0-.13.02-.44.16-.76.4-.98.24-.22.56-.33.96-.33.19,0,.37.03.54.09.17.06.33.16.46.28.14.12.24.27.33.45.08.17.12.37.12.6,0,.1,0,.19,0,.27,0,.08,0,.17,0,.27v.52c-.01.2-.02.4-.02.59v.59c0,.47.08.82.24,1.04.16.22.33.34.5.34.16,0,.32-.07.46-.22.35-.32.56-.71.64-1.17.08-.46.12-.93.12-1.4v-.76c0-.37.1-.68.3-.92s.59-.36,1.17-.36c.4,0,.73.13,1,.38.27.25.41.68.41,1.28l-.06.63c0,.06,0,.14-.02.22-.01.09-.02.16-.02.22-.02.3-.05.6-.06.9s-.03.59-.03.88c0,.17.02.34.05.5.03.16.06.33.1.5.04.17.07.35.09.53.02.18.04.36.04.55s-.03.37-.09.54ZM180.41,79.38c-.06.23-.15.44-.26.63-.11.19-.25.35-.41.48-.16.12-.34.19-.54.19-.14,0-.26-.03-.36-.09-.11-.06-.21-.14-.33-.24-.1-.09-.2-.16-.3-.22-.1-.06-.21-.09-.32-.09s-.21.05-.29.15c-.08.1-.15.22-.21.36-.06.14-.1.29-.12.45-.03.16-.04.3-.04.42,0,.17,0,.36,0,.55,0,.19.02.39.03.59.01.21.02.42.03.62,0,.2,0,.39,0,.58,0,.52-.13.94-.39,1.25s-.63.47-1.1.47c-.32,0-.59-.05-.79-.15-.2-.1-.37-.24-.48-.42-.12-.18-.2-.4-.24-.65-.04-.25-.07-.53-.07-.83v-.64c0-.22,0-.43.02-.64s.02-.42.03-.63c0-.21,0-.43,0-.65,0-.21-.01-.41-.04-.61-.02-.19-.06-.39-.09-.61-.04-.22-.07-.45-.1-.67-.03-.22-.05-.48-.05-.76,0-.37.12-.68.35-.92.24-.24.55-.36.93-.36s.74.1,1.03.29.5.46.64.81c.17-.24.38-.46.63-.66s.6-.31,1.06-.31c.32,0,.65.07.98.22.33.15.57.4.72.75.04.1.07.21.09.33.02.12.04.25.04.4,0,.21-.03.43-.09.66Z"/>
      <path class="cls-1" d="M143.76,79.13c-.12,0-.25.03-.37.09-.12.06-.24.14-.35.22l.06-.07c-.25.25-.44.53-.58.84-.14.31-.2.66-.2,1.04,0,.2.06.4.17.59.11.19.31.29.59.29.2,0,.38-.08.56-.23.17-.16.32-.34.44-.56.12-.22.21-.45.28-.69.07-.24.1-.45.1-.62,0-.32-.06-.55-.18-.69-.12-.14-.29-.21-.51-.21Z"/>
    </g>
  </g>
</svg>