<?xml version="1.0" encoding="UTF-8"?>
<svg id="Layer_2" data-name="Layer 2" xmlns="http://www.w3.org/2000/svg" xmlns:xlink="http://www.w3.org/1999/xlink" viewBox="0 0 158.25 165.97">
  <defs>
    <style>
      .cls-1, .cls-2 {
        fill: #ffe0cc;
      }

      .cls-3, .cls-4, .cls-5, .cls-6, .cls-7, .cls-8, .cls-9, .cls-10, .cls-11, .cls-12, .cls-13, .cls-14, .cls-15, .cls-16, .cls-2, .cls-17 {
        stroke: #000;
      }

      .cls-3, .cls-4, .cls-5, .cls-6, .cls-18, .cls-19, .cls-8, .cls-9, .cls-10, .cls-20, .cls-21, .cls-22, .cls-11, .cls-14, .cls-2, .cls-17 {
        stroke-miterlimit: 10;
      }

      .cls-3, .cls-4, .cls-7, .cls-15, .cls-16 {
        stroke-width: 2.61px;
      }

      .cls-3, .cls-23 {
        fill: #fedcc4;
      }

      .cls-24, .cls-14 {
        fill: #6b8441;
      }

      .cls-25 {
        fill: #623c38;
      }

      .cls-4, .cls-7, .cls-18, .cls-19, .cls-21, .cls-11, .cls-12, .cls-26, .cls-27, .cls-28, .cls-16, .cls-29 {
        fill: none;
      }

      .cls-30 {
        clip-path: url(#clippath-4);
      }

      .cls-5 {
        fill: #feffff;
      }

      .cls-5, .cls-6, .cls-18, .cls-19, .cls-21, .cls-12, .cls-13, .cls-26, .cls-27, .cls-28, .cls-16, .cls-29 {
        stroke-linecap: round;
      }

      .cls-5, .cls-6, .cls-19, .cls-8, .cls-9, .cls-10, .cls-20, .cls-11, .cls-12, .cls-13, .cls-14, .cls-26, .cls-27, .cls-28, .cls-2, .cls-17 {
        stroke-width: 2.24px;
      }

      .cls-6, .cls-31 {
        fill: #fff;
      }

      .cls-7, .cls-12, .cls-13, .cls-26, .cls-15, .cls-27, .cls-28, .cls-16, .cls-29 {
        stroke-linejoin: round;
      }

      .cls-18 {
        stroke-width: 1.12px;
      }

      .cls-18, .cls-21 {
        stroke: #623c38;
      }

      .cls-19 {
        stroke: #f5b1ab;
      }

      .cls-32 {
        clip-path: url(#clippath-9);
      }

      .cls-33 {
        clip-path: url(#clippath-10);
      }

      .cls-8 {
        fill: #276433;
      }

      .cls-34, .cls-13 {
        fill: #4e6624;
      }

      .cls-9 {
        fill: #f3c3a9;
      }

      .cls-35, .cls-10 {
        fill: #3f221f;
      }

      .cls-36 {
        clip-path: url(#clippath-11);
      }

      .cls-37, .cls-15 {
        fill: #3e221f;
      }

      .cls-38 {
        clip-path: url(#clippath-1);
      }

      .cls-39 {
        clip-path: url(#clippath-5);
      }

      .cls-20, .cls-22, .cls-28 {
        stroke: #69afd7;
      }

      .cls-20, .cls-22, .cls-40 {
        fill: #a5e0ff;
      }

      .cls-41 {
        clip-path: url(#clippath-8);
      }

      .cls-21 {
        stroke-width: 1.3px;
      }

      .cls-42 {
        fill: #79914f;
      }

      .cls-43 {
        fill: #5a742a;
      }

      .cls-22, .cls-29 {
        stroke-width: 2.05px;
      }

      .cls-44 {
        clip-path: url(#clippath-12);
      }

      .cls-45 {
        fill: #829b58;
      }

      .cls-46, .cls-17 {
        fill: #ffe1cd;
      }

      .cls-47 {
        fill: #6b863a;
      }

      .cls-48 {
        fill: #eec0a6;
      }

      .cls-26, .cls-29 {
        stroke: #c9ebff;
      }

      .cls-27 {
        stroke: #5a742a;
      }

      .cls-49 {
        fill: #2f1a17;
      }

      .cls-50 {
        clip-path: url(#clippath);
      }
    </style>
    <clipPath id="clippath">
      <path class="cls-17" d="M28.62,138l-4.84,2.45c-.67.38-3.14,2.08-3.93,2.87-1.18,1.18-3.41,5.03.44,6.98,4.21,2.12,7.91-2.21,7.91-2.21l3.71-3.74c.53-.5.72-1.25.51-1.94l-1.04-3.33c-.24-.76-.92-1.29-1.72-1.33h0c-.36-.02-.72.07-1.04.25Z"/>
    </clipPath>
    <clipPath id="clippath-1">
      <ellipse class="cls-3" cx="60.68" cy="110.55" rx="24.76" ry="33.41" transform="translate(-49.97 171.03) rotate(-89.9)"/>
    </clipPath>
    <clipPath id="clippath-4">
      <path class="cls-15" d="M51.61,86.64c-.32-.04-1.27.14-1.14-.16,1.67-3.91,9.58-9.6,16.85-2.13,3.6,3.69,8.03,1.55,8.03,1.55,0,0-5.05,9.06-15.03,4.74-4.86-2.1-4.8-3.49-8.72-4Z"/>
    </clipPath>
    <clipPath id="clippath-5">
      <path class="cls-15" d="M50.41,87.18c.09-.24.05-.64-.18-.74-1.75-.77-7.19-2.02-10.5,3.48-2.01,3.34-7.97,2.94-7.97,2.94,0,0,8.26,4.89,14.87-.66,3.22-2.7,3.32-3.76,3.77-5.02Z"/>
    </clipPath>
    <clipPath id="clippath-8">
      <ellipse class="cls-10" cx="37.4" cy="154.57" rx="8.75" ry="11.62" transform="translate(-116.86 115.95) rotate(-62.34)"/>
    </clipPath>
    <clipPath id="clippath-9">
      <ellipse class="cls-10" cx="81.48" cy="154.93" rx="11.62" ry="8.75" transform="translate(-63.3 56.54) rotate(-28.06)"/>
    </clipPath>
    <clipPath id="clippath-10">
      <path class="cls-14" d="M76.26,3.38c-1.24-.06-2.48-.17-3.73-.31-7.27-.85-14.71.5-21.29,3.55-3.33,1.54-6.44,3.51-9.24,5.83s-4.93,5.35-8.06,7.33c-4.89,3.1-10.44,4.43-15.52,7.11-5.6,2.95-12.23,7.68-13.78,13.96-.36,1.47-.46,3.06.17,4.44.65,1.43,2.02,2.47,3.51,3.07,6.04,2.44,13.82,1.29,20.1.43,7.17-.98,14.22-2.68,21.19-4.55,8.09-2.17,16.11-4.58,24.29-6.39,3.78-.83,7.86-1.92,11.73-1.87,4.35.06,8.67-.22,13.03.1,3.84.29,7.69.81,11.54.56,3.63-.24,7.2-1.18,10.83-1.13,4.85.08,9.45,1.92,13.99,3.57s9.56,3.64,14.36,2.98c1.97-.27,3.76-1.44,5.16-2.8,1.16-1.13,1.84-2.65,2.22-4.2,1.29-5.26-.96-11.16-5.46-14.38-3.51-2.5-7.95-3.33-12.1-4.62-5.09-1.58-10.32-3.85-14.8-6.67-5.39-3.4-9.73-7.43-16.44-8.12-4.46-.46-8.95.17-13.38.86-6.09.94-12.18,1.56-18.32,1.25Z"/>
    </clipPath>
    <clipPath id="clippath-11">
      <path class="cls-13" d="M28.4,48.82c-.4.09,70.66-8.4,77.18,24.36,7.63,30.21-.76,86.79-.84,87.34-.34,2.15.16,3.58,1.7,4.12,2.9.72,4.82-.45,5.09-3.03.09-8.96.52-17.91,1-26.85.46-8.68.95-17.35,1.17-26.04.22-8.93.29-17.84-.85-26.73-.65-5.04-2.4-9.8-3.49-14.74-2.01-8.27,1.09-10.81,6.52-14.98,5.84-4.5,18.28-7.76,34.36-10.32-7.4.54-15.2-4.67-26.02-6.2-7.72-.62-12.19.05-17.03.93-1.92.34-5.64.18-7.2-.37-4.85-1.3-10.06-1.46-16.2-.91-9.85.77-18.1,2.58-25.12,5.17-17.36,8.32-13.27.64-30.26,8.24Z"/>
    </clipPath>
    <clipPath id="clippath-12">
      <path class="cls-2" d="M119.9,129.12c0,3.16-1.92,5.72-4.27,5.72s-4.99-2.31-4.16-5.36,2.15-6.18,4.18-6.09c2.35.1,4.25,2.57,4.25,5.73Z"/>
    </clipPath>
  </defs>
  <g id="Proof_Content" data-name="Proof Content">
    <g id="Bun">
      <g id="Hand">
        <g>
          <path class="cls-46" d="M28.62,138l-4.84,2.45c-.67.38-3.14,2.08-3.93,2.87-1.18,1.18-3.41,5.03.44,6.98,4.21,2.12,7.91-2.21,7.91-2.21l3.71-3.74c.53-.5.72-1.25.51-1.94l-1.04-3.33c-.24-.76-.92-1.29-1.72-1.33h0c-.36-.02-.72.07-1.04.25Z"/>
          <g class="cls-50">
            <path class="cls-48" d="M26,138.97c-.07,1.61-.14,3.23-.45,4.81s-.87,3.14-1.84,4.43c-1.13,1.51-2.82,2.6-4.66,3.02,3.79.9,7.74,1.16,11.57.46.76-.14,1.53-.31,2.21-.69,1.56-.86,2.39-2.6,3.02-4.26.81-2.15,1.44-4.55.65-6.71-.48-1.3-1.48-2.4-2.73-3-1.25-.6-2.73-.7-4.05-.27-.68.22-1.31.57-2.01.7-1.22.23-2.55-.32-3.26-1.34-.42.4-.67.97-.66,1.55.84,0,1.79.58,2.21,1.3Z"/>
          </g>
          <path class="cls-11" d="M28.62,138l-4.84,2.45c-.67.38-3.14,2.08-3.93,2.87-1.18,1.18-3.41,5.03.44,6.98,4.21,2.12,7.91-2.21,7.91-2.21l3.71-3.74c.53-.5.72-1.25.51-1.94l-1.04-3.33c-.24-.76-.92-1.29-1.72-1.33h0c-.36-.02-.72.07-1.04.25Z"/>
        </g>
        <path class="cls-9" d="M98.55,123.15c3.41.69,6.94.89,10.42.6,1.2-.1,2.5-.23,3.5.39.67.42,1.09,1.12,1.28,1.85s.17,1.49.12,2.24c-.07,1.06-.3,2.27-1.26,2.84-.63.37-1.42.38-2.16.35-2.25-.07-4.5-.26-6.73-.59-1.32-.19-2.68-.45-3.78-1.17-1.04-.68-1.77-1.76-1.99-2.94s.1-2.42.61-3.59Z"/>
      </g>
      <path class="cls-8" d="M79.41,161.48c-16.2-3.62-25.39-5.4-40.07.01l-5.97-38.17,50.29.09-4.25,38.06Z"/>
      <g id="head_and_daisy" data-name="head and daisy">
        <g id="daisy">
          <g>
            <path class="cls-5" d="M54.5,98.86l12.64.97,7.22-22.23c.43-1.83.61-3.71.46-5.59-.66-8.24-6.87-13.98-14.04-13.99h-1.71c-8.79-.02-16.99,9.59-13.11,19.87l8.53,20.97Z"/>
            <path class="cls-5" d="M67.01,99.33l9.01,8.06,20.07-11.65c1.53-1.07,2.91-2.35,4.04-3.84,4.96-6.57,4.14-15.04-1.18-19.89l-1.27-1.16c-6.53-5.96-18.98-4.35-22.89,5.91l-7.78,22.56Z"/>
            <path class="cls-5" d="M76.02,107.4l-.95,8.48,27.03,8.67c1.93.3,3.89.33,5.81,0,8.46-1.41,13.85-8.46,13.24-16.03l-.14-1.8c-.75-9.29-11.39-17.1-21.66-12.12l-23.33,12.8Z"/>
            <path class="cls-5" d="M74.25,116.26l-6.49,6.82,9.83,20.15c.92,1.55,2.05,2.96,3.4,4.15,5.93,5.2,14,4.92,18.93.06l1.17-1.16c6.04-5.96,5.27-18.12-4.22-22.53l-22.62-7.49Z"/>
            <path class="cls-5" d="M68.62,122.71l-11.33,1.14-2.49,19.27c-.22,1.6-.24,3.23,0,4.83,1.08,7.03,6.41,11.56,12.13,11.11l1.36-.11c7.01-.55,12.88-9.33,9.1-17.91l-8.77-18.34Z"/>
          </g>
          <path class="cls-5" d="M54.21,97.41l-8.43,8.56-21.25-10.88c-1.64-1.01-3.14-2.24-4.4-3.7-5.56-6.43-5.44-15.03-.47-20.18l1.18-1.23c6.1-6.32,18.81-5.26,23.62,4.95l9.75,22.48Z"/>
          <path class="cls-5" d="M45.43,106.7l-3.08,7.73-22.58,4.15c-1.86.24-3.77.25-5.63-.04-8.21-1.28-13.5-7.39-12.98-13.89l.12-1.55c.64-7.98,10.88-14.61,20.88-10.23l23.27,13.84Z"/>
          <path class="cls-5" d="M42.34,114.43l2.03,6.68-15.33,18.04c-1.78,1.79-3.4,3.14-5.05,3.69-7.11,2.35-12.96-1.9-14.57-4.37l-.76-1.28c-3.92-6.59-1.01-16.56,8.49-18.36l25.19-4.4Z"/>
          <path class="cls-5" d="M46.93,117.6l9.49,4.84-1.51,19.92c-.08,1.67-.38,3.33-.96,4.9-2.53,6.91-9.08,10.35-15.05,8.65l-1.42-.4c-7.32-2.08-12.55-10.31-6.85-18.2l16.31-19.72Z"/>
          <g id="Stamen">
            <line class="cls-6" x1="61.23" y1="94.89" x2="60.63" y2="76.66"/>
            <line class="cls-6" x1="75.51" y1="98.75" x2="86.5" y2="86.3"/>
            <line class="cls-6" x1="86.14" y1="110.38" x2="99.61" y2="110.19"/>
            <line class="cls-6" x1="78.77" y1="124.01" x2="86.41" y2="133.25"/>
            <line class="cls-6" x1="64.69" y1="128.57" x2="65.84" y2="140.04"/>
            <line class="cls-6" x1="49.24" y1="125.66" x2="44.55" y2="136.59"/>
            <line class="cls-6" x1="39.67" y1="118.72" x2="27.31" y2="126.14"/>
            <line class="cls-6" x1="35.08" y1="107.76" x2="22.22" y2="105.8"/>
            <line class="cls-6" x1="34.21" y1="84.63" x2="44.28" y2="98.48"/>
          </g>
        </g>
        <g id="head">
          <g>
            <ellipse class="cls-23" cx="60.68" cy="110.55" rx="24.76" ry="33.41" transform="translate(-49.97 171.03) rotate(-89.9)"/>
            <g class="cls-38">
              <path class="cls-48" d="M98.65,117.55c-25.49,17.38-52.18,14.98-74.15.72,1.59,4.9,3.14,9.98,4.73,14.88,1,3.08,4.14,2.85,7.31,3.5,8.65,1.78,17.57,2.25,26.36,1.39,8.36-.82,15.56-6.26,23.38-9.33,3.28-1.29,6.76-2.73,8.71-5.66,1.16-1.74,3.94-3.44,3.66-5.51Z"/>
            </g>
            <ellipse class="cls-4" cx="60.68" cy="110.55" rx="24.76" ry="33.41" transform="translate(-49.97 171.03) rotate(-89.9)"/>
          </g>
          <ellipse cx="49.73" cy="98.19" rx="4.34" ry="3.49" transform="translate(-52.08 140.03) rotate(-85.48)"/>
          <ellipse cx="66.5" cy="98.1" rx="3.63" ry="4.51" transform="translate(-6.3 4.58) rotate(-3.77)"/>
          <g>
            <g>
              <path class="cls-37" d="M51.61,86.64c-.32-.04-1.27.14-1.14-.16,1.67-3.91,9.58-9.6,16.85-2.13,3.6,3.69,8.03,1.55,8.03,1.55,0,0-5.05,9.06-15.03,4.74-4.86-2.1-4.8-3.49-8.72-4Z"/>
              <g class="cls-30">
                <path class="cls-49" d="M76.31,86.2c.6.86.64,2.92.07,3.8s-1.47,1.43-2.37,1.85c-5.05,2.39-10.77,1.99-16.22,1.33-1.2-.15-2.41-.31-3.53-.81s-2.15-1.39-2.63-2.64c-.26-.67-.36-1.44-.77-2.01s-1.33-.76-1.66-.13c1.69-2.73,4.72-2.87,7.39-2.21,2.31.57,4.47,1.71,6.75,2.41,4.32,1.33,8.82.29,12.97-1.59Z"/>
                <circle class="cls-25" cx="57.08" cy="83.88" r=".7"/>
                <path class="cls-21" d="M58.77,83.32c.86-.23,1.79-.15,2.6.23"/>
              </g>
              <path class="cls-7" d="M51.61,86.64c-.32-.04-1.27.14-1.14-.16,1.67-3.91,9.58-9.6,16.85-2.13,3.6,3.69,8.03,1.55,8.03,1.55,0,0-5.05,9.06-15.03,4.74-4.86-2.1-4.8-3.49-8.72-4Z"/>
            </g>
            <g>
              <path class="cls-37" d="M50.41,87.18c.09-.24.05-.64-.18-.74-1.75-.77-7.19-2.02-10.5,3.48-2.01,3.34-7.97,2.94-7.97,2.94,0,0,8.26,4.89,14.87-.66,3.22-2.7,3.32-3.76,3.77-5.02Z"/>
              <g class="cls-39">
                <path class="cls-49" d="M32.41,93.53c1.4.42,5.31-.11,7.87-.66,1.78-.39,3.31-.98,4.72-2.15s2.69-2.47,4.16-3.55c-.28,1.07-.47,2.16-.91,3.17s-1.03,1.97-1.83,2.72c-.82.77-1.85,1.3-2.93,1.64s-2.2.49-3.33.56c-1.14.07-2.28.07-3.42-.02-1.62-.12-3.17-.57-4.32-1.7Z"/>
                <path class="cls-18" d="M44.05,88.9c.29-.24.65-.42,1.02-.51"/>
              </g>
              <path class="cls-7" d="M50.41,87.18c.09-.24.05-.64-.18-.74-1.75-.77-7.19-2.02-10.5,3.48-2.01,3.34-7.97,2.94-7.97,2.94,0,0,8.26,4.89,14.87-.66,3.22-2.7,3.32-3.76,3.77-5.02Z"/>
            </g>
          </g>
          <path class="cls-16" d="M52.99,104.5s2.02,3.23,5.09.15c0,0,3.53,2.94,5.43-.38"/>
          <path class="cls-19" d="M79.97,104.87c-1.16-1.52-3.61-.84-3.65,1.28.03,3.18,4.27,3.53,6.21,1.54,1.19-1.16,1.44-2.95.99-4.52-.77-2.82-3.53-4.6-6.39-3.92-4.13.87-6.62,5.68-5.09,9.68,1.49,4.6,9.54,7.18,13.6,2.36"/>
          <path class="cls-19" d="M38.81,108.59c1.16-1.51,3.62-.83,3.64,1.29-.04,3.18-4.28,3.51-6.21,1.51-1.19-1.16-1.43-2.95-.97-4.52.78-2.82,3.54-4.58,6.41-3.9,4.13.88,6.6,5.7,5.05,9.7-1.5,4.6-9.56,7.15-13.61,2.31"/>
          <ellipse class="cls-31" cx="65.07" cy="96.82" rx=".94" ry=".64" transform="translate(-37.81 151.8) rotate(-84.22)"/>
          <ellipse class="cls-31" cx="48.36" cy="97.1" rx=".94" ry=".64" transform="translate(-55.25 129.23) rotate(-80.76)"/>
        </g>
      </g>
      <g id="legs">
        <g>
          <ellipse class="cls-35" cx="37.4" cy="154.57" rx="8.75" ry="11.62" transform="translate(-116.86 115.95) rotate(-62.34)"/>
          <g class="cls-41">
            <path class="cls-49" d="M49.66,159.09c-.88,2.08-1.79,4.19-3.3,5.87-1.76,1.95-4.24,3.15-6.82,3.63s-5.24.29-7.81-.26c-1.43-.3-2.88-.74-4.01-1.67-1.89-1.56-2.48-4.14-3.24-6.46-.5-1.54-1.12-3.03-1.68-4.55-.8-2.16-1.49-4.44-1.29-6.73s1.47-4.63,3.61-5.48c1.19,3.19,2.81,6.22,4.81,8.98.63.87,1.36,1.68,2.17,2.4,1.1.98,2.34,1.79,3.66,2.45,2.25,1.14,4.74,1.86,7.27,1.89s5.08-.64,7.16-2.07c-.29.71-.24,1.29-.54,2Z"/>
            <path class="cls-18" d="M35.6,147.43c1.38.14,2.73.55,3.94,1.2"/>
            <path class="cls-18" d="M41.09,149.61c.19.09.37.21.51.31"/>
          </g>
          <ellipse class="cls-11" cx="37.4" cy="154.57" rx="8.75" ry="11.62" transform="translate(-116.86 115.95) rotate(-62.34)"/>
        </g>
        <g>
          <ellipse class="cls-35" cx="81.48" cy="154.93" rx="11.62" ry="8.75" transform="translate(-63.3 56.54) rotate(-28.06)"/>
          <g class="cls-32">
            <path class="cls-49" d="M69.13,159.44c.87,2.08,1.77,4.2,3.28,5.88,1.75,1.95,4.23,3.16,6.8,3.66s5.24.31,7.81-.23c1.43-.3,2.88-.73,4.01-1.66,1.89-1.55,2.49-4.13,3.26-6.45.51-1.54,1.13-3.03,1.7-4.54.81-2.16,1.5-4.43,1.31-6.73s-1.46-4.63-3.59-5.49c-1.2,3.19-2.83,6.21-4.84,8.97-.64.87-1.37,1.68-2.18,2.39-1.1.97-2.35,1.78-3.66,2.44-2.26,1.13-4.75,1.84-7.27,1.87s-5.08-.65-7.15-2.1c.29.71.24,1.29.54,2Z"/>
            <path class="cls-18" d="M83.23,147.83c-1.38.13-2.73.54-3.95,1.19"/>
            <path class="cls-18" d="M77.73,149.99c-.19.09-.37.21-.51.31"/>
          </g>
          <ellipse class="cls-11" cx="81.48" cy="154.93" rx="11.62" ry="8.75" transform="translate(-63.3 56.54) rotate(-28.06)"/>
        </g>
      </g>
      <g>
        <path class="cls-24" d="M76.26,3.38c-1.24-.06-2.48-.17-3.73-.31-7.27-.85-14.71.5-21.29,3.55-3.33,1.54-6.44,3.51-9.24,5.83s-4.93,5.35-8.06,7.33c-4.89,3.1-10.44,4.43-15.52,7.11-5.6,2.95-12.23,7.68-13.78,13.96-.36,1.47-.46,3.06.17,4.44.65,1.43,2.02,2.47,3.51,3.07,6.04,2.44,13.82,1.29,20.1.43,7.17-.98,14.22-2.68,21.19-4.55,8.09-2.17,16.11-4.58,24.29-6.39,3.78-.83,7.86-1.92,11.73-1.87,4.35.06,8.67-.22,13.03.1,3.84.29,7.69.81,11.54.56,3.63-.24,7.2-1.18,10.83-1.13,4.85.08,9.45,1.92,13.99,3.57s9.56,3.64,14.36,2.98c1.97-.27,3.76-1.44,5.16-2.8,1.16-1.13,1.84-2.65,2.22-4.2,1.29-5.26-.96-11.16-5.46-14.38-3.51-2.5-7.95-3.33-12.1-4.62-5.09-1.58-10.32-3.85-14.8-6.67-5.39-3.4-9.73-7.43-16.44-8.12-4.46-.46-8.95.17-13.38.86-6.09.94-12.18,1.56-18.32,1.25Z"/>
        <g class="cls-33">
          <g>
            <path class="cls-45" d="M70.78,10.45c-1.69-1.16-5.02-.86-6.65-.75-3.03.21-6.03.9-8.89,1.91-1.77.63-3.63,1.56-4.38,3.29-.98,2.27.49,5.05,2.68,6.16,5.08,2.58,12.27-1.12,16.06-4.55.72-.65,1.41-1.37,1.84-2.25s.56-1.95.17-2.84c-.18-.4-.47-.72-.83-.97Z"/>
            <path class="cls-45" d="M41.82,21.42c.15.43.43.79.78,1.08.45.37,1.02.61,1.6.7,1.03.16,2.09-.1,3.06-.48,2.26-.87.83-3.19-.58-4.18-2.09-1.48-5.96-.24-4.86,2.88Z"/>
            <path class="cls-45" d="M100.87,11.47c.3.56.64,1.01.98,1.33.43.42.86.64,1.21.64.63,0,1.05-.57,1.37-1.28.75-1.66-1.22-4.55-2.48-5.64-1.88-1.61-3.28.88-1.09,4.95Z"/>
            <path class="cls-45" d="M108,11.48c-.03.43,0,.81.1,1.13.12.41.33.71.59.86.45.27,1.01.15,1.57-.08,1.28-.55,1.18-2.93.76-4.05-.62-1.66-2.76-.95-3.01,2.15Z"/>
            <path class="cls-45" d="M116.95,19.55c-.1.23-.15.46-.15.65,0,.25.06.47.17.6.21.25.55.29.92.27.84-.05,1.23-1.41,1.2-2.13-.05-1.06-1.41-1.1-2.14.6Z"/>
            <path class="cls-45" d="M45.86,37.43c1.46-.28,2.73-.41,3.76-.41,1.32,0,2.25.21,2.66.57.73.64.09,1.69-.96,2.78-2.42,2.53-10.41,3.6-14.01,3.45-5.34-.22-2.02-4.32,8.55-6.38Z"/>
            <path class="cls-45" d="M71.46,29.5c2.12-.46,3.96-.73,5.44-.84,1.9-.14,3.21,0,3.76.36.99.63.18,2.36-1.63,3.38-4.4,2.47-16.07,5.82-21.03,6.63-7.55,1.22-1.93-6.18,13.46-9.53Z"/>
            <path class="cls-42" d="M131.89,15.4c-.78-.51-1.49-1.08-2.22-1.7-2.1-1.78-7.16-3.53-8.25.34-.39,1.4-.46,3.01.24,4.32,1.04,1.95,3.48,2.71,5.49,3.18,2.31.54,4.71.64,7.07.52,1.03-.05,2.33-.48,2.6-1.6.17-.72-.08-1.5-.53-2.09-.92-1.21-2.44-1.79-3.72-2.54-.24-.14-.47-.28-.69-.43Z"/>
            <rect class="cls-42" x="145.75" y="32.94" width="2.05" height="4.95" rx="1.03" ry="1.03" transform="translate(42.52 144.64) rotate(-59.9)"/>
            <rect class="cls-42" x="143.55" y="35.2" width="2.17" height="3.73" rx="1.03" ry="1.03" transform="translate(31.06 133.99) rotate(-54.85)"/>
            <path class="cls-27" d="M110.24,27.28s32.2-11.42,45.37,10.05"/>
            <path class="cls-27" d="M110.89,22.1c2.62-7.75,8.28-14.42,15.5-18.26"/>
            <path class="cls-27" d="M53.48,4.13l11.16.54"/>
            <path class="cls-27" d="M68.84,5.18c5,.58,10.02,1.17,14.84,2.57s9.47,3.68,12.95,7.2"/>
            <path class="cls-27" d="M99.41,17.58c3.14,2.21,5.52,5.45,6.65,9.07"/>
            <path class="cls-27" d="M96.41,9.32l.91,2.62"/>
            <path class="cls-27" d="M84.77,12.92l3.07.86"/>
            <path class="cls-27" d="M74.92,20.33l2.28.25"/>
            <path class="cls-27" d="M7.32,43.85c4.04.5,8.15.32,12.16-.4,9.37-1.69,17.93-6.26,26.52-10.37,6.28-3,12.7-5.78,19.43-7.54,8.03-2.1,16.44-2.71,24.68-1.79,3.95.44,8,1.28,11.25,3.57"/>
            <path class="cls-43" d="M67.09,24.02c-7.77,1.95-15.79,2.59-23.72,1.9-2.67-.23-5.52-.58-7.9.83-.55.32-1.12.9-1.01,1.6.12.74.9,1.01,1.54,1.12,8.65,1.51,17.6.68,25.93-2.39"/>
          </g>
          <g>
            <ellipse class="cls-40" cx="101.16" cy="35.09" rx="13.38" ry="17.48" transform="translate(65.9 136.19) rotate(-89.9)"/>
            <path class="cls-28" d="M82.85,36.25s.82-10.59,10.5-13.25"/>
            <path class="cls-28" d="M108.69,23.26s9.9,3.79,9.63,14.33"/>
            <path class="cls-28" d="M97.28,21.93s4.44-.82,7.75.11"/>
            <path class="cls-26" d="M91.8,27.85c1.56-1.37,3.66-2.16,5.72-2.45"/>
            <path class="cls-26" d="M89.45,29.69l-.41.35"/>
          </g>
          <g>
            <g>
              <ellipse class="cls-22" cx="42.95" cy="33.16" rx="3.27" ry="4.02" transform="translate(9.72 76.06) rotate(-89.9)"/>
              <path class="cls-26" d="M43.18,32.16c-.17.06-.3.08-.3.08"/>
            </g>
            <g>
              <path class="cls-20" d="M34.26,34.45c-.23-.12-.46-.2-.68-.26-1.05-.26-2.16-.11-3.23.04-1.32.19-2.64.38-3.96.56-1.22.17-2.43.42-3.53,1.01-1.11.6-2.08,1.61-2.41,2.85-.29,1.08,0,2.35.85,3.07.72.62,1.72.78,2.67.83,2.73.14,5.5-.47,7.91-1.76.88-.47,1.71-1.03,2.42-1.73.63-.63,1.37-1.45,1.52-2.36.17-.99-.67-1.84-1.55-2.28Z"/>
              <path class="cls-26" d="M23.25,39.85s.02.01.02.01"/>
              <path class="cls-29" d="M24.82,37.75c.59-.24,1.19-.38,1.77-.42"/>
            </g>
          </g>
        </g>
        <path class="cls-11" d="M76.26,3.38c-1.24-.06-2.48-.17-3.73-.31-7.27-.85-14.71.5-21.29,3.55-3.33,1.54-6.44,3.51-9.24,5.83s-4.93,5.35-8.06,7.33c-4.89,3.1-10.44,4.43-15.52,7.11-5.6,2.95-12.23,7.68-13.78,13.96-.36,1.47-.46,3.06.17,4.44.65,1.43,2.02,2.47,3.51,3.07,6.04,2.44,13.82,1.29,20.1.43,7.17-.98,14.22-2.68,21.19-4.55,8.09-2.17,16.11-4.58,24.29-6.39,3.78-.83,7.86-1.92,11.73-1.87,4.35.06,8.67-.22,13.03.1,3.84.29,7.69.81,11.54.56,3.63-.24,7.2-1.18,10.83-1.13,4.85.08,9.45,1.92,13.99,3.57s9.56,3.64,14.36,2.98c1.97-.27,3.76-1.44,5.16-2.8,1.16-1.13,1.84-2.65,2.22-4.2,1.29-5.26-.96-11.16-5.46-14.38-3.51-2.5-7.95-3.33-12.1-4.62-5.09-1.58-10.32-3.85-14.8-6.67-5.39-3.4-9.73-7.43-16.44-8.12-4.46-.46-8.95.17-13.38.86-6.09.94-12.18,1.56-18.32,1.25Z"/>
      </g>
      <g>
        <path class="cls-34" d="M28.4,48.82c-.4.09,70.66-8.4,77.18,24.36,7.63,30.21-.76,86.79-.84,87.34-.34,2.15.16,3.58,1.7,4.12,2.9.72,4.82-.45,5.09-3.03.09-8.96.52-17.91,1-26.85.46-8.68.95-17.35,1.17-26.04.22-8.93.29-17.84-.85-26.73-.65-5.04-2.4-9.8-3.49-14.74-2.01-8.27,1.09-10.81,6.52-14.98,5.84-4.5,18.28-7.76,34.36-10.32-7.4.54-15.2-4.67-26.02-6.2-7.72-.62-12.19.05-17.03.93-1.92.34-5.64.18-7.2-.37-4.85-1.3-10.06-1.46-16.2-.91-9.85.77-18.1,2.58-25.12,5.17-17.36,8.32-13.27.64-30.26,8.24Z"/>
        <g class="cls-36">
          <path class="cls-47" d="M78.79,56.86c-3.87-1.53-7.73-3.06-11.6-4.59-.76-.3-1.53-.61-2.17-1.12s-1.13-1.26-1.14-2.08c-.03-6.23,15.73-1.27,18.68-.41,1.38.4,4.31,1.31,4.91-.79.23-.81-.02-1.66-.14-2.49s-.08-1.8.56-2.34c1.63-1.37,3.22.96,3.71,2.26.45,1.19.83,2.53,1.89,3.24,1.76,1.17,3.83-.09,4.89-1.57.7-.97,1.21-2.08,1.98-3s1.94-1.63,3.12-1.43c3.42.57.75,4.91.57,6.65-.13,1.25.32,2.65,1.4,3.29.87.52,2,.45,2.94.07,3.25-1.32,5.84-3.52,9.35-4.39,3.32-.82,11.7-2.12,12.24,2.99.17,1.61-.83,3.07-1.68,4.44-4.87,7.84-6.11,17.43-5.77,26.66s2.16,18.32,2.92,27.52c1.02,12.28,2.03,24.56,3.05,36.84.36,4.35.72,8.73.33,13.08-.24,2.68-.77,5.34-1.57,7.92-1.61,5.19-4.54,10.22-9.18,13.06-3.92,2.39-8.64,3-13.2,3.55-2.35.28-5.3.27-6.39-1.83-1.73-3.36-2.48-7.13-3.03-10.86-1-6.73-1.46-13.52-2.19-20.28-2.75-25.23-9.5-50.01-19.86-73.18-2.97-6.64-6.23-13.14-9.78-19.48-.96-1.71-2.34-2.67-.3-3.53,1.55-.66,3.7-.68,5.36-.67,3.49,0,6.99.84,10.08,2.48Z"/>
          <path class="cls-47" d="M61.64,47.82c-1.52-2.66-5.05-3.97-7.94-2.94-1.18.42-2.35,1.39-2.33,2.64.02.95.74,1.78,1.6,2.15s1.85.38,2.79.27c1.91-.23,3.77-.9,5.87-2.12Z"/>
          <path class="cls-47" d="M87.69,37.29c-.98-.78-2.7-.17-2.97,1.06-.27,1.23,1.18,2.68,2.43,2.29s1.56-2.54.54-3.34Z"/>
          <path class="cls-47" d="M109.34,41.27c-1.5,1.26-5.32.82-3.18-1.65.65-.75,1.69-1.37,2.68-1.11,1.31.33,1.52,1.9.5,2.76Z"/>
          <path class="cls-47" d="M127.29,46.04c-.26-.76.18-1.63.87-2.17.09-.07.19-.14.29-.2.64-.4,1.42-.62,2.19-.76.91-.16,1.86-.24,2.74,0,2.15.56.87,2.37-.38,3.22-1.42.97-4.98,2.07-5.71-.09Z"/>
        </g>
        <path class="cls-12" d="M28.4,48.82c-.4.09,70.66-8.4,77.18,24.36,7.63,30.21-.76,86.79-.84,87.34-.34,2.15.16,3.58,1.7,4.12,2.9.72,4.82-.45,5.09-3.03.09-8.96.52-17.91,1-26.85.46-8.68.95-17.35,1.17-26.04.22-8.93.29-17.84-.85-26.73-.65-5.04-2.4-9.8-3.49-14.74-2.01-8.27,1.09-10.81,6.52-14.98,5.84-4.5,18.28-7.76,34.36-10.32-7.4.54-15.2-4.67-26.02-6.2-7.72-.62-12.19.05-17.03.93-1.92.34-5.64.18-7.2-.37-4.85-1.3-10.06-1.46-16.2-.91-9.85.77-18.1,2.58-25.12,5.17-17.36,8.32-13.27.64-30.26,8.24Z"/>
      </g>
      <g>
        <path class="cls-1" d="M119.9,129.12c0,3.16-1.92,5.72-4.27,5.72s-4.99-2.31-4.16-5.36,2.15-6.18,4.18-6.09c2.35.1,4.25,2.57,4.25,5.73Z"/>
        <g class="cls-44">
          <path class="cls-48" d="M115.9,123.41c1.79,3.65,1.85,8.11.16,11.81-.18.39-.37.77-.47,1.19s-.09.87.13,1.24c.13.22.33.4.54.54,1.08.72,2.64.62,3.61-.23.66-.58,1.03-1.41,1.33-2.22.73-1.94,1.2-4.01,1.11-6.09s-.78-4.16-2.16-5.71c-.63-.71-1.41-1.31-2.3-1.61s-1.92-.29-2.76.15c0-.16-.02-.32-.03-.49-.43.16-.64.74-.44,1.16s.89.49,1.28.26Z"/>
        </g>
        <path class="cls-11" d="M119.9,129.12c0,3.16-1.92,5.72-4.27,5.72s-4.99-2.31-4.16-5.36,2.15-6.18,4.18-6.09c2.35.1,4.25,2.57,4.25,5.73Z"/>
      </g>
    </g>
  </g>
</svg>